<?xml version="1.0" standalone="no"?>
<!DOCTYPE svg PUBLIC "-//W3C//DTD SVG 20010904//EN"
 "http://www.w3.org/TR/2001/REC-SVG-20010904/DTD/svg10.dtd">
<svg version="1.0" xmlns="http://www.w3.org/2000/svg"
 width="500.000000pt" height="500.000000pt" viewBox="0 0 500.000000 500.000000"
 preserveAspectRatio="xMidYMid meet">
<metadata>
Created by potrace 1.15, written by Peter Selinger 2001-2017
</metadata>
<g transform="translate(0.000000,500.000000) scale(0.100000,-0.100000)"
fill="#000000" stroke="none">
<path d="M1427 2893 l-78 -4 46 -87 c101 -196 270 -360 458 -447 131 -60 355
-98 473 -80 l48 7 -92 38 c-145 60 -227 114 -333 219 -95 96 -157 184 -200
288 -20 50 -22 52 -68 57 -82 9 -174 13 -254 9z"/>
<path d="M3346 2890 c-43 -5 -80 -11 -81 -12 -2 -2 -22 -41 -45 -88 -76 -152
-184 -278 -318 -369 -71 -48 -107 -66 -207 -107 l-80 -32 49 -7 c64 -10 252
10 341 35 216 62 406 204 534 400 59 89 98 167 89 175 -10 11 -204 14 -282 5z"/>
<path d="M1193 2048 c-6 -7 -25 -49 -43 -93 -18 -44 -37 -86 -42 -92 -8 -10
-2 -13 28 -13 32 0 35 2 21 13 -11 8 -15 20 -11 35 6 21 12 23 58 20 45 -3 51
-6 54 -27 2 -13 -2 -28 -10 -32 -8 -6 4 -9 32 -9 25 0 40 4 33 8 -6 4 -30 51
-54 105 -23 53 -45 97 -49 97 -4 0 -12 -6 -17 -12z"/>
<path d="M1693 2041 c-42 -26 -62 -86 -43 -131 28 -66 116 -77 164 -19 75 89
-24 211 -121 150z m96 -27 c45 -57 16 -144 -47 -144 -41 0 -67 33 -67 85 0 79
70 115 114 59z"/>
<path d="M2384 2050 c-61 -25 -84 -116 -41 -165 49 -56 145 -34 166 39 24 90
-44 159 -125 126z m66 -20 c24 -13 43 -70 34 -104 -13 -53 -77 -73 -114 -36
-14 14 -20 33 -20 65 0 69 46 104 100 75z"/>
<path d="M2598 2053 c16 -6 17 -174 0 -191 -9 -9 -2 -12 32 -11 25 1 37 3 28
6 -23 6 -30 35 -26 103 l3 54 70 -84 70 -85 3 95 c2 75 6 98 19 108 14 10 10
12 -28 11 -24 -1 -36 -3 -26 -6 14 -4 17 -16 17 -74 0 -38 -2 -69 -4 -69 -1 0
-24 27 -50 60 -64 81 -74 90 -99 89 -12 0 -16 -3 -9 -6z"/>
<path d="M3201 2047 c-6 -8 -24 -47 -41 -87 -17 -41 -38 -82 -47 -92 -15 -17
-14 -18 27 -18 39 0 42 1 26 13 -13 10 -16 20 -12 35 6 19 15 22 56 22 40 0
50 -4 55 -20 4 -12 1 -27 -5 -35 -11 -13 -6 -15 31 -15 36 0 40 2 27 13 -9 6
-33 54 -54 105 -21 50 -41 92 -44 92 -4 0 -13 -6 -19 -13z"/>
</g>
</svg>
