<?xml version="1.0" standalone="no"?>
<!DOCTYPE svg PUBLIC "-//W3C//DTD SVG 20010904//EN"
 "http://www.w3.org/TR/2001/REC-SVG-20010904/DTD/svg10.dtd">
<svg version="1.0" xmlns="http://www.w3.org/2000/svg"
 width="220.000000pt" height="30.000000pt" viewBox="0 0 220.000000 30.000000"
 preserveAspectRatio="xMidYMid meet">

<g transform="translate(0.000000,30.000000) scale(0.100000,-0.100000)"
fill="#000000" stroke="none">
<path d="M1608 125 c2 -19 7 -35 11 -35 4 0 5 16 3 35 -2 19 -7 35 -11 35 -4
0 -5 -16 -3 -35z"/>
<path d="M256 134 c-5 -12 -2 -15 10 -10 8 3 18 6 20 6 3 0 2 5 -1 10 -9 15
-22 12 -29 -6z"/>
<path d="M1028 120 c2 -16 5 -30 7 -30 2 0 5 14 7 30 3 19 0 30 -7 30 -7 0
-10 -11 -7 -30z"/>
<path d="M1306 133 c-4 -9 0 -23 8 -31 16 -16 46 -10 46 10 0 10 -3 9 -9 -1
-10 -15 -41 -8 -41 9 0 6 10 15 23 20 22 9 22 9 1 9 -12 1 -25 -7 -28 -16z"/>
<path d="M50 137 c0 -12 52 -87 61 -87 17 0 9 29 -9 34 -9 3 -25 18 -34 33
-10 16 -18 25 -18 20z"/>
<path d="M1068 115 c2 -14 6 -25 8 -25 2 0 4 11 4 25 0 14 -4 25 -9 25 -4 0
-6 -11 -3 -25z"/>
<path d="M1105 130 c-3 -6 1 -7 9 -4 11 4 16 0 16 -11 0 -11 -5 -15 -15 -11
-8 3 -15 1 -15 -4 0 -6 11 -10 24 -10 19 0 22 4 18 25 -4 25 -25 34 -37 15z"/>
<path d="M1163 124 c-4 -10 1 -22 11 -29 13 -10 14 -14 4 -18 -9 -4 -9 -6 -1
-6 16 -1 36 37 29 55 -7 19 -35 18 -43 -2z m29 -9 c0 -5 -5 -11 -11 -13 -6 -2
-11 4 -11 13 0 9 5 15 11 13 6 -2 11 -8 11 -13z"/>
<path d="M1224 125 c-7 -18 3 -35 21 -35 18 0 26 25 12 39 -15 15 -27 14 -33
-4z m28 -10 c0 -5 -5 -11 -11 -13 -6 -2 -11 4 -11 13 0 9 5 15 11 13 6 -2 11
-8 11 -13z"/>
<path d="M1374 125 c-4 -9 -2 -21 4 -27 15 -15 44 -1 40 19 -4 23 -36 29 -44
8z m34 -13 c2 -7 -3 -12 -12 -12 -9 0 -16 7 -16 16 0 17 22 14 28 -4z"/>
<path d="M1434 131 c4 -5 13 -8 21 -5 8 3 15 -3 18 -15 4 -19 5 -19 3 1 -1 16
-8 24 -25 26 -14 2 -21 0 -17 -7z"/>
<path d="M1494 125 c-4 -8 -1 -21 5 -29 6 -7 8 -16 4 -19 -3 -4 -2 -7 4 -7 6
0 13 7 17 15 3 9 0 15 -9 15 -8 0 -15 7 -15 16 0 10 6 14 15 10 8 -3 15 -1 15
4 0 16 -30 11 -36 -5z"/>
<path d="M1555 130 c-3 -6 1 -7 9 -4 11 4 16 0 16 -11 0 -11 -5 -15 -15 -11
-8 3 -15 1 -15 -4 0 -6 11 -10 24 -10 19 0 22 4 18 25 -4 25 -25 34 -37 15z"/>
<path d="M1641 130 c0 -8 3 -21 8 -28 6 -10 10 -10 20 2 7 9 11 21 8 28 -4 8
-6 7 -6 -4 -1 -10 -5 -18 -10 -18 -5 0 -12 8 -14 18 -3 12 -5 13 -6 2z"/>
<path d="M1694 125 c-8 -19 3 -35 24 -34 14 0 14 2 -2 8 -18 7 -18 8 -2 14 9
4 14 11 11 17 -9 15 -25 12 -31 -5z"/>
<path d="M1745 130 c-3 -6 1 -13 10 -16 13 -6 14 -8 3 -15 -10 -7 -9 -9 5 -9
22 0 22 19 0 27 -15 6 -15 7 3 14 16 6 16 8 2 8 -9 1 -20 -4 -23 -9z"/>
</g>
</svg>
