<?xml version="1.0" encoding="utf-8"?>
<!-- Generator: Adobe Illustrator 16.0.0, SVG Export Plug-In . SVG Version: 6.00 Build 0)  -->
<!DOCTYPE svg PUBLIC "-//W3C//DTD SVG 1.1//EN" "http://www.w3.org/Graphics/SVG/1.1/DTD/svg11.dtd">
<svg version="1.1" id="Layer_1" xmlns="http://www.w3.org/2000/svg" xmlns:xlink="http://www.w3.org/1999/xlink" x="0px" y="0px"
	 width="293.334px" height="56.667px" viewBox="0 0 293.334 56.667" enable-background="new 0 0 293.334 56.667"
	 xml:space="preserve">
<g>
	<g>
		<path fill="#4ECBD8" d="M143.443,73.914c-75.974,0-151.947-0.002-227.919,0.027c-1.106,0-1.358-0.232-1.357-1.261
			c0.034-26.668,0.034-53.335,0-80.002c-0.001-0.939,0.199-1.123,1.208-1.123c251.691,0.046,366.419,0.016,456.134,0
			c1.01,0,1.21,0.183,1.208,1.123c-0.035,26.667-0.035,53.334,0,80.002c0.002,1.028-0.249,1.261-1.357,1.261
			C295.39,73.912,219.418,73.914,143.443,73.914z"/>
		<path fill="#FEFEFE" d="M143.303,66.505c-72.227,0-144.456,0-216.683-0.006c-2.41,0-2.084,0.294-2.087-1.979
			c-0.009-21.27,0.006-42.536-0.034-63.803c-0.004-1.312,0.237-1.765,1.81-1.763C70.959-1.006,215.613-1.006,360.266-1.043
			c1.535,0,1.831,0.402,1.829,1.746c-0.045,21.36-0.029,42.721-0.035,64.079c0,1.938,0.235,1.721-1.925,1.721
			C287.857,66.505,215.58,66.505,143.303,66.505z"/>
		<path fill="#3C3C3C" d="M116.373,26.943c0.339-3.738,2.947-6.169,5.987-8.022c5.675-3.459,11.93-4.421,18.531-2.581
			c1.447,0.404,2.68,1.113,3.604,2.355c1.683,2.27-0.107,4.107-2.396,4.427c-0.241,0.033-0.49,0.018-0.737,0.009
			c-1.672-0.059-2.713-0.798-2.706-1.918c0.005-1.183,0.89-1.821,2.667-1.925c0.144-0.009,0.286-0.044,0.555-0.087
			c-0.488-1.025-1.534-1.267-2.428-1.551c-4.923-1.559-9.48-0.702-13.575,2.146c-2.718,1.89-4.755,4.256-5.169,7.584
			c-0.446,3.581,1.829,6.314,5.454,6.804c4.639,0.625,8.783-0.348,11.804-3.866c1.302-1.515,2.806-1.102,4.409-1.079
			c-0.974,2.408-1.813,4.755-3.322,6.853c-3.802,5.28-9.017,8.45-15.81,9.287c-3.283,0.404-6.548,0.498-9.682-0.824
			c-1.098-0.462-1.935-1.201-2.618-2.048c-0.778-0.967-0.09-2.904,1.305-3.769c3.962-2.454,8.201-2.312,12.513-0.998
			c0.303,0.091,1.221,0.019,0.875,0.76c-0.271,0.58-0.675,1.247-1.589,0.994c-1.971-0.55-3.989-0.543-6-0.405
			c-1.556,0.104-3.104,0.326-4.407,1.29c-1.013,0.75-1.037,1.508,0.048,2.229c2.514,1.67,5.414,1.546,8.231,1.278
			c5.047-0.481,8.986-2.875,12.092-6.554c1.128-1.338,2.379-2.588,2.843-4.299c-0.105-0.203-0.226-0.105-0.343-0.011
			c-4.947,3.689-12.403,3.937-17.644,0.676c-1.586-0.987-2.107-2.486-2.758-3.969C116.257,28.805,115.901,27.839,116.373,26.943z"/>
		<path fill="#3C3C3C" d="M17.037,30.779c-0.425-1.301-1.523-2-2.097-3.044c-0.931-1.693-0.954-3.314,0.006-4.864
			c3.899-6.308,10.275-7.675,17.41-7.241c2.587,0.156,5.148,0.678,7.719,1.058c1.842,0.273,3.61,0.284,5.109-0.97
			c0.554-0.463,1.18-0.235,1.847-0.183c-0.286,1.264-1.337,1.754-2.395,2.188c-1.363,0.561-2.823,0.835-4.304,0.798
			c-2.271-0.059-3.729,1.225-4.274,3.313c-0.551,2.121-0.859,4.254-1.164,6.41c-0.641,4.54-3.434,7.79-7.826,9.651
			c-6.002,2.545-12.266,3.111-18.621,1.15c-3.117-0.959-4.1-2.763-3.323-4.828c0.514-1.369,1.725-2.131,3.101-2.657
			C10.863,30.551,14.106,30.261,17.037,30.779z"/>
		<path fill="#3C3C3C" d="M69.742,34.112c0.31-2.606,4.643-4.591,7.649-4.631c1-0.013,1.572-0.171,2.222-1.131
			c1.231-1.817,3.335-2.562,5.694-2.334c0.758,0.072,1.612,0.168,1.765,1.134c0.092,0.581,0.024,1.161-0.562,1.442
			c-0.751,0.36-1.7,0.636-2.329-0.038c-1.213-1.302-2.265-0.532-3.301,0.097c-0.566,0.344-0.976,0.764,0.124,1.213
			c2.989,1.219,4.158,3.158,3.16,5.389c-0.759,1.699-2.443,2.619-4.24,3.245c-1.827,0.633-3.735,0.696-5.658,0.435
			c-0.291-0.04-0.581-0.162-0.867-0.149c-0.786,0.028-1.595,0.485-1.642,1.061c-0.07,0.88,0.928,0.545,1.479,0.57
			c2.253,0.108,4.526-0.176,6.767,0.227c0.849,0.153,1.777,0.253,2.207,1.141c0.339,0.473,0.329,0.947,0.015,1.425
			c-0.258,1.151-1.238,1.607-2.271,1.895c-3.385,0.937-6.815,1.147-10.284,0.366c-0.485-0.11-0.923-0.264-1.353-0.489
			c-1.26-0.656-1.302-1.476-0.09-2.172c0.607-0.348,1.336-0.607,0.615-1.486c-0.306-0.372,0.012-0.786,0.382-1.056
			c0.187-0.135,0.443-0.188,0.624-0.324c0.637-0.48,1.559-0.879,1.802-1.498c0.271-0.692-0.894-0.999-1.271-1.566
			c-0.326-0.486-0.44-1.094-0.648-1.651C69.465,34.853,69.465,34.481,69.742,34.112z"/>
		<path fill="#3C3C3C" d="M168.658,33.559c1.841-1.752,3.766-3.378,6.437-3.979c1.334-0.301,2.668-0.206,3.485,0.801
			c0.764,0.936,0.271,1.976-0.313,3.021c-0.547,0.973-0.938,2.047-1.443,3.062c-0.179,0.358-0.374,0.834,0.075,1.119
			c0.377,0.24,0.728-0.077,1.054-0.288c0.515-0.34,1.06-0.641,1.406-1.16c0.249-0.368,0.564-0.668,1.075-0.337
			c0.622,0.4,0.26,0.839-0.044,1.159c-1.201,1.258-2.56,2.306-4.356,2.791c-1.118,0.3-2.149,0.11-2.802-0.673
			c-0.641-0.767-0.439-1.828,0.095-2.597c0.695-0.993,0.775-2.193,1.5-3.173c0.246-0.341,0.351-1.027-0.113-1.404
			c-0.497-0.402-1.141-0.273-1.67-0.002c-1.578,0.81-2.965,1.875-4.043,3.205c-1.07,1.319-2.264,2.54-3.257,3.93
			c-0.841,1.18-2.331,0.364-3.665,0.613c0.464-1.974,1.548-3.543,2.179-5.27c0.013-0.036,0.101-0.053,0.108-0.085
			c0.176-0.72,0.888-1.64,0.041-2.11c-0.695-0.388-1.33,0.505-1.781,1.029c-0.94,1.095-0.899,1.124-2.278,0.334
			c1.28-1.449,2.504-2.944,4.454-3.675c0.492-0.185,1.022-0.331,1.551-0.386c1.489-0.16,2.338,0.625,2.207,1.994
			c-0.049,0.501-0.132,0.997-0.201,1.496c-0.11,0.16-0.244,0.312-0.215,0.52c0.035,0.093,0.104,0.15,0.215,0.165
			C168.47,33.644,168.567,33.61,168.658,33.559z"/>
		<path fill="#3C3C3C" d="M63.929,36.608c0.095,0.898,0.379,1.207,1.396,0.663c0.657-0.351,1.056-0.908,1.644-1.3
			c0.562-0.377,0.966-0.229,1.262,0.076c0.388,0.406-0.196,0.544-0.417,0.803c-1.188,1.383-2.686,2.361-4.476,2.907
			c-1.356,0.417-2.237-0.028-2.744-1.227c-0.258-0.196-0.25-0.737-0.812-0.543c-2.508,2.076-5.847,2.484-8.171,1.097
			c-2.146-1.283-2.526-3.644-1.401-5.594c1.382-2.393,3.541-3.513,6.216-3.947c2.175-0.354,4.17,0.039,5.543,1.896
			c0.708-1.54,1.897-2.087,3.746-1.609c1.077,0.276,0.29,1.108,0.121,1.386c-0.814,1.332-0.986,2.816-1.394,4.242
			C64.089,35.771,64.259,36.286,63.929,36.608z"/>
		<path fill="#3C3C3C" d="M212.659,37.419c0.717,0.364,1.151-0.069,1.604-0.483c0.412-0.375,0.849-0.724,1.261-1.097
			c0.388-0.348,0.71-0.087,1.009,0.098c0.429,0.267,0.17,0.618-0.053,0.809c-1.203,1.025-2.346,2.143-3.871,2.769
			c-2.177,0.888-3.336,0.321-3.935-2.011c-1.341,1.527-3.035,2.281-5.046,2.369c-2.514,0.11-4.5-0.837-5.128-2.396
			c-0.837-2.08-0.026-4.783,1.882-6.132c1.715-1.214,3.641-1.869,5.825-1.895c1.729-0.021,3.049,0.699,4.172,1.866
			c0.621-1.325,2.476-2.022,3.785-1.495c0.562,0.228,0.314,0.627,0.215,0.926c-0.486,1.454-1.021,2.896-1.527,4.344
			c-0.104,0.306-0.153,0.623-0.228,0.933C212.299,36.495,212.269,36.961,212.659,37.419z"/>
		<path fill="#3C3C3C" d="M230.149,17.735c-1.265,2.49-2.571,4.965-3.776,7.481c-0.486,1.018-0.938,2.062-1.348,3.104
			c-0.827,2.094-1.685,4.18-2.533,6.265c-0.378,0.93-1.01,2.313-0.105,2.915c0.697,0.462,1.769-0.588,2.397-1.353
			c0.338-0.409,0.66-0.681,1.19-0.239c0.523,0.438,0.09,0.786-0.17,1.038c-1.166,1.144-2.419,2.21-4.053,2.753
			c-1.57,0.52-3.702-0.025-3.457-2.327c0.247-2.304,1.032-4.437,1.949-6.563c0.57-1.327,0.941-2.713,1.561-4.044
			c1.338-2.868,2.81-5.666,4.329-8.45c0.23-0.426,0.64-0.643,0.944-0.975c0.853-0.216,1.725-0.064,2.585-0.092
			C229.98,17.243,230.227,17.366,230.149,17.735z"/>
		<path fill="#3C3C3C" d="M184.361,45.058c1.179,0.02,2.355,0.043,3.535,0.062c0.57,0.011,1.052-0.36,1.092-0.737
			c0.052-0.459-0.507-0.767-1.008-0.832c-0.775-0.101-1.563-0.119-2.415-0.177c0.266-0.754,0.329-1.516,0.864-2.152
			c0.657-0.782,0.757-1.286-0.599-1.605c-3.328-0.783-4.148-2.774-3.517-4.81c0.51-1.632,1.886-2.781,3.446-3.632
			c2.665-1.45,5.558-1.97,8.623-1.605c0.333,0.039,0.658,0.179,0.981,0.288c1.205,0.401,1.959,1.376,1.602,2.051
			c-0.448,0.844-2.129,1.304-3.112,0.816c-0.731-0.361-0.954-1-0.544-1.618c0.47-0.712,0.076-0.725-0.502-0.786
			c-3.324-0.354-6.645,2.903-6.08,5.968c0.235,1.293,1.2,1.824,2.459,1.924c1.72,0.135,3.256-0.32,4.613-1.368
			c0.285-0.219,0.682-0.89,1.197-0.406c0.562,0.529-0.112,0.952-0.442,1.217c-1.379,1.12-3.014,1.772-4.829,2.076
			c-0.449,0.073-1.115-0.119-1.341,0.582c-0.216,0.67-0.651,1.308,0.667,1.319c0.472,0.005,1,0.153,1.4,0.386
			c0.769,0.451,1.595,0.935,1.459,1.984c-0.125,0.978-0.949,1.337-1.784,1.563c-2.029,0.553-4.064,0.531-6.056-0.224
			C183.985,45.084,184.061,44.969,184.361,45.058z"/>
		<path fill="#3C3C3C" d="M250.801,36.352c0.129,1.088,0.918,1.401,1.686,1.625c2.097,0.604,4.045,0.134,5.897-0.837
			c0.167-0.09,0.299-0.266,0.476-0.314c0.385-0.105,0.81-0.498,1.174-0.011c0.323,0.43-0.163,0.668-0.387,0.896
			c-0.667,0.68-1.564,1.058-2.472,1.364c-2.241,0.765-4.537,1.144-6.896,0.521c-1.634-0.433-3.172-1.109-3.591-2.806
			c-0.454-1.851,0.064-3.539,1.734-4.737c2.998-2.15,6.343-3.167,10.131-2.288c1.271,0.294,2.6,0.676,2.78,2.2
			c0.14,1.173-0.783,2.385-2.263,3.013c-1.295,0.549-2.667,0.842-4.064,1.071C253.648,36.278,252.278,36.303,250.801,36.352z"/>
		<path fill="#3C3C3C" d="M148.966,39.885c-1.586-0.048-3.551-0.384-5.078-1.908c-1.126-1.124-1.485-3.114-0.569-4.382
			c2.967-4.114,9.949-5.429,14.013-2.798c2.898,1.879,2.306,4.08,0.355,6.096C155.549,39.099,152.441,39.828,148.966,39.885z"/>
		<path fill="#3C3C3C" d="M86.563,34.928c0.502-2.6,2.641-3.788,4.934-4.698c2.453-0.97,5.021-1.083,7.599-0.264
			c1.56,0.495,2.963,1.183,3.451,2.759c0.598,1.926-0.27,3.65-1.797,4.704c-3.503,2.424-7.437,3.337-11.681,1.646
			c-1.292-0.516-2.288-1.346-2.504-2.748C86.255,35.863,86.255,35.396,86.563,34.928z"/>
		<path fill="#3C3C3C" d="M229.458,37.405c0.156-1.41,0.891-2.634,1.45-3.918c0.164-0.381,0.422-0.977-0.059-1.259
			c-0.49-0.286-0.886,0.146-1.208,0.514c-0.334,0.376-0.839,0.578-1.103,1.047c-0.317,0.564-0.763,0.343-1.242,0.115
			c-0.695-0.33-0.282-0.688-0.052-0.976c1.173-1.471,2.65-2.604,4.484-3.274c1.013-0.37,2.068-0.335,2.828,0.482
			c0.68,0.731,0.5,1.74,0.14,2.455c-0.694,1.372-0.925,2.837-1.383,4.253c-0.278,0.29-0.305,0.573,0.025,0.85
			c2.069,0.792,3.744-0.283,5.444-1.064c1.538-0.707,2.593-1.953,3.549-3.228c0.355-0.474,0.618-1.171-0.595-1.082
			c-0.82,0.062-1.561-0.14-1.932-0.938c-0.214-0.275-0.216-0.555-0.001-0.836c1.271-1.598,3.8-1.46,4.783,0.261
			c0.38,0.653,0.377,1.309,0.004,1.964c-1.467,3.974-4.952,5.647-8.935,6.713c-1.267,0.338-2.592,0.484-3.923,0.389
			c-0.995-0.074-1.953-0.262-2.268-1.355C229.188,38.15,229.188,37.779,229.458,37.405z"/>
		<path fill="#3C3C3C" d="M271.753,36.855c-0.546-0.905-1.586-0.98-2.487-1.271c-1.189-0.382-2.465-0.495-3.525-1.258
			c-1.145-0.82-1.357-2.251-0.329-3.133c2.185-1.88,8.109-2.37,10.582-0.875c0.502,0.304,0.729,0.756,0.642,1.287
			c-0.081,0.492-0.238,0.933-0.885,1.133c-0.794,0.246-1.562,0.268-2.291-0.034c-0.923-0.38-0.69-1.01-0.365-1.714
			c0.234-0.505-0.354-0.415-0.633-0.432c-1.081-0.07-2.149-0.002-3.211,0.247c-0.521,0.121-1.028,0.452-1.06,0.797
			c-0.035,0.37,0.451,0.765,0.938,0.918c1.431,0.449,2.88,0.854,4.298,1.333c0.581,0.197,1.19,0.449,1.64,0.826
			c1.508,1.262,1.364,2.748-0.388,3.75c-3.389,1.939-6.99,1.846-10.592,0.664c-0.938-0.31-2.105-1.003-1.487-2.234
			c0.49-0.984,1.577-1.084,2.662-0.732c1.227,0.393,1.331,0.977,0.376,2.183c1.884,0.969,4.962,0.662,6.119-0.609
			C272.019,37.416,272.017,37.134,271.753,36.855z"/>
		<path fill="#3D3D3D" d="M38.217,33.55c1.15-1.804,2.732-3.097,4.762-3.846c1.202-0.444,2.376-0.515,3.184,0.773
			c0.192,0.305,0.358,0.631,0.229,0.863c-0.713,1.272-0.873,2.743-1.7,3.972c-0.458,0.682-1.146,1.605-0.462,2.183
			c0.581,0.492,1.143-0.647,1.755-0.841c0.662-0.206,0.872-1.694,1.781-0.768c0.858,0.872-0.468,1.223-0.911,1.721
			c-0.813,0.911-1.918,1.506-3.072,1.981c-1.101,0.453-2.316,0.521-3.114-0.364c-0.807-0.893-0.359-2.01,0.17-2.931
			c0.609-1.06,0.784-2.288,1.574-3.274c0.214-0.268,0.397-0.729-0.037-0.967c-0.393-0.214-0.73,0.09-1.017,0.356
			c-0.338,0.312-0.803,0.556-1.008,0.93C39.764,34.405,39.088,34.277,38.217,33.55z"/>
		<path fill="#52CDD9" d="M188.262,50.392c0-0.592-0.022-1.186,0.007-1.777c0.015-0.341-0.157-0.795,0.305-0.972
			c0.483-0.187,0.93-0.069,1.325,0.31c0.808,0.778,1.662,1.512,2.485,2.275c0.282,0.263,0.578,0.592,0.98,0.451
			c0.382-0.134,0.205-0.556,0.224-0.854c0.029-0.5,0.019-1.001,0.014-1.505c-0.007-0.485,0.169-0.752,0.765-0.761
			c0.689-0.008,0.812,0.339,0.809,0.863c-0.01,1.323,0.008,2.644-0.009,3.969c-0.004,0.336,0.134,0.791-0.408,0.904
			c-0.438,0.088-0.85,0.036-1.209-0.307c-0.849-0.811-1.735-1.577-2.609-2.361c-0.233-0.209-0.377-0.632-0.787-0.491
			c-0.481,0.164-0.285,0.621-0.308,0.958c-0.035,0.5-0.023,1.003-0.016,1.507c0.009,0.507-0.22,0.734-0.792,0.734
			c-0.583-0.002-0.778-0.259-0.771-0.756c0.011-0.729,0.003-1.46,0.003-2.188C188.264,50.392,188.263,50.392,188.262,50.392z"/>
		<path fill="#50CCD9" d="M137.406,50.35c0.195-0.014,0.392-0.037,0.588-0.039c1.92-0.034,2.617,0.889,2.019,2.596
			c-0.152,0.433-0.561,0.539-0.772,0.39c-0.851-0.617-1.631-0.081-2.446,0c-1.734,0.173-3.055-0.511-3.962-1.854
			c-0.638-0.941,0.129-2.702,1.403-3.35c1.747-0.885,3.806-0.646,5.291,0.611c-0.883,0.573-0.892,0.59-1.699,0.226
			c-0.899-0.41-1.824-0.493-2.657,0.016c-0.812,0.495-1.413,1.203-0.9,2.185c0.486,0.933,2.094,1.431,3.224,1.015
			c0.385-0.143,0.83-0.28,1.06-0.695c-0.249-0.514-0.783-0.205-1.147-0.354C137.15,50.846,137.151,50.597,137.406,50.35z"/>
		<path fill="#50CCD9" d="M124.959,53.322c-2.09,0.009-3.958-1.346-3.958-2.874c-0.002-1.512,1.88-2.875,3.962-2.874
			c2.185,0.004,3.871,1.301,3.827,2.95C128.752,52.113,127.105,53.316,124.959,53.322z"/>
		<path fill="#50CCD9" d="M103.921,47.58c2.176,0.064,3.782,1.389,3.703,3.054c-0.078,1.562-1.888,2.757-4.078,2.687
			c-2.092-0.066-3.709-1.384-3.648-2.973C99.956,48.766,101.778,47.514,103.921,47.58z"/>
		<path fill="#50CCD9" d="M147.707,53.322c-2.148,0.007-3.79-1.203-3.824-2.816c-0.032-1.661,1.65-2.938,3.856-2.93
			c2.026,0.01,3.843,1.332,3.877,2.825C151.654,51.961,149.838,53.318,147.707,53.322z"/>
		<path fill="#50CCD9" d="M220.272,53.322c-2.069-0.021-3.743-1.33-3.714-2.91c0.024-1.574,1.726-2.845,3.8-2.836
			c2.103,0.01,3.986,1.35,4.015,2.851C224.4,51.965,222.448,53.341,220.272,53.322z"/>
		<path fill="#50CCD9" d="M75.724,53.347c-0.448-0.085-1.192-0.153-1.875-0.383c-0.351-0.115-1.173,0.03-0.906-0.754
			c0.221-0.643,0.714-0.428,1.202-0.272c0.794,0.251,1.611,0.451,2.456,0.276c0.307-0.062,0.747-0.082,0.763-0.502
			c0.013-0.343-0.382-0.406-0.625-0.481c-0.743-0.234-1.524-0.361-2.26-0.611c-0.667-0.224-1.454-0.404-1.473-1.29
			c-0.018-0.909,0.723-1.245,1.449-1.507c1.092-0.393,2.216-0.344,3.318,0.025c0.35,0.115,0.632,0.323,0.519,0.705
			c-0.117,0.402-0.43,0.383-0.82,0.298c-0.568-0.12-1.157-0.191-1.74-0.218c-0.395-0.021-0.829,0.066-0.852,0.556
			c-0.019,0.395,0.333,0.534,0.671,0.616c0.475,0.114,0.972,0.155,1.438,0.296c0.912,0.272,2.089,0.438,1.982,1.628
			c-0.102,1.14-1.164,1.434-2.223,1.572C76.504,53.333,76.255,53.324,75.724,53.347z"/>
		<path fill="#50CCD9" d="M63.32,50.408c-0.004-2.981-0.004-2.981,3.22-2.837c1.6,0.072,2.545,0.761,2.578,1.889
			c0.034,1.192-0.917,1.938-2.635,1.936c-1.013-0.002-1.901-0.038-1.688,1.297c0.071,0.455-0.22,0.63-0.708,0.641
			c-0.584,0.015-0.781-0.24-0.769-0.743C63.331,51.861,63.32,51.133,63.32,50.408z"/>
		<path fill="#51CCD9" d="M212.639,48.75c-0.62,0.568-1.151,0.396-1.792,0.153c-1.127-0.428-2.327-0.619-3.148,0.521
			c-0.546,0.758-0.457,1.612,0.202,2.276c0.757,0.76,1.756,0.677,2.731,0.394c0.68-0.199,1.57-0.967,1.921,0.021
			c0.159,0.447-1.007,0.896-1.783,1.066c-1.306,0.286-2.533,0.203-3.624-0.587c-2.026-1.467-2.281-2.983,0.203-4.439
			C209.168,47.09,210.859,47.367,212.639,48.75z"/>
		<path fill="#51CCD9" d="M89.235,49.753c1.004-2.152,4.402-2.946,6.337-1.479c0.197,0.149,0.43,0.339,0.333,0.547
			c-0.079,0.164-0.368,0.262-0.586,0.348c-0.446,0.183-0.706-0.209-1.057-0.322c-1.119-0.361-2.283-0.451-3.136,0.447
			c-0.646,0.677-0.65,1.609,0,2.274c0.896,0.917,2.087,0.9,3.246,0.41c0.344-0.143,0.586-0.475,1.049-0.309
			c0.235,0.086,0.484,0.135,0.554,0.388c0.072,0.265-0.147,0.418-0.333,0.56c-2.077,1.563-5.531,0.627-6.427-1.741
			C88.953,50.497,88.951,50.124,89.235,49.753z"/>
		<path fill="#51CCD9" d="M165.023,47.583c0.719-0.094,1.369,0.151,2.004,0.386c0.395,0.145,0.9,0.411,0.652,0.896
			c-0.257,0.505-0.738,0.485-1.234,0.157c-0.89-0.587-1.864-0.552-2.782-0.112c-0.932,0.449-1.348,1.182-0.941,2.163
			c0.385,0.911,2.006,1.456,3.169,1.109c0.604-0.181,1.434-1.196,1.779-0.145c0.331,1.002-1.037,1.011-1.759,1.189
			c-1.7,0.422-3.54-0.296-4.511-1.615c-0.868-1.18-0.073-3.037,1.614-3.682C163.647,47.69,164.319,47.507,165.023,47.583z"/>
		<path fill="#5ACFDB" d="M117.287,53.316c-1.475,0.009-2.947-0.02-4.42,0.036c-0.856,0.031-1.118-0.294-1.094-1.044
			c0.04-1.277,0.025-2.557,0.005-3.834c-0.007-0.597,0.154-0.96,0.907-0.922c0.647,0.033,1.009,0.234,0.993,0.896
			c-0.025,0.913,0.037,1.828-0.013,2.738c-0.045,0.834,0.309,1.157,1.202,1.104c0.781-0.049,1.571-0.017,2.357-0.017
			C117.681,52.602,117.617,52.954,117.287,53.316z"/>
		<path fill="#52CCD9" d="M172.465,50.39c0-0.682,0.008-1.364-0.002-2.046c-0.006-0.471,0.128-0.777,0.736-0.777
			c0.589,0,0.766,0.266,0.76,0.758c-0.01,0.952,0.043,1.91-0.011,2.864c-0.045,0.811,0.239,1.182,1.159,1.117
			c0.684-0.049,1.37-0.011,2.054,0.003c0.361,0.008,0.692,0.08,0.715,0.513c0.021,0.455-0.324,0.503-0.684,0.505
			c-1.322,0.006-2.642-0.009-3.965,0.008c-0.578,0.005-0.773-0.264-0.766-0.756C172.476,51.846,172.465,51.119,172.465,50.39z"/>
		<path fill="#3D3D3D" d="M44.971,23.957c0.73-1.269,1.876-1.234,3.14-0.881c0.947,0.264,1.098,0.911,1.035,1.699
			c-0.072,0.9-0.812,1.248-1.552,1.389c-0.983,0.188-2.083,0.36-2.64-0.808C44.628,24.887,44.617,24.419,44.971,23.957z"/>
		<path fill="#5DD0DB" d="M84.741,50.531c0,0.686-0.006,1.369,0,2.051c0.005,0.495-0.19,0.76-0.775,0.76
			c-0.552-0.004-0.82-0.193-0.817-0.716c0.006-1.463,0.006-2.923,0.001-4.384c-0.001-0.543,0.315-0.684,0.846-0.688
			c0.61-0.002,0.748,0.315,0.746,0.785C84.739,49.072,84.741,49.802,84.741,50.531z"/>
		<path fill="#4ECBD8" d="M199.98,50.381c0-0.73,0.009-1.46-0.004-2.19c-0.007-0.478,0.266-0.622,0.737-0.622
			s0.739,0.139,0.739,0.62c-0.01,1.505-0.01,3.011,0,4.516c0.003,0.479-0.266,0.624-0.737,0.624c-0.469,0-0.742-0.141-0.736-0.62
			C199.989,51.932,199.98,51.157,199.98,50.381z"/>
		<path fill="#4ECBD8" d="M183.443,50.54c0,0.684-0.016,1.368,0.005,2.054c0.014,0.505-0.181,0.743-0.766,0.739
			c-0.618-0.004-0.725-0.315-0.722-0.783c0.011-1.416,0.015-2.83,0-4.246c-0.004-0.506,0.185-0.74,0.77-0.738
			c0.621,0.002,0.725,0.315,0.718,0.785C183.436,49.079,183.445,49.809,183.443,50.54z"/>
		<path fill="#6ED4DF" d="M182.9,46.975c-0.413-0.047-0.729-0.149-0.599-0.494c0.192-0.503,0.649-0.741,1.22-0.741
			c0.237,0.002,0.587,0.117,0.438,0.358C183.714,46.5,183.367,46.887,182.9,46.975z"/>
		<path fill="#9B9B9B" d="M116.373,26.943c-0.051,0.933,0.28,1.896-0.266,2.787C115.747,28.763,115.369,27.795,116.373,26.943z"/>
		<path fill="#71D5E0" d="M105.051,46.001c-0.168,0.507-0.604,0.745-1.011,0.939c-0.291,0.145-0.591-0.058-0.524-0.404
			c0.081-0.415,0.297-0.765,0.832-0.805C104.64,45.714,104.922,45.704,105.051,46.001z"/>
		<path fill="#5D5D5D" d="M230.149,17.735c-0.946-0.64-2.074-0.093-3.075-0.392c0.993-0.308,2.018-0.09,3.025-0.141
			c0.228-0.012,0.525-0.026,0.501,0.308C230.578,17.759,230.325,17.702,230.149,17.735z"/>
		<path fill="#A0A0A0" d="M244.591,32.77c-0.002-0.655-0.003-1.311-0.003-1.965C245.515,31.459,245.477,32.115,244.591,32.77z"/>
		<path fill="#989898" d="M82.224,43.208c-0.004-0.475-0.011-0.95-0.015-1.427C83.135,42.249,83.103,42.725,82.224,43.208z"/>
		<path fill="#757575" d="M212.659,37.419c-0.879-0.447-0.865-0.913-0.033-1.397C212.637,36.487,212.65,36.953,212.659,37.419z"/>
		<path fill="#ADADAD" d="M44.971,23.957c-0.007,0.466-0.013,0.932-0.019,1.399C44.017,24.879,44.12,24.414,44.971,23.957z"/>
		<path fill="#CFCFCF" d="M86.563,34.928c0,0.468,0.002,0.935,0.002,1.4C85.782,35.863,85.772,35.396,86.563,34.928z"/>
		<path fill="#D5D5D5" d="M168.658,33.559c-0.103,0.179-0.206,0.357-0.308,0.536c-0.386,0.237-0.611,0.184-0.602-0.289
			c0.028-0.388,0.095-0.752,0.611-0.831C168.459,33.168,168.559,33.365,168.658,33.559z"/>
		<path fill="#B3B3B3" d="M59.783,37.988c0.084-0.269,0.297-0.575,0.55-0.484c0.512,0.188,0.267,0.657,0.261,1.027
			C60.324,38.349,60.053,38.17,59.783,37.988z"/>
		<path fill="#DFF6F8" d="M117.287,53.316c-0.022-0.345-0.041-0.692-0.064-1.041c0.3,0.025,0.568,0.104,0.617,0.424
			C117.898,53.08,117.663,53.258,117.287,53.316z"/>
		<path fill="#E4E4E4" d="M69.742,34.112c-0.003,0.372-0.006,0.742-0.009,1.112C68.952,34.85,68.995,34.478,69.742,34.112z"/>
		<path fill="#D5F2F5" d="M89.235,49.753c-0.007,0.373-0.015,0.75-0.023,1.122C88.44,50.488,88.487,50.114,89.235,49.753z"/>
		<path fill="#C8C8C8" d="M63.929,36.608c-0.11-0.492-0.094-0.935,0.515-1.149C64.528,35.94,64.557,36.399,63.929,36.608z"/>
		<path fill="#E7E7E7" d="M229.458,37.405c0.003,0.37,0.006,0.742,0.01,1.111C228.711,38.153,228.68,37.783,229.458,37.405z"/>
		<path fill="#979797" d="M233.336,37.694c-0.209-0.065-0.477-0.065-0.518-0.337c-0.056-0.347,0.258-0.401,0.493-0.513
			C233.32,37.125,233.327,37.409,233.336,37.694z"/>
		<path fill="#6A6A6A" d="M271.753,36.855c0.213,0.063,0.451,0.106,0.489,0.36c0.05,0.333-0.226,0.407-0.485,0.484
			C271.755,37.417,271.753,37.134,271.753,36.855z"/>
		<path fill="#7CD8E2" d="M137.406,50.35c0,0.247,0,0.495,0,0.743c-0.25,0.002-0.512,0.012-0.551-0.305
			C136.809,50.405,137.069,50.333,137.406,50.35z"/>
		<path fill="#E3E3E3" d="M239.802,30.545c0.004,0.28,0.004,0.558,0.005,0.836C239.114,31.106,239.086,30.828,239.802,30.545z"/>
		<path fill="#DBDBDB" d="M136.508,33.023c0.151-0.256,0.266-0.566,0.667-0.528c0.07,0.006,0.179,0.179,0.174,0.27
			c-0.011,0.304-0.261,0.288-0.498,0.271C136.737,33.031,136.623,33.025,136.508,33.023z"/>
		<path fill="#9D9D9D" d="M184.361,45.058c-0.097,0.092-0.191,0.188-0.292,0.281c-0.191-0.029-0.581,0.079-0.485-0.219
			C183.717,44.72,184.078,44.914,184.361,45.058z"/>
		<path fill="#FEFEFE" d="M8.622,34.929c0.458-1.822,2.058-2.432,3.708-2.887c2.838-0.781,5.638-0.366,8.396,0.447
			c0.464,0.135,0.919,0.301,1.376,0.459c0.423,0.148,0.79,0.136,0.935-0.337c0.139-0.46-0.274-0.494-0.588-0.605
			c-1.645-0.585-3.106-1.435-4.455-2.499c-1.193-0.941-1.529-2.155-1.624-3.491c-0.253-3.563,2.312-6.311,6.239-7.753
			c3.192-1.174,6.483-0.708,9.75-0.511c1.266,0.077,2.518,0.325,3.939,0.517c-0.797,1.092-1.932,1.76-2.751,2.705
			c-1.029,1.187-1.51,2.596-2.091,3.915c-0.725,1.648-1.329,3.373-1.946,5.074c-1.125,3.108-2.706,6.084-6.072,7.655
			c-3.979,1.861-8.173,2.102-12.391,0.769c-1.123-0.354-2.166-1.063-2.418-2.335C8.354,35.679,8.354,35.304,8.622,34.929z"/>
		<path fill="#686868" d="M8.622,34.929c0.001,0.375,0.004,0.75,0.006,1.124C7.857,35.681,7.813,35.307,8.622,34.929z"/>
		<path fill="#FEFEFE" d="M73.802,34.881c-0.188-1.938,1.399-3.682,3.038-4.158c1.703-0.495,3.267,0.369,3.618,2.005
			c0.442,2.051-0.342,3.897-2.033,4.786C75.851,38.87,73.824,37.716,73.802,34.881z"/>
		<path fill="#FCFCFC" d="M74.224,44.978c-0.969-0.074-2.05-0.117-3.118-0.252c-0.562-0.074-1.253-0.202-1.211-0.94
			c0.037-0.692,0.415-1.259,1.241-1.29c2.505-0.084,5.006-0.071,7.457,0.532c0.357,0.089,0.663,0.223,0.653,0.623
			c-0.011,0.422-0.312,0.579-0.707,0.754C77.187,44.999,75.738,44.787,74.224,44.978z"/>
		<path fill="#9B9B9B" d="M167.749,33.806c0.128,0.229,0.348,0.289,0.602,0.289c-0.207,0.207-0.497,0.503-0.744,0.366
			C167.34,34.312,167.578,34.012,167.749,33.806z"/>
		<path fill="#FEFEFE" d="M54.109,34.636c0.455-2.099,1.937-3.252,4.094-3.674c1.642-0.32,2.676,0.514,2.872,2.032
			c0.353,2.727-2.397,5.376-4.376,5.334c-1.133-0.022-2.315-0.016-2.618-1.401C53.741,36.161,53.703,35.396,54.109,34.636z"/>
		<path fill="#C1C1C1" d="M54.109,34.636c-0.009,0.765-0.019,1.528-0.028,2.291C53.152,36.153,53.264,35.392,54.109,34.636z"/>
		<path fill="#FEFEFE" d="M202.293,35.202c0.521-2.271,2.125-3.879,4.236-4.243c1.819-0.313,2.76,0.434,2.915,2.135
			c0.249,2.731-2.281,5.369-4.606,5.246c-1.262-0.064-2.323-0.358-2.539-1.733C201.984,36.139,201.987,35.669,202.293,35.202z"/>
		<path fill="#707070" d="M202.293,35.202c0.002,0.468,0.002,0.938,0.006,1.404C201.502,36.139,201.504,35.669,202.293,35.202z"/>
		<path fill="#FDFDFD" d="M251.933,35.267c-1.295,0.289-1.435-0.378-1.038-1.276c0.729-1.653,2.699-3.378,5.179-3.31
			c0.717,0.019,1.289,0.287,1.43,0.954c0.212,1.013-0.054,1.944-1.062,2.494C255.074,34.876,253.568,35.255,251.933,35.267z"/>
		<path fill="#FEFEFE" d="M154.85,34.676c-0.291,1.783-1.006,3.324-3.008,3.938c-2.384,0.736-4.916-0.345-4.771-3.186
			c0.1-1.972,1.156-3.47,2.809-4.444c1.876-1.108,4.819-0.476,4.973,2.03C155.191,33.568,155.193,34.121,154.85,34.676z"/>
		<path fill="#565656" d="M154.85,34.676c0-0.556,0.003-1.108,0.003-1.662C155.688,33.57,155.673,34.124,154.85,34.676z"/>
		<path fill="#FEFEFE" d="M90.746,35.416c-0.1-2.252,1.444-3.948,3.408-4.676c2.25-0.835,4.298,0.618,4.37,2.702
			c0.07,2.076-0.611,3.871-2.556,4.938C93.287,39.853,90.687,38.314,90.746,35.416z"/>
		<path fill="#FCFEFE" d="M122.862,50.007c0.264-1.091,1.079-1.438,2.178-1.374c0.848,0.047,1.654,0.184,2.045,1.028
			c0.455,0.976,0.077,1.955-0.924,2.374c-1.479,0.622-2.636,0.222-3.299-1.144C122.666,50.596,122.666,50.301,122.862,50.007z"/>
		<path fill="#93DFE7" d="M122.862,50.007c0,0.294,0,0.589,0,0.885C122.177,50.596,122.177,50.301,122.862,50.007z"/>
		<path fill="#FDFEFE" d="M103.714,52.268c-1.38-0.006-2.299-0.713-2.321-1.78c-0.024-1.126,0.941-1.873,2.391-1.854
			c1.287,0.013,2.317,0.799,2.34,1.784C106.147,51.463,105.093,52.275,103.714,52.268z"/>
		<path fill="#FDFEFE" d="M149.833,50.87c-0.22,0.626-0.552,1.149-1.31,1.334c-1.283,0.312-2.75-0.251-3.059-1.218
			c-0.359-1.145,0.3-1.824,1.326-2.235c1.229-0.496,2.377,0.016,3.042,1.279C150.041,50.309,150.041,50.588,149.833,50.87z"/>
		<path fill="#6ED4DF" d="M149.833,50.87c0-0.281,0-0.561,0-0.84C150.513,50.309,150.513,50.588,149.833,50.87z"/>
		<path fill="#FCFEFE" d="M222.438,51.146c-0.832,1.122-1.943,1.393-3.255,0.9c-0.82-0.309-1.089-0.898-1.089-1.599
			c0-0.694,0.269-1.286,1.089-1.597c1.311-0.492,2.425-0.222,3.255,0.9C222.78,50.217,222.78,50.682,222.438,51.146z"/>
		<path fill="#91DFE7" d="M222.438,51.146c0-0.464,0-0.929,0-1.393C223.252,50.217,223.254,50.682,222.438,51.146z"/>
		<path fill="#FAFDFD" d="M65.675,48.584c1.048,0.036,1.841-0.04,1.863,0.877c0.027,1.035-0.849,0.878-1.559,0.92
			c-0.711,0.038-1.201-0.068-1.188-0.924C64.806,48.559,65.379,48.563,65.675,48.584z"/>
	</g>
</g>
<rect id="_x3C_Slice_x3E__2_" x="-0.062" y="-0.719" fill="none" width="212" height="30"/>
<rect id="_x3C_Slice_x3E_" x="-0.062" y="-0.719" fill="none" width="221" height="30"/>
<rect id="_x3C_Slice_x3E__1_" x="-5.062" y="53.281" fill="none" width="1" height="1"/>
</svg>
