<?xml version="1.0" encoding="utf-8"?>
<!-- Generator: Adobe Illustrator 16.0.0, SVG Export Plug-In . SVG Version: 6.00 Build 0)  -->
<!DOCTYPE svg PUBLIC "-//W3C//DTD SVG 1.1//EN" "http://www.w3.org/Graphics/SVG/1.1/DTD/svg11.dtd">
<svg version="1.1" id="Layer_1" xmlns="http://www.w3.org/2000/svg" xmlns:xlink="http://www.w3.org/1999/xlink" x="0px" y="0px"
	 width="293.334px" height="56.667px" viewBox="-35.062 -13.552 293.334 56.667"
	 enable-background="new -35.062 -13.552 293.334 56.667" xml:space="preserve">
<g>
	<g>
		<path fill="#4ECBD8" d="M112.195,40.688c-48.608,0-97.216-0.001-145.823,0.019c-0.708,0-0.869-0.16-0.868-0.868
			c0.022-18.354,0.022-36.708,0-55.062c-0.001-0.646,0.127-0.773,0.773-0.773c97.278,0.019,194.557,0.019,291.835,0
			c0.646,0,0.774,0.126,0.773,0.773c-0.022,18.354-0.022,36.708,0,55.062c0.001,0.708-0.159,0.868-0.868,0.868
			C209.41,40.687,160.803,40.688,112.195,40.688z"/>
		<path fill-rule="evenodd" clip-rule="evenodd" fill="#FEFEFE" d="M112.105,35.589c-46.211,0-92.423,0.001-138.634-0.003
			c-1.542,0-1.334,0.201-1.335-1.363c-0.006-14.638,0.004-29.275-0.022-43.913c-0.002-0.903,0.152-1.214,1.158-1.213
			c92.548,0.027,185.097,0.027,277.646,0.001c0.982,0,1.172,0.277,1.17,1.202c-0.029,14.701-0.019,29.402-0.022,44.102
			c-0.001,1.335,0.15,1.186-1.232,1.186C204.591,35.59,158.348,35.589,112.105,35.589z"/>
		<path fill-rule="evenodd" clip-rule="evenodd" fill="#3C3C3C" d="M94.875,8.36c0.218-2.573,1.886-4.246,3.831-5.521
			c3.631-2.381,7.633-3.043,11.856-1.776c0.925,0.278,1.715,0.766,2.305,1.621c1.076,1.562-0.069,2.827-1.533,3.047
			c-0.154,0.023-0.314,0.012-0.472,0.006c-1.069-0.04-1.735-0.549-1.731-1.32c0.004-0.814,0.57-1.253,1.706-1.325
			c0.092-0.006,0.183-0.03,0.355-0.06c-0.312-0.706-0.981-0.872-1.553-1.067c-3.15-1.073-6.066-0.483-8.685,1.477
			c-1.739,1.301-3.043,2.929-3.307,5.22c-0.285,2.465,1.17,4.346,3.489,4.683c2.968,0.43,5.619-0.239,7.553-2.661
			c0.833-1.042,1.795-0.758,2.821-0.742c-0.624,1.657-1.161,3.273-2.126,4.715c-2.433,3.635-5.769,5.817-10.115,6.393
			c-2.1,0.278-4.189,0.343-6.194-0.568c-0.703-0.319-1.238-0.826-1.675-1.409c-0.498-0.665-0.058-1.999,0.835-2.594
			c2.535-1.688,5.247-1.591,8.005-0.687c0.195,0.063,0.782,0.013,0.56,0.523c-0.174,0.399-0.432,0.858-1.017,0.684
			c-1.261-0.379-2.552-0.372-3.838-0.278c-0.996,0.072-1.987,0.224-2.82,0.887c-0.648,0.516-0.663,1.038,0.031,1.535
			c1.608,1.15,3.464,1.064,5.267,0.88c3.229-0.331,5.749-1.979,7.736-4.511c0.722-0.92,1.522-1.781,1.819-2.958
			c-0.068-0.14-0.144-0.073-0.219-0.007c-3.165,2.539-7.936,2.708-11.289,0.464c-1.015-0.679-1.348-1.711-1.764-2.731
			C94.801,9.642,94.573,8.977,94.875,8.36z"/>
		<path fill-rule="evenodd" clip-rule="evenodd" fill="#3C3C3C" d="M31.32,11c-0.272-0.895-0.975-1.376-1.342-2.095
			c-0.595-1.166-0.61-2.281,0.004-3.348c2.495-4.341,6.574-5.282,11.139-4.984c1.655,0.108,3.294,0.467,4.938,0.729
			c1.179,0.188,2.31,0.195,3.269-0.668c0.354-0.319,0.755-0.162,1.182-0.126c-0.184,0.87-0.856,1.207-1.533,1.506
			c-0.872,0.386-1.806,0.575-2.754,0.549c-1.453-0.04-2.386,0.843-2.734,2.281c-0.353,1.459-0.55,2.928-0.745,4.412
			c-0.41,3.124-2.197,5.36-5.007,6.642c-3.84,1.751-7.848,2.14-11.914,0.792c-1.994-0.66-2.623-1.901-2.126-3.324
			c0.329-0.941,1.104-1.466,1.984-1.828C27.37,10.844,29.445,10.644,31.32,11z"/>
		<path fill-rule="evenodd" clip-rule="evenodd" fill="#3C3C3C" d="M65.041,13.295c0.198-1.795,2.97-3.16,4.894-3.188
			c0.64-0.009,1.006-0.118,1.422-0.778C72.145,8.078,73.49,7.566,75,7.722c0.485,0.05,1.031,0.116,1.129,0.781
			c0.059,0.4,0.015,0.799-0.359,0.992c-0.481,0.248-1.088,0.438-1.49-0.026c-0.777-0.896-1.45-0.366-2.112,0.067
			c-0.363,0.237-0.625,0.526,0.079,0.835c1.912,0.839,2.66,2.173,2.022,3.708c-0.486,1.17-1.563,1.804-2.713,2.234
			c-1.169,0.437-2.39,0.479-3.62,0.299c-0.186-0.027-0.371-0.11-0.554-0.103c-0.503,0.021-1.021,0.334-1.051,0.731
			c-0.045,0.606,0.594,0.374,0.946,0.392c1.442,0.075,2.896-0.121,4.329,0.157c0.543,0.105,1.137,0.173,1.412,0.784
			c0.217,0.325,0.21,0.652,0.01,0.981c-0.165,0.791-0.792,1.106-1.454,1.303c-2.166,0.644-4.36,0.79-6.579,0.253
			c-0.311-0.075-0.59-0.182-0.865-0.337c-0.807-0.452-0.833-1.015-0.058-1.494c0.388-0.24,0.855-0.419,0.394-1.024
			C64.27,18,64.473,17.715,64.71,17.529c0.119-0.093,0.283-0.129,0.399-0.224c0.408-0.33,0.998-0.604,1.153-1.031
			c0.173-0.476-0.572-0.686-0.814-1.077c-0.208-0.335-0.281-0.754-0.414-1.137C64.864,13.804,64.864,13.549,65.041,13.295z"/>
		<path fill-rule="evenodd" clip-rule="evenodd" fill="#3C3C3C" d="M128.327,12.913c1.179-1.205,2.409-2.324,4.118-2.738
			c0.854-0.207,1.707-0.142,2.231,0.551c0.488,0.644,0.173,1.36-0.202,2.079c-0.349,0.67-0.599,1.41-0.922,2.108
			c-0.114,0.247-0.239,0.575,0.048,0.771c0.241,0.165,0.464-0.053,0.673-0.199c0.331-0.233,0.678-0.44,0.901-0.798
			c0.159-0.254,0.36-0.459,0.688-0.232c0.397,0.275,0.166,0.578-0.029,0.798c-0.769,0.866-1.637,1.587-2.787,1.921
			c-0.716,0.207-1.375,0.076-1.793-0.463c-0.409-0.528-0.281-1.259,0.062-1.787c0.444-0.684,0.496-1.511,0.958-2.185
			c0.159-0.233,0.225-0.706-0.072-0.966c-0.317-0.277-0.731-0.188-1.068-0.001c-1.01,0.557-1.896,1.29-2.587,2.206
			c-0.685,0.908-1.449,1.748-2.083,2.704c-0.539,0.812-1.492,0.25-2.346,0.423c0.297-1.36,0.991-2.44,1.395-3.628
			c0.008-0.024,0.063-0.035,0.068-0.058c0.113-0.496,0.569-1.128,0.027-1.452c-0.445-0.267-0.851,0.347-1.139,0.709
			c-0.602,0.752-0.576,0.773-1.458,0.229c0.819-0.997,1.601-2.027,2.85-2.529c0.315-0.127,0.654-0.228,0.991-0.266
			c0.954-0.11,1.496,0.43,1.412,1.373c-0.031,0.344-0.084,0.687-0.127,1.029c-0.072,0.11-0.157,0.215-0.139,0.358
			c0.022,0.064,0.067,0.103,0.139,0.114C128.207,12.972,128.27,12.949,128.327,12.913z"/>
		<path fill-rule="evenodd" clip-rule="evenodd" fill="#3C3C3C" d="M61.322,15.012c0.06,0.618,0.242,0.831,0.893,0.457
			c0.42-0.242,0.676-0.625,1.052-0.896c0.359-0.259,0.618-0.157,0.807,0.054c0.249,0.279-0.125,0.374-0.267,0.552
			c-0.76,0.952-1.718,1.625-2.863,2.001c-0.868,0.286-1.432-0.021-1.756-0.844c-0.165-0.136-0.16-0.508-0.519-0.373
			c-1.605,1.427-3.741,1.709-5.228,0.753c-1.373-0.883-1.616-2.508-0.896-3.849c0.884-1.647,2.265-2.418,3.977-2.717
			c1.391-0.243,2.668,0.027,3.546,1.305c0.453-1.06,1.214-1.436,2.397-1.108c0.689,0.191,0.185,0.764,0.077,0.954
			c-0.521,0.918-0.631,1.938-0.892,2.92C61.424,14.436,61.532,14.79,61.322,15.012z"/>
		<path fill-rule="evenodd" clip-rule="evenodd" fill="#3C3C3C" d="M156.479,15.571c0.46,0.251,0.737-0.048,1.027-0.333
			c0.262-0.258,0.542-0.498,0.806-0.754c0.247-0.241,0.455-0.061,0.645,0.066c0.275,0.184,0.109,0.426-0.034,0.557
			c-0.77,0.706-1.5,1.475-2.477,1.905c-1.392,0.611-2.135,0.222-2.517-1.383c-0.858,1.051-1.941,1.57-3.228,1.631
			c-1.608,0.075-2.88-0.576-3.281-1.65c-0.535-1.433-0.017-3.292,1.204-4.221c1.097-0.835,2.329-1.286,3.726-1.304
			c1.108-0.014,1.952,0.482,2.67,1.285c0.398-0.912,1.584-1.392,2.422-1.029c0.36,0.156,0.201,0.431,0.138,0.637
			c-0.311,1.001-0.654,1.993-0.977,2.991c-0.067,0.208-0.099,0.427-0.146,0.641C156.248,14.934,156.229,15.256,156.479,15.571z"/>
		<path fill-rule="evenodd" clip-rule="evenodd" fill="#3C3C3C" d="M167.67,2.023c-0.81,1.714-1.645,3.417-2.416,5.149
			c-0.312,0.7-0.6,1.419-0.863,2.136c-0.529,1.442-1.077,2.877-1.621,4.313c-0.242,0.638-0.646,1.592-0.067,2.005
			c0.447,0.319,1.131-0.404,1.534-0.931c0.216-0.281,0.422-0.468,0.761-0.164c0.335,0.3,0.057,0.541-0.108,0.714
			c-0.746,0.787-1.548,1.521-2.593,1.895c-1.005,0.358-2.369-0.018-2.212-1.601c0.158-1.586,0.66-3.054,1.247-4.518
			c0.365-0.913,0.602-1.867,0.999-2.783c0.855-1.974,1.797-3.9,2.769-5.816c0.148-0.293,0.41-0.442,0.604-0.671
			c0.546-0.148,1.103-0.044,1.654-0.063C167.562,1.684,167.719,1.769,167.67,2.023z"/>
		<path fill-rule="evenodd" clip-rule="evenodd" fill="#3C3C3C" d="M138.374,20.827c0.754,0.015,1.508,0.03,2.262,0.044
			c0.364,0.007,0.673-0.248,0.699-0.508c0.032-0.315-0.324-0.527-0.646-0.572c-0.496-0.07-0.999-0.082-1.545-0.121
			c0.17-0.52,0.211-1.044,0.554-1.482c0.42-0.538,0.483-0.886-0.384-1.105c-2.128-0.539-2.654-1.909-2.249-3.31
			c0.325-1.124,1.206-1.914,2.205-2.5c1.704-0.998,3.555-1.356,5.516-1.105c0.214,0.027,0.422,0.123,0.628,0.198
			c0.771,0.277,1.254,0.948,1.025,1.412c-0.286,0.581-1.362,0.897-1.991,0.562c-0.467-0.248-0.611-0.688-0.349-1.114
			c0.301-0.49,0.05-0.499-0.319-0.541c-2.127-0.244-4.252,1.998-3.892,4.107c0.152,0.891,0.769,1.257,1.574,1.325
			c1.1,0.092,2.083-0.221,2.952-0.942c0.182-0.15,0.435-0.612,0.765-0.279c0.361,0.364-0.072,0.654-0.282,0.837
			c-0.884,0.771-1.928,1.22-3.09,1.429c-0.288,0.051-0.713-0.083-0.858,0.401c-0.138,0.46-0.417,0.9,0.427,0.907
			c0.302,0.003,0.639,0.105,0.895,0.266c0.493,0.311,1.021,0.643,0.934,1.365c-0.08,0.673-0.608,0.92-1.14,1.076
			c-1.3,0.381-2.602,0.365-3.875-0.153C138.134,20.846,138.181,20.767,138.374,20.827z"/>
		<path fill-rule="evenodd" clip-rule="evenodd" fill="#3C3C3C" d="M180.882,14.836c0.083,0.75,0.587,0.964,1.078,1.118
			c1.342,0.417,2.589,0.093,3.773-0.576c0.108-0.062,0.192-0.182,0.305-0.216c0.246-0.072,0.518-0.343,0.751-0.007
			c0.207,0.296-0.104,0.459-0.247,0.617c-0.427,0.468-1.001,0.728-1.581,0.939c-1.434,0.526-2.904,0.786-4.413,0.358
			c-1.045-0.297-2.029-0.763-2.297-1.93c-0.291-1.274,0.041-2.437,1.109-3.261c1.919-1.48,4.059-2.18,6.482-1.575
			c0.813,0.203,1.663,0.465,1.779,1.515c0.089,0.806-0.501,1.641-1.448,2.073c-0.828,0.378-1.706,0.579-2.601,0.738
			C182.704,14.784,181.827,14.802,180.882,14.836z"/>
		<path fill-rule="evenodd" clip-rule="evenodd" fill="#3C3C3C" d="M115.729,17.268c-1.015-0.033-2.273-0.264-3.249-1.313
			c-0.721-0.774-0.95-2.144-0.365-3.016c1.898-2.832,6.366-3.737,8.966-1.926c1.855,1.293,1.475,2.809,0.227,4.196
			C119.94,16.727,117.952,17.229,115.729,17.268z"/>
		<path fill-rule="evenodd" clip-rule="evenodd" fill="#3C3C3C" d="M75.803,13.856c0.321-1.789,1.689-2.607,3.157-3.233
			c1.569-0.668,3.213-0.746,4.862-0.182c0.998,0.341,1.896,0.814,2.208,1.898c0.382,1.327-0.173,2.513-1.15,3.239
			c-2.242,1.667-4.759,2.297-7.474,1.132c-0.826-0.354-1.463-0.926-1.602-1.891C75.606,14.499,75.606,14.178,75.803,13.856z"/>
		<path fill-rule="evenodd" clip-rule="evenodd" fill="#3C3C3C" d="M167.227,15.561c0.1-0.972,0.57-1.813,0.928-2.697
			c0.106-0.262,0.27-0.672-0.038-0.866c-0.313-0.197-0.566,0.1-0.773,0.353c-0.213,0.259-0.537,0.398-0.705,0.721
			c-0.202,0.388-0.487,0.235-0.794,0.079c-0.445-0.227-0.181-0.473-0.033-0.672c0.749-1.011,1.695-1.791,2.869-2.253
			c0.647-0.255,1.323-0.231,1.809,0.332c0.435,0.504,0.32,1.198,0.089,1.69c-0.443,0.944-0.591,1.952-0.884,2.927
			c-0.178,0.2-0.195,0.395,0.015,0.584c1.325,0.546,2.396-0.194,3.484-0.732c0.984-0.486,1.659-1.344,2.271-2.222
			c0.228-0.326,0.395-0.806-0.381-0.744c-0.525,0.042-0.999-0.097-1.235-0.646c-0.138-0.19-0.139-0.382-0.003-0.575
			c0.814-1.1,2.433-1.005,3.062,0.179c0.244,0.45,0.242,0.901,0.002,1.352c-0.938,2.735-3.168,3.887-5.715,4.62
			c-0.811,0.232-1.66,0.333-2.51,0.266c-0.638-0.05-1.251-0.179-1.451-0.931C167.054,16.073,167.054,15.818,167.227,15.561z"/>
		<path fill-rule="evenodd" clip-rule="evenodd" fill="#3C3C3C" d="M194.288,15.182c-0.349-0.623-1.016-0.675-1.592-0.875
			c-0.762-0.263-1.577-0.34-2.256-0.865c-0.732-0.565-0.868-1.55-0.211-2.157c1.399-1.294,5.189-1.631,6.771-0.602
			c0.322,0.209,0.467,0.52,0.411,0.886c-0.052,0.339-0.153,0.641-0.566,0.779c-0.508,0.17-1,0.184-1.466-0.023
			c-0.591-0.262-0.443-0.695-0.233-1.18c0.149-0.347-0.227-0.285-0.406-0.297c-0.691-0.048-1.375-0.001-2.054,0.17
			c-0.333,0.084-0.657,0.312-0.678,0.549c-0.022,0.255,0.289,0.527,0.601,0.632c0.916,0.308,1.842,0.587,2.75,0.917
			c0.371,0.135,0.761,0.31,1.049,0.569c0.964,0.868,0.872,1.89-0.249,2.58c-2.168,1.336-4.473,1.272-6.776,0.458
			c-0.601-0.213-1.348-0.691-0.953-1.538c0.315-0.678,1.011-0.746,1.705-0.505c0.784,0.271,0.851,0.673,0.24,1.503
			c1.205,0.667,3.175,0.456,3.915-0.42C194.457,15.568,194.456,15.375,194.288,15.182z"/>
		<path fill-rule="evenodd" clip-rule="evenodd" fill="#3D3D3D" d="M44.871,12.908c0.736-1.242,1.748-2.131,3.047-2.647
			c0.769-0.306,1.52-0.354,2.037,0.532c0.123,0.21,0.229,0.434,0.146,0.594c-0.456,0.876-0.558,1.888-1.088,2.734
			c-0.293,0.468-0.733,1.104-0.295,1.502c0.372,0.339,0.731-0.446,1.123-0.578c0.423-0.142,0.558-1.167,1.14-0.529
			c0.549,0.601-0.3,0.842-0.583,1.184c-0.52,0.627-1.227,1.037-1.966,1.364c-0.704,0.312-1.482,0.359-1.992-0.25
			c-0.516-0.615-0.23-1.383,0.109-2.018c0.39-0.729,0.502-1.574,1.007-2.253c0.137-0.184,0.254-0.502-0.024-0.666
			c-0.251-0.147-0.467,0.062-0.65,0.245c-0.216,0.215-0.514,0.384-0.645,0.64C45.861,13.496,45.428,13.408,44.871,12.908z"/>
		<path fill-rule="evenodd" clip-rule="evenodd" fill="#52CDD9" d="M140.869,24.5c0-0.408-0.013-0.816,0.005-1.224
			c0.01-0.235-0.101-0.547,0.195-0.669c0.31-0.128,0.595-0.047,0.848,0.214c0.517,0.535,1.063,1.04,1.59,1.565
			c0.181,0.181,0.37,0.406,0.628,0.311c0.244-0.092,0.131-0.383,0.142-0.587c0.019-0.345,0.012-0.69,0.009-1.036
			c-0.004-0.334,0.109-0.518,0.489-0.523c0.442-0.007,0.52,0.232,0.518,0.594c-0.007,0.91,0.005,1.82-0.006,2.731
			c-0.003,0.231,0.086,0.544-0.262,0.621c-0.28,0.062-0.542,0.026-0.772-0.211c-0.543-0.556-1.111-1.086-1.67-1.625
			c-0.149-0.144-0.241-0.434-0.504-0.337c-0.307,0.113-0.182,0.428-0.197,0.66c-0.022,0.344-0.015,0.69-0.01,1.036
			c0.006,0.349-0.139,0.506-0.506,0.505c-0.373-0.001-0.498-0.177-0.494-0.519c0.007-0.502,0.002-1.004,0.002-1.507
			C140.871,24.5,140.87,24.5,140.869,24.5z"/>
		<path fill-rule="evenodd" clip-rule="evenodd" fill="#50CCD9" d="M108.332,24.47c0.125-0.01,0.251-0.025,0.376-0.027
			c1.229-0.023,1.675,0.612,1.292,1.787c-0.097,0.298-0.359,0.371-0.493,0.268c-0.545-0.425-1.044-0.056-1.566,0
			c-1.109,0.119-1.954-0.352-2.535-1.276c-0.408-0.649,0.083-1.86,0.897-2.306c1.118-0.609,2.436-0.445,3.386,0.422
			c-0.565,0.394-0.571,0.405-1.087,0.153c-0.575-0.28-1.167-0.337-1.7,0.012c-0.519,0.341-0.904,0.828-0.576,1.505
			c0.311,0.641,1.34,0.983,2.063,0.697c0.246-0.098,0.53-0.193,0.678-0.479c-0.159-0.354-0.501-0.141-0.734-0.243
			C108.168,24.812,108.169,24.641,108.332,24.47z"/>
		<path fill-rule="evenodd" clip-rule="evenodd" fill="#50CCD9" d="M100.369,26.516c-1.338,0.006-2.532-0.926-2.532-1.978
			c-0.001-1.04,1.203-1.979,2.535-1.978c1.398,0.002,2.476,0.895,2.449,2.029C102.795,25.684,101.742,26.511,100.369,26.516z"/>
		<path fill-rule="evenodd" clip-rule="evenodd" fill="#50CCD9" d="M86.908,22.563c1.393,0.045,2.42,0.956,2.369,2.102
			c-0.049,1.077-1.207,1.897-2.609,1.849c-1.338-0.046-2.373-0.952-2.334-2.046C84.371,23.381,85.537,22.518,86.908,22.563z"/>
		<path fill-rule="evenodd" clip-rule="evenodd" fill="#50CCD9" d="M114.923,26.516c-1.374,0.004-2.425-0.829-2.446-1.938
			c-0.021-1.144,1.055-2.024,2.466-2.017c1.297,0.006,2.459,0.917,2.481,1.944C117.448,25.579,116.286,26.513,114.923,26.516z"/>
		<path fill-rule="evenodd" clip-rule="evenodd" fill="#50CCD9" d="M161.351,26.515c-1.324-0.014-2.395-0.914-2.378-2.002
			c0.017-1.084,1.105-1.958,2.433-1.952c1.344,0.006,2.55,0.928,2.567,1.962C163.991,25.581,162.742,26.53,161.351,26.515z"/>
		<path fill-rule="evenodd" clip-rule="evenodd" fill="#50CCD9" d="M68.868,26.533c-0.287-0.058-0.763-0.105-1.2-0.263
			c-0.224-0.08-0.751,0.02-0.58-0.518c0.141-0.443,0.457-0.296,0.769-0.189c0.508,0.173,1.031,0.312,1.571,0.191
			c0.196-0.044,0.478-0.057,0.488-0.346c0.009-0.237-0.244-0.279-0.4-0.332c-0.475-0.16-0.975-0.249-1.445-0.42
			c-0.427-0.155-0.931-0.28-0.943-0.889c-0.012-0.625,0.463-0.856,0.927-1.036c0.699-0.27,1.418-0.238,2.123,0.016
			c0.224,0.081,0.404,0.223,0.332,0.487c-0.075,0.277-0.275,0.263-0.524,0.205c-0.364-0.084-0.741-0.132-1.114-0.151
			c-0.253-0.013-0.53,0.047-0.545,0.383c-0.012,0.272,0.213,0.368,0.43,0.424c0.304,0.079,0.622,0.108,0.92,0.204
			c0.584,0.188,1.336,0.301,1.268,1.121c-0.065,0.785-0.745,0.986-1.422,1.081C69.367,26.523,69.208,26.517,68.868,26.533z"/>
		<path fill-rule="evenodd" clip-rule="evenodd" fill="#50CCD9" d="M60.932,24.509c-0.003-2.051-0.003-2.051,2.06-1.952
			c1.024,0.05,1.628,0.525,1.649,1.3c0.022,0.82-0.587,1.334-1.686,1.332c-0.648-0.001-1.216-0.025-1.08,0.893
			c0.046,0.313-0.141,0.434-0.453,0.441c-0.373,0.009-0.499-0.166-0.492-0.511C60.939,25.51,60.932,25.01,60.932,24.509z"/>
		<path fill-rule="evenodd" clip-rule="evenodd" fill="#51CCD9" d="M156.466,23.369c-0.396,0.392-0.737,0.273-1.146,0.106
			c-0.721-0.295-1.489-0.426-2.014,0.358c-0.35,0.522-0.294,1.11,0.129,1.568c0.484,0.523,1.123,0.466,1.747,0.27
			c0.435-0.137,1.004-0.666,1.229,0.015c0.101,0.307-0.645,0.617-1.141,0.733c-0.836,0.197-1.621,0.142-2.319-0.402
			c-1.296-1.01-1.459-2.054,0.131-3.057C154.245,22.227,155.328,22.417,156.466,23.369z"/>
		<path fill-rule="evenodd" clip-rule="evenodd" fill="#51CCD9" d="M77.512,24.06c0.643-1.482,2.817-2.027,4.055-1.02
			c0.126,0.104,0.275,0.235,0.213,0.377c-0.051,0.114-0.236,0.181-0.375,0.241c-0.286,0.124-0.452-0.145-0.677-0.223
			c-0.716-0.248-1.46-0.31-2.006,0.308c-0.413,0.466-0.416,1.107,0,1.566c0.573,0.63,1.335,0.62,2.077,0.283
			c0.22-0.1,0.375-0.328,0.671-0.213c0.15,0.058,0.31,0.092,0.354,0.266c0.046,0.182-0.094,0.288-0.213,0.385
			c-1.329,1.077-3.539,0.432-4.112-1.199C77.332,24.571,77.331,24.314,77.512,24.06z"/>
		<path fill-rule="evenodd" clip-rule="evenodd" fill="#51CCD9" d="M126.002,22.566c0.46-0.065,0.876,0.103,1.282,0.265
			c0.252,0.1,0.576,0.283,0.417,0.618c-0.164,0.348-0.473,0.333-0.789,0.108c-0.569-0.403-1.193-0.38-1.78-0.077
			c-0.597,0.308-0.863,0.813-0.602,1.488c0.245,0.628,1.282,1.003,2.027,0.764c0.386-0.123,0.917-0.822,1.138-0.1
			c0.211,0.689-0.664,0.696-1.124,0.819c-1.089,0.291-2.267-0.203-2.888-1.112c-0.554-0.811-0.046-2.089,1.034-2.534
			C125.122,22.639,125.552,22.514,126.002,22.566z"/>
		<path fill-rule="evenodd" clip-rule="evenodd" fill="#5ACFDB" d="M95.46,26.512c-0.943,0.006-1.886-0.014-2.828,0.024
			c-0.548,0.021-0.715-0.202-0.7-0.718c0.026-0.879,0.016-1.76,0.004-2.639c-0.005-0.41,0.098-0.661,0.58-0.635
			c0.414,0.023,0.646,0.162,0.635,0.617c-0.016,0.629,0.024,1.259-0.008,1.886c-0.029,0.574,0.198,0.797,0.769,0.759
			c0.5-0.033,1.005-0.009,1.508-0.01C95.712,26.02,95.672,26.261,95.46,26.512z"/>
		<path fill-rule="evenodd" clip-rule="evenodd" fill="#52CCD9" d="M130.764,24.498c-0.001-0.47,0.003-0.939-0.002-1.409
			c-0.004-0.324,0.082-0.534,0.471-0.535c0.377,0,0.489,0.184,0.486,0.521c-0.006,0.657,0.027,1.316-0.007,1.973
			c-0.028,0.558,0.153,0.814,0.742,0.768c0.436-0.034,0.876-0.007,1.314,0.003c0.231,0.005,0.443,0.056,0.456,0.352
			c0.015,0.314-0.206,0.347-0.436,0.348c-0.846,0.004-1.691-0.006-2.537,0.005c-0.37,0.004-0.495-0.181-0.49-0.521
			C130.77,25.5,130.764,24.999,130.764,24.498z"/>
		<path fill-rule="evenodd" clip-rule="evenodd" fill="#3D3D3D" d="M49.192,6.305c0.467-0.873,1.2-0.849,2.009-0.607
			c0.606,0.182,0.703,0.627,0.662,1.17c-0.046,0.62-0.519,0.859-0.993,0.956c-0.629,0.129-1.333,0.248-1.689-0.556
			C48.973,6.945,48.966,6.623,49.192,6.305z"/>
		<path fill-rule="evenodd" clip-rule="evenodd" fill="#5DD0DB" d="M74.637,24.595c0,0.471-0.003,0.942,0,1.413
			c0.003,0.338-0.121,0.522-0.496,0.521c-0.353-0.002-0.525-0.133-0.523-0.493c0.004-1.006,0.004-2.011,0.001-3.017
			c-0.001-0.373,0.202-0.471,0.541-0.473c0.39-0.002,0.478,0.217,0.477,0.539C74.636,23.59,74.637,24.093,74.637,24.595z"/>
		<path fill-rule="evenodd" clip-rule="evenodd" fill="#4ECBD8" d="M148.367,24.492c0-0.502,0.005-1.005-0.002-1.508
			c-0.004-0.329,0.17-0.428,0.472-0.428c0.301,0,0.473,0.096,0.472,0.427c-0.006,1.036-0.006,2.073,0,3.109
			c0.002,0.33-0.169,0.429-0.471,0.428c-0.3,0-0.476-0.096-0.472-0.426C148.372,25.56,148.367,25.026,148.367,24.492z"/>
		<path fill-rule="evenodd" clip-rule="evenodd" fill="#4ECBD8" d="M137.787,24.601c0,0.471-0.009,0.942,0.003,1.413
			c0.009,0.348-0.115,0.511-0.49,0.509c-0.396-0.002-0.463-0.217-0.461-0.539c0.006-0.974,0.009-1.947,0-2.922
			c-0.003-0.348,0.118-0.51,0.492-0.509c0.397,0.001,0.464,0.218,0.459,0.54C137.782,23.595,137.788,24.098,137.787,24.601z"/>
		<path fill-rule="evenodd" clip-rule="evenodd" fill="#6ED4DF" d="M137.44,22.147c-0.264-0.032-0.468-0.102-0.383-0.34
			c0.122-0.346,0.415-0.511,0.78-0.51c0.152,0.001,0.376,0.082,0.28,0.248C137.96,21.822,137.738,22.087,137.44,22.147z"/>
		<path fill-rule="evenodd" clip-rule="evenodd" fill="#9B9B9B" d="M94.875,8.36c-0.032,0.642,0.18,1.305-0.17,1.918
			C94.475,9.613,94.233,8.947,94.875,8.36z"/>
		<path fill-rule="evenodd" clip-rule="evenodd" fill="#71D5E0" d="M87.632,21.477c-0.108,0.349-0.387,0.512-0.647,0.648
			c-0.186,0.098-0.378-0.041-0.335-0.28c0.051-0.285,0.19-0.526,0.532-0.552C87.368,21.28,87.549,21.272,87.632,21.477z"/>
		<path fill-rule="evenodd" clip-rule="evenodd" fill="#5D5D5D" d="M167.67,2.023c-0.607-0.44-1.328-0.064-1.968-0.27
			c0.636-0.212,1.291-0.062,1.936-0.097c0.145-0.008,0.336-0.018,0.32,0.212C167.945,2.039,167.782,2,167.67,2.023z"/>
		<path fill-rule="evenodd" clip-rule="evenodd" fill="#A0A0A0" d="M176.909,12.37c-0.001-0.451-0.002-0.901-0.002-1.352
			C177.5,11.469,177.476,11.919,176.909,12.37z"/>
		<path fill-rule="evenodd" clip-rule="evenodd" fill="#989898" d="M73.027,19.555c-0.003-0.327-0.007-0.654-0.01-0.981
			C73.61,18.895,73.589,19.222,73.027,19.555z"/>
		<path fill-rule="evenodd" clip-rule="evenodd" fill="#757575" d="M156.479,15.571c-0.562-0.308-0.553-0.629-0.021-0.962
			C156.465,14.929,156.473,15.25,156.479,15.571z"/>
		<path fill-rule="evenodd" clip-rule="evenodd" fill="#ADADAD" d="M49.192,6.305c-0.004,0.321-0.008,0.642-0.012,0.963
			C48.582,6.94,48.648,6.619,49.192,6.305z"/>
		<path fill-rule="evenodd" clip-rule="evenodd" fill="#CFCFCF" d="M75.803,13.856c0,0.321,0.001,0.643,0.001,0.964
			C75.303,14.5,75.297,14.178,75.803,13.856z"/>
		<path fill-rule="evenodd" clip-rule="evenodd" fill="#D5D5D5" d="M128.327,12.913c-0.065,0.123-0.131,0.246-0.197,0.369
			c-0.246,0.164-0.39,0.128-0.384-0.198c0.018-0.267,0.06-0.518,0.391-0.573C128.2,12.645,128.264,12.78,128.327,12.913z"/>
		<path fill-rule="evenodd" clip-rule="evenodd" fill="#B3B3B3" d="M58.669,15.963c0.053-0.186,0.19-0.397,0.352-0.334
			c0.327,0.129,0.171,0.453,0.167,0.707C59.015,16.211,58.842,16.087,58.669,15.963z"/>
		<path fill-rule="evenodd" clip-rule="evenodd" fill="#DFF6F8" d="M95.46,26.512c-0.014-0.238-0.027-0.477-0.041-0.715
			c0.191,0.016,0.363,0.069,0.395,0.29C95.851,26.349,95.7,26.472,95.46,26.512z"/>
		<path fill-rule="evenodd" clip-rule="evenodd" fill="#E4E4E4" d="M65.041,13.295c-0.002,0.255-0.004,0.51-0.006,0.765
			C64.535,13.802,64.563,13.547,65.041,13.295z"/>
		<path fill-rule="evenodd" clip-rule="evenodd" fill="#D5F2F5" d="M77.512,24.06c-0.004,0.257-0.009,0.515-0.014,0.771
			C77.004,24.565,77.034,24.308,77.512,24.06z"/>
		<path fill-rule="evenodd" clip-rule="evenodd" fill="#C8C8C8" d="M61.322,15.012c-0.071-0.339-0.061-0.644,0.329-0.791
			C61.705,14.552,61.723,14.869,61.322,15.012z"/>
		<path fill-rule="evenodd" clip-rule="evenodd" fill="#E7E7E7" d="M167.227,15.561c0.002,0.255,0.005,0.51,0.007,0.764
			C166.749,16.076,166.73,15.821,167.227,15.561z"/>
		<path fill-rule="evenodd" clip-rule="evenodd" fill="#979797" d="M169.708,15.759c-0.134-0.044-0.304-0.045-0.331-0.231
			c-0.035-0.239,0.165-0.276,0.316-0.353C169.698,15.369,169.703,15.564,169.708,15.759z"/>
		<path fill-rule="evenodd" clip-rule="evenodd" fill="#6A6A6A" d="M194.288,15.182c0.136,0.043,0.288,0.073,0.312,0.248
			c0.032,0.229-0.144,0.28-0.31,0.333C194.289,15.569,194.288,15.375,194.288,15.182z"/>
		<path fill-rule="evenodd" clip-rule="evenodd" fill="#7CD8E2" d="M108.332,24.47c0,0.171,0,0.341,0,0.512
			c-0.16,0.002-0.327,0.007-0.352-0.209C107.95,24.508,108.117,24.459,108.332,24.47z"/>
		<path fill-rule="evenodd" clip-rule="evenodd" fill="#E3E3E3" d="M173.845,10.84c0.001,0.192,0.002,0.383,0.003,0.575
			C173.405,11.225,173.387,11.034,173.845,10.84z"/>
		<path fill-rule="evenodd" clip-rule="evenodd" fill="#DBDBDB" d="M107.758,12.545c0.096-0.177,0.17-0.39,0.426-0.364
			c0.045,0.004,0.115,0.123,0.112,0.186c-0.008,0.209-0.168,0.198-0.319,0.185C107.904,12.55,107.831,12.547,107.758,12.545z"/>
		<path fill-rule="evenodd" clip-rule="evenodd" fill="#9D9D9D" d="M138.374,20.827c-0.062,0.065-0.123,0.13-0.186,0.195
			c-0.124-0.02-0.372,0.053-0.311-0.151C137.962,20.595,138.194,20.729,138.374,20.827z"/>
		<path fill-rule="evenodd" clip-rule="evenodd" fill="#FEFEFE" d="M25.936,13.857c0.294-1.254,1.317-1.674,2.373-1.987
			c1.816-0.538,3.607-0.252,5.372,0.307c0.297,0.094,0.588,0.208,0.88,0.317c0.271,0.102,0.506,0.093,0.598-0.232
			c0.089-0.317-0.175-0.34-0.376-0.417c-1.052-0.403-1.987-0.987-2.85-1.72c-0.763-0.648-0.978-1.483-1.039-2.403
			c-0.162-2.452,1.479-4.343,3.992-5.336c2.042-0.808,4.148-0.487,6.238-0.352c0.81,0.053,1.611,0.224,2.52,0.356
			c-0.51,0.751-1.236,1.211-1.76,1.861c-0.659,0.818-0.966,1.787-1.338,2.695c-0.464,1.134-0.85,2.321-1.245,3.492
			c-0.72,2.139-1.731,4.186-3.885,5.269c-2.546,1.28-5.229,1.446-7.927,0.528c-0.719-0.244-1.386-0.731-1.548-1.606
			C25.764,14.373,25.764,14.115,25.936,13.857z"/>
		<path fill-rule="evenodd" clip-rule="evenodd" fill="#686868" d="M25.936,13.857c0.001,0.258,0.003,0.516,0.004,0.773
			C25.447,14.375,25.419,14.117,25.936,13.857z"/>
		<path fill-rule="evenodd" clip-rule="evenodd" fill="#FEFEFE" d="M67.638,13.823c-0.12-1.334,0.895-2.533,1.944-2.861
			c1.089-0.341,2.09,0.254,2.315,1.379c0.282,1.412-0.219,2.683-1.301,3.295C68.949,16.569,67.653,15.775,67.638,13.823z"/>
		<path fill-rule="evenodd" clip-rule="evenodd" fill="#FCFCFC" d="M67.908,20.773c-0.62-0.051-1.312-0.08-1.995-0.174
			c-0.36-0.05-0.801-0.139-0.775-0.646c0.024-0.478,0.266-0.868,0.794-0.888c1.603-0.06,3.203-0.05,4.771,0.366
			c0.228,0.06,0.424,0.152,0.418,0.428c-0.007,0.291-0.2,0.398-0.452,0.519C69.804,20.787,68.877,20.641,67.908,20.773z"/>
		<path fill-rule="evenodd" clip-rule="evenodd" fill="#9B9B9B" d="M127.746,13.084c0.082,0.157,0.222,0.199,0.384,0.198
			c-0.132,0.144-0.318,0.346-0.475,0.252C127.484,13.432,127.636,13.225,127.746,13.084z"/>
		<path fill-rule="evenodd" clip-rule="evenodd" fill="#FEFEFE" d="M55.039,13.655c0.291-1.445,1.239-2.238,2.619-2.528
			c1.051-0.221,1.713,0.353,1.838,1.398c0.225,1.877-1.534,3.7-2.8,3.672c-0.725-0.016-1.481-0.012-1.675-0.965
			C54.803,14.704,54.779,14.178,55.039,13.655z"/>
		<path fill-rule="evenodd" clip-rule="evenodd" fill="#C1C1C1" d="M55.039,13.655c-0.006,0.526-0.012,1.051-0.018,1.577
			C54.427,14.699,54.498,14.175,55.039,13.655z"/>
		<path fill-rule="evenodd" clip-rule="evenodd" fill="#FEFEFE" d="M149.847,14.044c0.333-1.563,1.359-2.669,2.71-2.92
			c1.165-0.216,1.766,0.298,1.865,1.47c0.16,1.879-1.459,3.695-2.947,3.611c-0.807-0.046-1.486-0.249-1.625-1.194
			C149.65,14.689,149.651,14.366,149.847,14.044z"/>
		<path fill-rule="evenodd" clip-rule="evenodd" fill="#707070" d="M149.847,14.044c0.001,0.322,0.002,0.645,0.003,0.967
			C149.341,14.689,149.343,14.367,149.847,14.044z"/>
		<path fill-rule="evenodd" clip-rule="evenodd" fill="#FDFDFD" d="M181.607,14.089c-0.829,0.2-0.918-0.26-0.664-0.879
			c0.465-1.136,1.726-2.324,3.313-2.277c0.458,0.013,0.824,0.198,0.914,0.657c0.136,0.697-0.034,1.338-0.68,1.716
			C183.616,13.82,182.654,14.081,181.607,14.089z"/>
		<path fill-rule="evenodd" clip-rule="evenodd" fill="#FEFEFE" d="M119.493,13.682c-0.186,1.228-0.644,2.288-1.924,2.711
			c-1.526,0.506-3.146-0.237-3.053-2.193c0.064-1.357,0.739-2.388,1.796-3.059c1.201-0.762,3.085-0.327,3.182,1.398
			C119.712,12.92,119.713,13.301,119.493,13.682z"/>
		<path fill-rule="evenodd" clip-rule="evenodd" fill="#565656" d="M119.493,13.682c0-0.381,0.001-0.762,0.001-1.143
			C120.029,12.921,120.02,13.302,119.493,13.682z"/>
		<path fill-rule="evenodd" clip-rule="evenodd" fill="#FEFEFE" d="M78.479,14.191c-0.064-1.55,0.924-2.717,2.18-3.218
			c1.44-0.574,2.75,0.426,2.796,1.861c0.045,1.428-0.391,2.663-1.635,3.397C80.105,17.245,78.441,16.187,78.479,14.191z"/>
		<path fill-rule="evenodd" clip-rule="evenodd" fill="#FCFEFE" d="M99.027,24.234c0.169-0.75,0.69-0.988,1.393-0.945
			c0.543,0.032,1.058,0.127,1.309,0.707c0.291,0.671,0.049,1.345-0.592,1.635c-0.945,0.427-1.686,0.151-2.11-0.787
			C98.901,24.64,98.901,24.437,99.027,24.234z"/>
		<path fill-rule="evenodd" clip-rule="evenodd" fill="#93DFE7" d="M99.027,24.234c0,0.203,0,0.406,0,0.609
			C98.589,24.64,98.589,24.437,99.027,24.234z"/>
		<path fill-rule="evenodd" clip-rule="evenodd" fill="#FDFEFE" d="M86.776,25.791c-0.883-0.005-1.471-0.49-1.485-1.227
			c-0.015-0.773,0.602-1.288,1.53-1.276c0.823,0.011,1.482,0.552,1.497,1.228C88.333,25.237,87.658,25.797,86.776,25.791z"/>
		<path fill-rule="evenodd" clip-rule="evenodd" fill="#FDFEFE" d="M116.283,24.828c-0.141,0.432-0.354,0.79-0.838,0.917
			c-0.821,0.216-1.76-0.172-1.956-0.837c-0.231-0.787,0.19-1.256,0.847-1.54c0.787-0.34,1.521,0.013,1.947,0.882
			C116.416,24.442,116.416,24.635,116.283,24.828z"/>
		<path fill-rule="evenodd" clip-rule="evenodd" fill="#6ED4DF" d="M116.283,24.828c0-0.193,0-0.386,0-0.578
			C116.718,24.442,116.718,24.635,116.283,24.828z"/>
		<path fill-rule="evenodd" clip-rule="evenodd" fill="#FCFEFE" d="M162.735,25.018c-0.532,0.772-1.243,0.959-2.081,0.62
			c-0.526-0.212-0.698-0.618-0.698-1.099c0-0.479,0.172-0.887,0.697-1.1c0.838-0.339,1.551-0.153,2.082,0.619
			C162.954,24.379,162.954,24.698,162.735,25.018z"/>
		<path fill-rule="evenodd" clip-rule="evenodd" fill="#91DFE7" d="M162.735,25.018c0-0.32,0-0.64,0-0.959
			C163.256,24.379,163.258,24.698,162.735,25.018z"/>
		<path fill-rule="evenodd" clip-rule="evenodd" fill="#FAFDFD" d="M62.439,23.255c0.671,0.025,1.178-0.027,1.192,0.604
			c0.017,0.712-0.543,0.604-0.997,0.632c-0.456,0.027-0.769-0.047-0.761-0.635C61.883,23.238,62.249,23.239,62.439,23.255z"/>
	</g>
</g>
<rect id="_x3C_Slice_x3E__2_" x="-0.062" y="-0.719" fill="none" width="212" height="30"/>
<rect id="_x3C_Slice_x3E_" x="-0.062" y="-0.719" fill="none" width="221" height="30"/>
<rect id="_x3C_Slice_x3E__1_" x="-5.062" y="53.281" fill="none" width="1" height="1"/>
</svg>
