<?xml version="1.0" encoding="utf-8"?>
<!-- Generator: Adobe Illustrator 16.0.0, SVG Export Plug-In . SVG Version: 6.00 Build 0)  -->
<!DOCTYPE svg PUBLIC "-//W3C//DTD SVG 1.1//EN" "http://www.w3.org/Graphics/SVG/1.1/DTD/svg11.dtd">
<svg version="1.1" id="Layer_1" xmlns="http://www.w3.org/2000/svg" xmlns:xlink="http://www.w3.org/1999/xlink" x="0px" y="0px"
	 width="233px" height="30px" viewBox="0 0 233 30" enable-background="new 0 0 233 30" xml:space="preserve">
<g>
	<g>
		<path fill="#FEFEFE" d="M119.876,98.235c-32.142,0-64.283-0.006-96.425,0.027c-0.993,0.001-1.188-0.194-1.188-1.188
			c0.031-47.56,0.031-95.12,0-142.68c-0.001-0.993,0.194-1.188,1.188-1.188c64.283,0.03,128.566,0.03,192.85,0
			c0.993,0,1.188,0.194,1.188,1.188c-0.031,47.56-0.031,95.12,0,142.68c0.001,0.993-0.194,1.188-1.188,1.188
			C184.159,98.229,152.018,98.235,119.876,98.235z"/>
		<path fill-rule="evenodd" clip-rule="evenodd" fill="#6FE0EA" d="M47.562,30.664c-4.732-0.074-10.13-1.79-14.686-5.882
			c-2.973-2.671-4.806-8.484-3.583-11.958c1.756-4.988,5.409-8.117,10.202-9.97C46.513,0.14,53.504,0.38,60.199,3.799
			c5.151,2.63,8.688,6.606,8.452,12.844c-0.143,3.772-2.201,6.638-4.961,9.002C59.875,28.913,54.564,30.657,47.562,30.664z"/>
		<path fill-rule="evenodd" clip-rule="evenodd" fill="#78E2EC" d="M146.456,20.234c0-0.772-0.004-1.546,0.001-2.318
			c0.004-0.536-0.02-1.177,0.559-1.377c0.617-0.213,1.405-0.383,1.872,0.26c0.339,0.466,0.607,0.33,0.955,0.169
			c1.873-0.865,3.742-0.95,5.466,0.275c0.529,0.376,0.849,0.156,1.124-0.079c1.309-1.118,2.854-0.861,4.287-0.623
			c1.113,0.185,1.979,0.957,1.965,2.312c-0.014,1.352-0.004,2.704,0.019,4.056c0.012,0.763-0.141,1.32-1.072,1.373
			c-0.973,0.056-1.478-0.388-1.521-1.314c-0.051-1.061-0.064-2.126-0.015-3.186c0.062-1.302-0.581-1.853-1.802-1.877
			c-1.271-0.023-2.259,0.744-2.307,1.854c-0.045,1.061-0.016,2.125-0.015,3.188c0,0.893-0.439,1.323-1.335,1.333
			c-0.902,0.01-1.329-0.371-1.288-1.311c0.043-1.013-0.02-2.029,0.016-3.042c0.039-1.104-0.253-1.896-1.515-2.019
			c-1.34-0.129-2.361,0.48-2.653,1.666c-0.27,1.094-0.111,2.213-0.113,3.318c-0.002,0.86-0.228,1.379-1.208,1.394
			c-0.931,0.014-1.346-0.47-1.394-1.299c-0.052-0.915-0.012-1.835-0.012-2.752C146.466,20.234,146.461,20.234,146.456,20.234z"/>
		<path fill-rule="evenodd" clip-rule="evenodd" fill="#484848" d="M75.129,18.487c0-1.4-0.007-2.801,0.002-4.201
			c0.004-0.694,0.21-1.286,1.04-1.277c2.695,0.03,5.41-0.317,8.079,0.271c1.859,0.41,2.636,1.288,2.715,2.856
			c0.087,1.728-0.557,2.647-2.247,3.21c-1.827,0.609-3.723,0.498-5.596,0.444c-1.031-0.029-1.389,0.299-1.276,1.307
			c0.07,0.619,0.009,1.254,0.005,1.882c-0.005,0.902-0.471,1.293-1.361,1.297c-0.899,0.004-1.356-0.401-1.359-1.298
			C75.126,21.481,75.13,19.984,75.129,18.487z"/>
		<path fill-rule="evenodd" clip-rule="evenodd" fill="#474747" d="M134.554,21.14c0,0.532,0.008,1.063-0.002,1.596
			c-0.025,1.482-0.964,2.094-2.097,1.211c-0.59-0.459-0.905-0.347-1.42-0.114c-1.658,0.745-3.234,0.591-4.81-0.341
			c-0.909-0.537-1.096-1.263-0.975-2.184c0.125-0.943,0.922-1.189,1.632-1.411c1.299-0.404,2.665-0.38,4.011-0.482
			c0.398-0.03,1.072,0.31,1.085-0.521c0.01-0.672-0.462-0.887-1.044-0.966c-1.222-0.165-2.403,0.05-3.577,0.351
			c-0.42,0.107-0.835,0.273-1.271,0.099c-0.256-0.103-0.571-0.144-0.586-0.53c-0.013-0.324,0.137-0.483,0.41-0.67
			c1.562-1.066,6.065-1.094,7.683-0.06c0.656,0.419,0.85,1.037,0.908,1.705c0.066,0.768,0.016,1.545,0.016,2.317
			C134.529,21.14,134.542,21.14,134.554,21.14z"/>
		<path fill-rule="evenodd" clip-rule="evenodd" fill="#78E2EC" d="M180.388,20.272c0-0.821-0.012-1.643,0.004-2.464
			c0.01-0.535,0.027-1.148,0.658-1.307c0.59-0.147,1.333-0.324,1.744,0.28c0.442,0.651,0.757,0.427,1.291,0.154
			c2.184-1.114,4.841-0.629,6.041,0.915c0.526,0.678,0.336,1.37,0.374,2.062c0.053,0.963-0.036,1.935,0.026,2.896
			c0.065,1.005-0.425,1.476-1.336,1.447c-0.88-0.027-1.595-0.383-1.584-1.46c0.009-0.918-0.009-1.835,0.003-2.753
			c0.014-1.064,0.022-2.069-1.47-2.146c-1.706-0.088-2.881,0.554-3.06,1.923c-0.13,0.999-0.085,2.023-0.071,3.036
			c0.011,0.829-0.158,1.404-1.167,1.43c-1.016,0.026-1.4-0.518-1.439-1.405c-0.039-0.867-0.009-1.738-0.009-2.607
			C180.392,20.272,180.39,20.272,180.388,20.272z"/>
		<path fill-rule="evenodd" clip-rule="evenodd" fill="#484848" d="M111.307,20.238c0-0.819-0.006-1.64,0.001-2.459
			c0.004-0.524-0.094-1.138,0.581-1.325c0.604-0.167,1.356-0.267,1.735,0.277c0.371,0.532,0.69,0.523,1.099,0.256
			c1.324-0.863,2.777-0.714,4.202-0.504s2.425,1.568,2.483,3.216c0.035,1.012-0.004,2.025,0.01,3.038
			c0.014,1.017-0.57,1.489-1.488,1.521c-0.946,0.033-1.515-0.38-1.441-1.468c0.066-1.009-0.001-2.025,0.014-3.037
			c0.02-1.369-0.749-1.856-1.999-1.858c-1.573-0.002-2.5,0.641-2.562,1.88c-0.053,1.059-0.051,2.123-0.008,3.183
			c0.044,1.084-0.629,1.279-1.476,1.31c-0.886,0.031-1.175-0.47-1.156-1.28C111.324,22.071,111.307,21.154,111.307,20.238z"/>
		<path fill-rule="evenodd" clip-rule="evenodd" fill="#78E2EC" d="M176.296,23.13c-2.545,1.552-5.2,1.538-7.824,0.343
			c-1.543-0.702-1.92-2.148-1.758-3.768c0.184-1.833,1.5-2.675,2.996-3.088c1.521-0.42,3.146-0.419,4.681,0.171
			c1.035,0.397,1.862,1.003,1.936,2.245c0.259,0.408,0.266,0.811-0.026,1.207c-1.732,0.614-3.524,0.091-5.275,0.29
			c-0.558,0.063-1.448-0.437-1.608,0.398c-0.17,0.891,0.703,1.308,1.418,1.581c1.078,0.413,2.158,0.184,3.248-0.112
			c0.699-0.19,1.429-0.726,2.195-0.141C176.521,22.543,176.515,22.834,176.296,23.13z"/>
		<path fill-rule="evenodd" clip-rule="evenodd" fill="#484848" d="M97.633,19.625c0.166-1.516,1.105-2.401,2.469-2.826
			c2.28-0.709,4.487-0.865,6.446,0.947c0.431,0.399,0.589,0.822,0.75,1.308c0.269,0.397,0.271,0.79-0.022,1.177
			c-1.829,0.62-3.717,0.105-5.566,0.299c-0.476,0.05-1.192-0.356-1.389,0.296c-0.229,0.763,0.388,1.209,1.022,1.529
			c1.107,0.558,2.25,0.39,3.386,0.142c0.419-0.091,0.82-0.264,1.229-0.398c0.484-0.158,1.007-0.267,1.236,0.323
			c0.249,0.639-0.154,0.941-0.733,1.151c-2.706,0.979-5.308,1.171-7.805-0.652c-0.679-0.496-0.801-1.137-1.009-1.809
			C97.343,20.619,97.349,20.123,97.633,19.625z"/>
		<path fill-rule="evenodd" clip-rule="evenodd" fill="#78E2EC" d="M204.078,19.328c0.032-1.248,0.962-1.851,1.854-2.387
			c1.652-0.993,5.133-0.606,6.727,0.518c0.688,0.485,0.875,1.115,1.005,1.815c0.154,0.831-0.187,1.267-1.096,1.249
			c-1.591-0.031-3.184-0.028-4.774,0.006c-0.382,0.009-1.005-0.278-1.109,0.277c-0.104,0.551,0.124,1.149,0.734,1.441
			c1.03,0.495,2.09,0.695,3.213,0.338c0.549-0.175,1.11-0.312,1.659-0.485c0.551-0.174,1.103-0.251,1.307,0.432
			c0.168,0.563-0.239,0.937-0.717,1.093c-2.699,0.884-5.341,1.146-7.825-0.689c-0.562-0.415-0.806-0.918-0.963-1.532
			C203.721,20.715,203.735,20.022,204.078,19.328z"/>
		<path fill-rule="evenodd" clip-rule="evenodd" fill="#78E2EC" d="M199.511,24.277c-3.057-0.218-4.365-0.941-4.087-4.168
			c0.029-0.336-0.029-0.68,0.01-1.014c0.102-0.86-0.21-1.256-1.121-1.186c-0.528,0.041-1.167,0.002-1.138-0.759
			c0.025-0.644,0.604-0.725,1.086-0.674c1.007,0.107,1.249-0.368,1.18-1.266c-0.08-1.047,0.664-1.351,1.496-1.321
			c0.814,0.03,1.547,0.337,1.394,1.402c-0.146,1.017,0.372,1.269,1.26,1.169c0.285-0.032,0.581-0.009,0.868,0.024
			c0.433,0.049,0.732,0.276,0.72,0.744c-0.011,0.392-0.272,0.582-0.643,0.668c-0.69,0.16-1.732-0.344-2.023,0.309
			c-0.346,0.774-0.089,1.798-0.19,2.702c-0.151,1.349,0.557,1.831,1.745,1.91c0.534,0.035,1.188,0,1.119,0.772
			c-0.063,0.712-0.708,0.665-1.24,0.685C199.801,24.282,199.655,24.277,199.511,24.277z"/>
		<path fill-rule="evenodd" clip-rule="evenodd" fill="#474747" d="M93.624,18.589c0,1.447-0.043,2.896,0.015,4.342
			c0.044,1.088-0.607,1.296-1.451,1.335c-0.865,0.04-1.19-0.423-1.186-1.254c0.016-2.943,0.015-5.887,0-8.83
			c-0.004-0.872,0.423-1.245,1.249-1.186c0.769,0.054,1.417,0.227,1.385,1.25C93.588,15.692,93.624,17.141,93.624,18.589z"/>
		<path fill-rule="evenodd" clip-rule="evenodd" fill="#C3F2F6" d="M204.078,19.328c0.005,0.691,0.01,1.384,0.015,2.075
			C203.199,20.719,203.208,20.026,204.078,19.328z"/>
		<path fill-rule="evenodd" clip-rule="evenodd" fill="#CCCCCC" d="M97.633,19.625c0.005,0.495,0.01,0.99,0.015,1.486
			C96.824,20.624,96.761,20.129,97.633,19.625z"/>
		<path fill-rule="evenodd" clip-rule="evenodd" fill="#D4D4D4" d="M107.276,20.23c0.007-0.392,0.015-0.784,0.022-1.177
			C108.083,19.461,108.1,19.854,107.276,20.23z"/>
		<path fill-rule="evenodd" clip-rule="evenodd" fill="#BDF1F6" d="M176.3,20.24c0.009-0.402,0.018-0.805,0.026-1.207
			C177.102,19.453,177.111,19.855,176.3,20.24z"/>
		<path fill-rule="evenodd" clip-rule="evenodd" fill="#E1F8FA" d="M176.296,23.13c-0.006-0.291-0.012-0.582-0.019-0.873
			c0.294,0.041,0.573,0.109,0.532,0.496C176.778,23.052,176.528,23.086,176.296,23.13z"/>
		<path fill-rule="evenodd" clip-rule="evenodd" fill="#FEFEFE" d="M48.86,2.013c4.915,0.04,9.543,1.273,13.445,4.35
			c3.633,2.865,5.924,6.553,4.947,11.453c-0.796,3.989-3.292,6.8-6.747,8.787c-5.958,3.428-12.257,3.986-18.797,2.043
			c-4.121-1.225-7.681-3.408-9.897-7.149c-1.659-2.802-2.282-5.835-0.904-9.16c2.755-6.645,8.271-9.033,14.757-10.064
			C46.704,2.106,47.756,1.862,48.86,2.013z"/>
		<path fill-rule="evenodd" clip-rule="evenodd" fill="#FEFEFE" d="M80.542,14.573c0.765,0.056,1.554,0.014,2.289,0.195
			c0.777,0.192,1.51,0.558,1.562,1.578c0.049,0.969-0.622,1.393-1.322,1.609c-1.537,0.475-3.145,0.183-4.722,0.228
			c-0.371,0.01-0.485-0.227-0.482-0.555c0.001-0.096,0-0.192-0.006-0.288C77.666,14.607,77.665,14.607,80.542,14.573z"/>
		<path fill-rule="evenodd" clip-rule="evenodd" fill="#FCFCFC" d="M130.764,20.546c0.32,0.166,1.063-0.422,1.215,0.352
			c0.134,0.681-0.136,1.323-0.916,1.582c-0.178,0.059-0.323,0.23-0.502,0.271c-0.864,0.193-1.686,0.18-2.442-0.41
			c-0.396-0.31-0.416-0.751-0.231-1.005c0.482-0.665,1.273-0.749,2.043-0.787C130.169,20.536,130.408,20.546,130.764,20.546z"/>
		<path fill-rule="evenodd" clip-rule="evenodd" fill="#FDFEFE" d="M171.645,19.383c-0.431,0-0.865,0.032-1.292-0.011
			c-0.333-0.033-0.868,0.223-0.92-0.356c-0.034-0.388,0.27-0.678,0.657-0.855c1.097-0.501,2.174-0.685,3.281-0.014
			c0.36,0.219,0.65,0.462,0.55,0.895c-0.103,0.442-0.524,0.324-0.839,0.336C172.604,19.396,172.124,19.382,171.645,19.383z"/>
		<path fill-rule="evenodd" clip-rule="evenodd" fill="#FCFCFC" d="M102.512,19.408c-0.431,0-0.867,0.036-1.292-0.012
			c-0.324-0.037-0.866,0.252-0.898-0.366c-0.02-0.383,0.24-0.649,0.642-0.845c1.108-0.54,2.171-0.591,3.301-0.06
			c0.464,0.218,0.733,0.521,0.646,0.968c-0.106,0.542-0.625,0.272-0.961,0.303C103.473,19.44,102.991,19.408,102.512,19.408z"/>
		<path fill-rule="evenodd" clip-rule="evenodd" fill="#FDFEFE" d="M206.556,19.383c0.771-1.604,3.188-2.182,4.272-1.21
			c0.229,0.205,0.442,0.583,0.428,0.869c-0.024,0.475-0.503,0.329-0.808,0.333C209.202,19.393,207.955,19.383,206.556,19.383z"/>
		<path fill-rule="evenodd" clip-rule="evenodd" fill="#6FE0EA" d="M51.293,13.017c2.601-0.09,5.191-0.247,7.693-1.07
			c0.615-0.203,0.998-0.202,0.789,0.718c-1.083,4.764-4.012,7.741-9.206,8.156c-1.531,0.122-3.05,0.4-4.57,0.64
			c-0.336,0.053-0.676,0.239-0.927-0.095c-0.278-0.371-0.091-0.759,0.133-1.073c0.616-0.864,1.427-1.531,2.294-2.132
			c0.285-0.25,0.631-0.413,0.925-0.649c0.225-0.015,0.462-0.118,0.664,0.074c-0.184-0.223-0.428-0.083-0.646-0.101
			c-0.34,0.331-0.803,0.3-1.216,0.416c-2.577,0.919-3.735,2.804-3.729,5.48c0.154,0.537,0.093,0.865-0.582,0.597
			c-0.472-3.081,0.331-5.847,2.08-8.377c0.117-0.61,0.714-0.785,1.07-1.18c0.94-0.671,1.99-1.07,3.127-1.25
			C49.889,13.073,50.571,12.769,51.293,13.017z"/>
		<path fill-rule="evenodd" clip-rule="evenodd" fill="#6FE0EA" d="M44.056,15.362c-1.558-0.383-2.771-1.314-3.665-2.582
			c-0.842-1.193-1.268-2.613-1.716-4.115c1.373-0.159,2.637,0.564,4.009,0.615c2.93,0.109,5.838,0.492,8.369,2.192
			c0.463,0.311,1.576,0.561,0.249,1.254c-0.879,0.286-1.761,0.555-2.7,0.528c-0.463,0.045-0.801-0.276-1.201-0.415
			c-0.385-0.158-0.834-0.137-1.147-0.321c0.177,0.282,0.61,0.089,0.896,0.273c0.763,0.327,0.616,0.699,0.032,1.046
			c-0.478,0.284-0.99,0.509-1.356,0.95C45.266,15.077,44.797,15.643,44.056,15.362z"/>
		<path fill-rule="evenodd" clip-rule="evenodd" fill="#E3F8FB" d="M48.393,12.983c0.991,0.16,1.914-0.462,2.909-0.255
			c-0.003,0.096-0.006,0.192-0.008,0.288c-0.684,0.166-1.367,0.332-2.051,0.499C49.041,13.207,48.323,13.725,48.393,12.983z"/>
		<path fill-rule="evenodd" clip-rule="evenodd" fill="#ECFAFC" d="M44.056,15.362c0.705,0.148,1.015-0.675,1.66-0.674
			c0.135-0.118,0.259-0.107,0.372,0.031c-0.208,0.488-0.716,0.604-1.093,0.881C44.669,15.57,44.313,15.658,44.056,15.362z"/>
		<path fill-rule="evenodd" clip-rule="evenodd" fill="#9CEAF0" d="M42.915,23.978c0.415,0.016,0.524-0.265,0.581-0.597
			c0.266,0.366,0.47,0.815,0.016,1.096C43.178,24.684,42.894,24.416,42.915,23.978z"/>
		<path fill-rule="evenodd" clip-rule="evenodd" fill="#D9F7F9" d="M48.419,17.706c-0.223,0.319-0.518,0.496-0.92,0.454
			c-0.091-0.086-0.183-0.173-0.273-0.26c0.288-0.403,0.793-0.32,1.171-0.523c0.094,0.066,0.128,0.138,0.104,0.213
			C48.476,17.667,48.449,17.706,48.419,17.706z"/>
		<path fill-rule="evenodd" clip-rule="evenodd" fill="#ECFBFC" d="M46.087,14.72c-0.124-0.01-0.248-0.021-0.372-0.031
			c0.293-0.546,0.824-0.778,1.343-1.036c0.594-0.294,0.436-0.533-0.083-0.715c-0.088-0.271-0.004-0.383,0.283-0.307
			c0.402,0.04,0.804,0.08,1.134,0.353c0.283,0.177,0.566,0.354,0.85,0.531C48.099,13.678,47.102,14.221,46.087,14.72z"/>
		<path fill-rule="evenodd" clip-rule="evenodd" fill="#E4F9FB" d="M48.419,17.706c-0.007-0.11-0.015-0.22-0.022-0.33
			c0.342-0.013,0.677-0.286,1.049-0.046C49.198,17.776,48.741,17.55,48.419,17.706z"/>
		<path fill-rule="evenodd" clip-rule="evenodd" fill="#B8F0F5" d="M47.259,12.631c-0.095,0.103-0.189,0.205-0.283,0.307
			c-0.355,0.031-0.657-0.086-1.051-0.458C46.467,12.38,46.867,12.281,47.259,12.631z"/>
	</g>
</g>
</svg>
