<?xml version="1.0" encoding="utf-8"?>
<!-- Generator: Adobe Illustrator 16.0.0, SVG Export Plug-In . SVG Version: 6.00 Build 0)  -->
<!DOCTYPE svg PUBLIC "-//W3C//DTD SVG 1.1//EN" "http://www.w3.org/Graphics/SVG/1.1/DTD/svg11.dtd">
<svg version="1.1" id="Layer_1" xmlns="http://www.w3.org/2000/svg" xmlns:xlink="http://www.w3.org/1999/xlink" x="0px" y="0px"
	 width="293.334px" height="56.667px" viewBox="0 0 293.334 56.667" enable-background="new 0 0 293.334 56.667"
	 xml:space="preserve">
<rect id="_x3C_Slice_x3E__2_" x="-0.062" y="-0.719" fill="none" width="212" height="30"/>
<rect id="_x3C_Slice_x3E_" x="-0.062" y="-0.719" fill="none" width="221" height="30"/>
<rect id="_x3C_Slice_x3E__1_" x="-5.062" y="53.281" fill="none" width="1" height="1"/>
<g>
	<g>
		<path fill="#FEFEFE" d="M127.835,134.196c-46.355,0-92.71-0.01-139.065,0.034c-1.939,0.002-2.321-0.243-2.32-1.482
			c0.062-59.386,0.062-118.771,0-178.156c-0.001-1.239,0.38-1.483,2.32-1.483c92.899,0.04,185.798,0.04,278.698,0
			c1.938,0,2.32,0.243,2.319,1.483c-0.062,59.385-0.062,118.771,0,178.156c0.001,1.238-0.379,1.484-2.319,1.482
			C220.924,134.186,174.38,134.196,127.835,134.196z"/>
		<path fill-rule="evenodd" clip-rule="evenodd" fill="#676767" d="M146.77,14.139c-3.331,1.704-6.712,1.862-9.339,0.59
			c-2.933-1.419-3.938-4.497-2.26-6.923c1.401-2.026,4.559-3.007,8.179-2.569c0.962,0.117,1.807,0.354,2.465,0.806
			c0.722,0.496,0.935,0.407,0.997-0.246c0.075-0.791,1.085-0.471,1.736-0.489c0.947-0.026,0.978,0.441,0.959,0.877
			c-0.155,3.551,0.381,7.111-0.32,10.654c-0.34,1.717-1.726,2.899-4.384,3.393c-2.888,0.536-5.589,0.343-8.001-0.89
			c-0.663-0.339-1.051-0.669-0.218-1.163c0.617-0.366,1.028-0.412,1.551,0.056c1.49,1.333,3.444,1.864,5.901,1.199
			c2.544-0.689,2.699-2.162,2.732-3.646C146.779,15.307,146.77,14.826,146.77,14.139z"/>
		<path fill-rule="evenodd" clip-rule="evenodd" fill="#676767" d="M73.096,31.916c-1.16,0.452-1.811,0.215-2.61-0.242
			c-3.944-2.253-9.928-2.373-13.4-0.328c-3.451,2.032-3.982,6.63-1.062,9.204c2.667,2.351,8.833,3.122,13.088,1.684
			c2.476-0.838,1.065-2.252,1.287-3.396c0.233-1.206-1.421-0.782-2.409-0.888c-0.368-0.039-0.765-0.026-1.067-0.617
			c1.922-0.351,4.869-0.637,5.619-0.03c1.675,1.354,0.471,3.322,0.655,5.033c0.046,0.426,0.398,0.998-0.505,1.274
			c-0.313,0.097-0.898,0.151-1.092,0.038c-1.811-1.058-3.575-0.144-5.33,0.027c-10.542,1.021-17.911-3.985-14.604-9.98
			c1.587-2.877,5.077-4.249,9.648-4.554S70.138,29.182,73.096,31.916z"/>
		<path fill-rule="evenodd" clip-rule="evenodd" fill="#686868" d="M142.741,37.691c0.215-1.312,0.36-2.65-1.633-3.265
			c-1.988-0.613-4.087-0.367-5.628,0.799c-0.587,0.444-1.087,0.649-1.81,0.144c-0.853-0.598,0.016-0.878,0.579-1.12
			c2.644-1.134,5.564-1.136,8.397-0.492c2.558,0.581,2.782,2.146,2.852,3.621c0.082,1.746-0.017,3.496,0.084,5.242
			c0.076,1.319-1.958,1.334-2.284,0.928c-1.014-1.268-1.862-0.239-2.595-0.075c-2.996,0.671-5.917,0.34-7.465-1.001
			c-1.584-1.372-1.537-2.81-0.116-4.211c1.519-1.498,4.739-2.017,7.572-1.255C141.368,37.187,141.995,37.439,142.741,37.691z"/>
		<path fill-rule="evenodd" clip-rule="evenodd" fill="#686868" d="M127.583,9.413c0.099-1.362,0.334-2.651-1.586-3.226
			c-1.996-0.598-4.083-0.39-5.631,0.767c-0.577,0.431-1.046,0.69-1.797,0.186c-1.055-0.709,0.107-0.958,0.71-1.197
			c2.67-1.058,5.574-1.1,8.377-0.369c2.634,0.688,2.666,2.312,2.69,3.842c0.025,1.623-0.058,3.249,0.044,4.869
			c0.087,1.368-1.333,1.508-2.379,0.91c-0.924-0.529-1.338-0.289-2.062-0.11c-3.468,0.854-6.316,0.528-7.943-0.894
			c-1.532-1.34-1.389-3.223,0.342-4.502c1.933-1.428,5.025-1.64,8.235-0.567C126.827,9.203,127.084,9.268,127.583,9.413z"/>
		<path fill-rule="evenodd" clip-rule="evenodd" fill="#686868" d="M97.528,38.641c0-1.387-0.019-2.772,0.013-4.158
			c0.008-0.38-0.249-0.943,0.802-0.929c0.667,0.01,1.688-0.296,1.889,0.389c0.296,1.007,0.891,0.376,1.451,0.179
			c5.122-1.795,9.069-0.405,9.237,3.283c0.08,1.746,0.001,3.495,0.022,5.243c0.007,0.613-0.152,1.028-1.363,1.038
			c-1.195,0.01-1.393-0.366-1.382-1c0.031-1.747,0.039-3.496,0.001-5.243c-0.045-2.015-1.288-3.045-3.598-3.051
			c-2.605-0.008-4.213,1.137-4.283,3.13c-0.059,1.688-0.051,3.376-0.005,5.062c0.02,0.719-0.205,1.115-1.537,1.104
			c-1.318-0.011-1.255-0.506-1.251-1.069C97.534,41.292,97.528,39.967,97.528,38.641z"/>
		<path fill-rule="evenodd" clip-rule="evenodd" fill="#676767" d="M161.862,5.143c4.766-0.026,8.223,2.145,8.25,5.18
			c0.026,3.049-3.376,5.256-8.123,5.27c-4.663,0.014-8.323-2.262-8.356-5.195C153.601,7.448,157.17,5.168,161.862,5.143z"/>
		<path fill-rule="evenodd" clip-rule="evenodd" fill="#676767" d="M85.16,43.81c-4.774-0.019-8.211-2.208-8.197-5.223
			s3.476-5.198,8.24-5.198c4.638,0,8.272,2.302,8.261,5.231C93.453,41.569,89.837,43.829,85.16,43.81z"/>
		<path fill-rule="evenodd" clip-rule="evenodd" fill="#676767" d="M93.643,8.623c-0.001-1.81-0.051-3.62,0.021-5.429
			c0.034-0.845-0.38-1.201-1.766-1.155c-1.788,0.059-3.584,0.021-5.377,0.006c-0.633-0.005-1.42,0.067-1.37-0.595
			c0.04-0.517,0.67-0.503,1.221-0.503c5.851-0.005,11.701-0.004,17.552,0c0.601,0,1.149,0.081,1.096,0.586
			c-0.053,0.507-0.667,0.507-1.226,0.511c-1.698,0.012-3.407,0.081-5.093-0.011c-1.816-0.098-2.216,0.391-2.189,1.458
			c0.087,3.498,0.042,6.997,0.023,10.496c-0.003,0.674,0.394,1.499-1.527,1.457c-1.727-0.038-1.344-0.78-1.354-1.392
			C93.625,12.243,93.644,10.433,93.643,8.623z"/>
		<path fill-rule="evenodd" clip-rule="evenodd" fill="#686868" d="M129.768,35.557c-1.442,0.514-2.086,0.027-2.841-0.481
			c-1.674-1.127-3.694-1.11-5.692-0.438c-2.917,0.982-4.005,4.088-2.298,6.276c1.364,1.748,4.566,2.398,7.794,1.571
			c0.434-0.111,0.842-0.269,1.241-0.427c0.459-0.182,0.9-0.223,1.206,0.098c0.325,0.34-0.102,0.531-0.461,0.729
			c-1.393,0.762-3.341,0.679-5.157,1.304c1.994,0.356,4.184,0.604,3.36,2.155c-0.858,1.616-3.131,1.374-5.374,1.151
			c0.555-0.848,1.711-0.416,2.46-0.641c0.618-0.186,1.241-0.365,1.251-0.864c0.01-0.504-0.803-0.577-1.196-0.856
			c-1.853-1.32-4.864-1.472-6.672-2.758c-2.422-1.724-2.899-3.759-1.65-5.897c1.132-1.94,3.509-2.931,6.709-3.061
			C125.367,33.3,128.097,33.526,129.768,35.557z"/>
		<path fill-rule="evenodd" clip-rule="evenodd" fill="#676767" d="M183.906,38.963c-1.037,0-2.073-0.002-3.11,0
			c-3.016,0.007-3.432,0.442-2.066,2.164c1.311,1.653,4.431,2.336,7.284,1.57c0.599-0.161,1.131-0.422,1.703-0.626
			c0.581-0.207,1.159-0.868,1.835-0.205c0.517,0.507-0.465,0.707-0.913,0.928c-2.613,1.292-7.404,1.361-10.144,0.186
			c-2.755-1.183-4.1-3.666-3.226-5.953c0.797-2.085,3.289-3.444,6.598-3.599c3.654-0.17,6.247,0.745,7.552,2.696
			c0.255,0.382,0.359,0.804,0.538,1.206c0.528,1.187,0.11,1.823-2.097,1.651C186.561,38.88,185.226,38.963,183.906,38.963z"/>
		<path fill-rule="evenodd" clip-rule="evenodd" fill="#686868" d="M199.365,43.803c-2.357-0.002-4.547-0.295-5.94-1.653
			c-0.346-0.338-1.149-0.859-0.172-1.229c0.662-0.25,1.388-0.111,1.818,0.469c0.985,1.329,2.814,1.674,4.954,1.577
			c1.34-0.061,2.4-0.397,2.747-1.283c0.367-0.94-0.506-1.51-1.712-1.838c-1.382-0.375-2.856-0.608-4.253-0.965
			c-2.179-0.556-3.838-1.431-3.353-3.116c0.493-1.713,2.461-2.316,4.97-2.36c1.836-0.032,3.599,0.151,4.968,1.023
			c0.507,0.322,1.258,0.795,0.63,1.216c-0.668,0.447-1.283,0.059-1.762-0.403c-1.101-1.062-2.796-1.139-4.541-0.947
			c-1.104,0.121-1.879,0.585-2.107,1.301c-0.255,0.796,0.524,1.264,1.54,1.53c1.215,0.32,2.488,0.549,3.734,0.82
			c3.366,0.732,4.672,1.786,4.279,3.449C204.798,42.956,202.758,43.803,199.365,43.803z"/>
		<path fill-rule="evenodd" clip-rule="evenodd" fill="#686868" d="M166.031,41.761c1.74-2.736,3.169-5.019,4.651-7.285
			c0.259-0.396,0.381-1.142,1.392-0.873c1.021,0.271,0.127,0.797-0.092,1.152c-1.614,2.633-3.273,5.254-4.958,7.869
			c-0.3,0.466-0.419,1.061-1.62,1.055c-1.162-0.005-1.327-0.54-1.647-1.03c-1.705-2.609-3.428-5.215-5.097-7.833
			c-0.241-0.378-1.133-0.924-0.124-1.2c0.875-0.239,1.979-0.273,2.532,0.611C162.563,36.615,164.183,38.97,166.031,41.761z"/>
		<path fill-rule="evenodd" clip-rule="evenodd" fill="#6A6A6A" d="M151.304,36.408c0-2.042-0.008-4.084,0.005-6.125
			c0.003-0.52-0.202-1.097,1.166-1.114c1.257-0.017,1.608,0.31,1.603,1.062c-0.034,4.144-0.025,8.287-0.008,12.432
			c0.002,0.625-0.194,1-1.373,1.027c-1.457,0.035-1.402-0.525-1.398-1.156C151.312,40.492,151.303,38.45,151.304,36.408z"/>
		<path fill-rule="evenodd" clip-rule="evenodd" fill="#6C6C6C" d="M109.355,10.403c-0.002-1.377,0.019-2.755-0.011-4.132
			c-0.014-0.619,0.15-1.015,1.355-1.006c1.155,0.009,1.418,0.357,1.413,1c-0.024,2.755-0.03,5.51,0,8.265
			c0.008,0.722-0.513,0.907-1.544,0.912c-1.069,0.004-1.225-0.359-1.217-0.906C109.369,13.158,109.357,11.781,109.355,10.403z"/>
		<path fill-rule="evenodd" clip-rule="evenodd" fill="#EEEEEE" d="M198.966,53.731c-1.084,0.484-2.126,0.401-2.747-0.315
			c-0.39-0.45-0.374-1.084,0.339-1.487c0.928-0.526,1.953-0.675,2.946-0.021C199.806,52.574,199.786,53.201,198.966,53.731z"/>
		<path fill-rule="evenodd" clip-rule="evenodd" fill="#EEEEEE" d="M155.347,53.733c-1.085,0.481-2.126,0.399-2.746-0.318
			c-0.388-0.45-0.373-1.083,0.34-1.487c0.928-0.525,1.953-0.674,2.946-0.021C156.188,52.574,156.167,53.202,155.347,53.733z"/>
		<path fill-rule="evenodd" clip-rule="evenodd" fill="#F4F4F4" d="M139.495,51.624c0.737,0.136,1.478-0.636,2.214,0.004
			c1.369,0.782,1.188,1.547-0.065,2.299c-0.762,0.024-1.561,0.231-2.235-0.182c-0.002-0.114,0.005-0.229,0.019-0.342
			C138.824,52.8,138.8,52.207,139.495,51.624z"/>
		<path fill-rule="evenodd" clip-rule="evenodd" fill="#6B6B6B" d="M112.286,1.894c-0.053,0.644-0.672,1.026-1.59,1.037
			c-1.088,0.013-1.779-0.454-1.708-1.148c0.062-0.605,0.752-0.964,1.737-0.929C111.699,0.887,112.255,1.242,112.286,1.894z"/>
		<path fill-rule="evenodd" clip-rule="evenodd" fill="#E7E7E7" d="M146.236,52.018c-0.054-0.08-0.071-0.164-0.05-0.25
			c2.673-0.495,2.809-0.419,2.726,1.524c-0.652,0.692-1.553,0.861-2.693,0.517l0.04,0.019
			C145.673,53.227,145.496,52.625,146.236,52.018z"/>
		<path fill-rule="evenodd" clip-rule="evenodd" fill="#767676" d="M135.228,50.351c0.744,1.22,0.746,2.431,0,3.657
			C135.228,52.79,135.228,51.57,135.228,50.351z"/>
		<path fill-rule="evenodd" clip-rule="evenodd" fill="#939393" d="M148.649,53.493c-0.201-0.937,0.293-2.279-2.464-1.726
			c0.671-0.959,1.961-0.472,2.88-0.375c0.899,0.096,0.587,0.801,0.531,1.23c-0.094,0.734,0.516,1.552-0.524,2.193
			C148.679,54.409,148.552,53.965,148.649,53.493z"/>
		<path fill-rule="evenodd" clip-rule="evenodd" fill="#959595" d="M118.222,54.323c-0.379-1.168-0.51-2.058,0.321-2.916
			C118.992,52.306,119.51,53.208,118.222,54.323z"/>
		<path fill-rule="evenodd" clip-rule="evenodd" fill="#8F8F8F" d="M182.372,51.647c1.251,0.739,0.644,1.581,0.433,2.695
			c-1.304-0.964-0.573-1.9-0.91-2.692C182.052,51.493,182.211,51.492,182.372,51.647z"/>
		<path fill-rule="evenodd" clip-rule="evenodd" fill="#F7F7F7" d="M112.33,53.821c-1.065-0.899,0.476-0.854,1.034-1.165
			c0.467,0.378,2.043,0.315,1.187,1.22C113.801,54.016,113.056,54.082,112.33,53.821z"/>
		<path fill-rule="evenodd" clip-rule="evenodd" fill="#787878" d="M164.071,53.189c-1.23-0.639-1.202-1.361-0.184-2.58
			C163.972,51.786,164.021,52.488,164.071,53.189z"/>
		<path fill-rule="evenodd" clip-rule="evenodd" fill="#666666" d="M106.681,52.788c-0.05,0.395-0.1,0.789-0.15,1.183
			c-0.244-1.261-1.418-2.529,0.032-3.73c0.214,0.125,0.381,0.271,0.505,0.438c0.257,0.541,0.258,1.085,0.034,1.631
			C106.976,52.473,106.834,52.632,106.681,52.788z"/>
		<path fill-rule="evenodd" clip-rule="evenodd" fill="#676767" d="M172.07,54.502c-0.775-1.68-0.41-2.88,0-4.083
			C172.07,51.615,172.07,52.81,172.07,54.502z"/>
		<path fill-rule="evenodd" clip-rule="evenodd" fill="#828282" d="M190.413,52c-0.248,0.656,0.143,1.259,0.456,1.907
			C189,53.12,189,53.12,190.444,52.013L190.413,52z"/>
		<path fill-rule="evenodd" clip-rule="evenodd" fill="#8F8F8F" d="M148.649,53.493c0.639,0.376,0.359,0.873,0.423,1.324
			c-0.487-0.873-2.184-0.347-2.854-1.008C147.057,53.793,147.904,53.806,148.649,53.493z"/>
		<path fill-rule="evenodd" clip-rule="evenodd" fill="#949494" d="M128.117,51.998c1.317-1.079,2.631-1.11,3.938,0.008
			c-0.181,0.122-0.402,0.192-0.662,0.215c-0.875-0.055-1.751-0.045-2.627,0.006C128.506,52.201,128.292,52.122,128.117,51.998z"/>
		<path fill-rule="evenodd" clip-rule="evenodd" fill="#959595" d="M132.061,53.439c-1.31,1.126-2.626,1.084-3.946,0.008
			c0.176-0.124,0.392-0.201,0.652-0.226c0.877,0.054,1.755,0.063,2.634-0.001C131.663,53.243,131.882,53.317,132.061,53.439z"/>
		<path fill-rule="evenodd" clip-rule="evenodd" fill="#727272" d="M146.236,52.018c0.007,0.604,0.015,1.207,0.022,1.81
			C145.044,53.23,144.069,52.631,146.236,52.018z"/>
		<path fill-rule="evenodd" clip-rule="evenodd" fill="#808080" d="M141.718,53.808c0.592-0.728,0.575-1.455-0.008-2.181
			c2.057,0.532,1.578,1.318,0.528,2.161C142.078,53.941,141.905,53.948,141.718,53.808z"/>
		<path fill-rule="evenodd" clip-rule="evenodd" fill="#919191" d="M109.355,50.703c1.088,0.186,0.749,0.74,0.612,1.15
			c-0.141,0.421-0.707,0.227-1.133,0.135c-0.084-0.061-0.169-0.12-0.255-0.18c-0.211-0.319-0.198-0.63,0.096-0.929
			C108.866,50.767,109.094,50.708,109.355,50.703z"/>
		<path fill-rule="evenodd" clip-rule="evenodd" fill="#727272" d="M175.792,51.493c0.565,0.815,0.585,1.664,0.199,2.729
			C175.118,53.2,175.678,52.351,175.792,51.493z"/>
		<path fill-rule="evenodd" clip-rule="evenodd" fill="#6B6B6B" d="M179.735,52.468c0,0.506,0,1.012,0,1.518
			c-0.44-0.877-1.221-1.754-0.087-2.587C180.125,51.741,179.935,52.104,179.735,52.468z"/>
		<path fill-rule="evenodd" clip-rule="evenodd" fill="#6C6C6C" d="M186.271,51.483c0.391,0.856,0.581,1.706-0.025,2.766
			C185.724,53.181,185.877,52.327,186.271,51.483z"/>
		<path fill-rule="evenodd" clip-rule="evenodd" fill="#898989" d="M139.495,51.624c-0.023,0.594-0.045,1.187-0.068,1.779
			C137.897,52.786,137.973,52.194,139.495,51.624z"/>
		<path fill-rule="evenodd" clip-rule="evenodd" fill="#757575" d="M179.735,52.468c-0.029-0.356-0.058-0.713-0.087-1.069
			c0.898,0.13,1.964-0.497,2.724,0.248l-0.239-0.023l-0.238,0.026C180.715,51.427,180.168,51.885,179.735,52.468z"/>
		<path fill-rule="evenodd" clip-rule="evenodd" fill="#727272" d="M155.347,53.733c0.18-0.608,0.359-1.217,0.54-1.826
			C156.887,52.658,156.824,53.281,155.347,53.733z"/>
		<path fill-rule="evenodd" clip-rule="evenodd" fill="#A1A1A1" d="M190.444,52.013c0.146-1.346,1.529-0.544,2.479-0.492
			c-0.873,0.093-1.788,0.112-2.51,0.479L190.444,52.013z"/>
		<path fill-rule="evenodd" clip-rule="evenodd" fill="#727272" d="M198.966,53.731c0.179-0.607,0.358-1.216,0.538-1.823
			C200.504,52.658,200.441,53.28,198.966,53.731z"/>
		<path fill-rule="evenodd" clip-rule="evenodd" fill="#797979" d="M122.455,53.544c-1.412-0.575-0.586-1.188,0.088-1.805
			c0,0.546,0,1.092,0,1.638L122.455,53.544z"/>
		<path fill-rule="evenodd" clip-rule="evenodd" fill="#858585" d="M114.503,53.806c0.406-0.702-1.186-0.594-1.14-1.15
			c1.007,0.111,2.636-0.155,1.69,1.14C114.877,53.945,114.693,53.949,114.503,53.806z"/>
		<path fill-rule="evenodd" clip-rule="evenodd" fill="#919191" d="M165.293,50.504c0.98-0.284,1.948-0.529,3.027,0.102
			C167.134,50.566,166.214,50.535,165.293,50.504z"/>
		<path fill-rule="evenodd" clip-rule="evenodd" fill="#7B7B7B" d="M128.717,53.444c-0.2,0.001-0.401,0.002-0.602,0.003
			c-0.582-0.483-0.592-0.967,0.002-1.449c0.199,0,0.399,0.002,0.599,0.002C129.357,52.481,129.357,52.962,128.717,53.444z"/>
		<path fill-rule="evenodd" clip-rule="evenodd" fill="#6B6B6B" d="M132.061,53.439c-0.192,0.003-0.383,0.004-0.575,0.007
			c-0.641-0.484-0.64-0.967,0.007-1.447c0.188-0.002,0.375,0.001,0.562,0.007C132.567,52.483,132.567,52.96,132.061,53.439z"/>
		<path fill-rule="evenodd" clip-rule="evenodd" fill="#919191" d="M122.455,53.544c-0.025-0.066,0.003-0.122,0.087-0.167
			c0.797,0.215,1.594,0.43,2.517,0.68C123.912,54.233,122.919,54.403,122.455,53.544z"/>
		<path fill-rule="evenodd" clip-rule="evenodd" fill="#929292" d="M109.355,50.703c-0.063,0.088-0.16,0.155-0.29,0.205
			c-0.858,0.075-1.703,0.109-2.407-0.307c-0.032-0.121-0.064-0.241-0.096-0.361C107.536,50.289,108.731,49.792,109.355,50.703z"/>
		<path fill-rule="evenodd" clip-rule="evenodd" fill="#9C9C9C" d="M106.681,52.788c-0.003-0.16-0.007-0.319-0.009-0.479
			c0.657-0.331,1.336-0.597,2.206-0.31l-0.043-0.012C108.939,53.16,107.436,52.562,106.681,52.788z"/>
		<path fill-rule="evenodd" clip-rule="evenodd" fill="#A0A0A0" d="M114.503,53.806c0.183-0.01,0.367-0.013,0.551-0.011
			c-0.896,0.586-1.804,0.561-2.725,0.025C113.055,53.816,113.779,53.811,114.503,53.806z"/>
		<path fill-rule="evenodd" clip-rule="evenodd" fill="#A9A9A9" d="M141.718,53.808c0.171-0.026,0.344-0.033,0.52-0.02
			c-0.965,0.572-1.912,0.658-2.829-0.043C140.178,53.766,140.948,53.787,141.718,53.808z"/>
		<path fill-rule="evenodd" clip-rule="evenodd" fill="#FDFDFD" d="M146.896,10.285c-0.101,0.797-0.137,1.572-0.6,2.322
			c-0.684,1.108-1.854,1.807-3.769,1.865c-1.966,0.059-3.523-0.435-4.368-1.598c-1.168-1.608-1.229-3.276-0.126-4.901
			c0.817-1.204,2.38-1.923,4.447-1.859c2.111,0.065,3.423,0.921,3.92,2.226C146.643,8.976,146.735,9.635,146.896,10.285z"/>
		<path fill-rule="evenodd" clip-rule="evenodd" fill="#FDFDFD" d="M142.875,40.26c0.004,1.521-1.914,2.752-4.234,2.715
			c-2.146-0.035-3.731-1.137-3.751-2.606c-0.021-1.602,1.78-2.854,4.078-2.838C141.11,37.545,142.871,38.776,142.875,40.26z"/>
		<path fill-rule="evenodd" clip-rule="evenodd" fill="#FDFDFD" d="M127.688,12.108c-0.046,1.485-1.799,2.612-4.074,2.62
			c-2.205,0.007-3.995-1.22-3.942-2.703c0.057-1.567,2.001-2.814,4.272-2.74C126.132,9.356,127.736,10.565,127.688,12.108z"/>
		<path fill-rule="evenodd" clip-rule="evenodd" fill="#FEFEFE" d="M167.208,10.384c-0.184,1.564-0.406,3.024-2.575,3.918
			c-2.821,1.163-6.587,0.256-7.506-1.837c-0.482-1.101-0.605-2.238-0.264-3.398c0.609-2.071,2.09-3.045,4.9-3.089
			c2.852-0.044,4.505,0.864,5.177,2.892C167.114,9.396,167.134,9.942,167.208,10.384z"/>
		<path fill-rule="evenodd" clip-rule="evenodd" fill="#FEFEFE" d="M90.321,38.616c-0.006,3.037-1.839,4.482-5.527,4.357
			c-3.61-0.122-5.48-2.304-4.767-5.559c0.521-2.378,3.102-3.619,6.502-3.128C89.062,34.653,90.326,36.096,90.321,38.616z"/>
		<path fill-rule="evenodd" clip-rule="evenodd" fill="#FBFBFB" d="M182.47,38.178c-0.093,0.002-0.19,0.013-0.279,0.001
			c-1.365-0.188-3.449,0.559-3.983-0.482c-0.527-1.028,0.4-2.246,1.84-3.022c1.525-0.824,3.275-0.815,4.942-0.159
			c1.673,0.659,2.111,1.765,2.3,2.925c0.09,0.551-0.393,0.74-1.177,0.737C184.898,38.172,183.684,38.175,182.47,38.178z"/>
		<path fill-rule="evenodd" clip-rule="evenodd" fill="#EFEFEF" d="M108.877,51.999c-0.657,0.333-1.394,0.429-2.206,0.31
			c-0.004-0.569-0.009-1.139-0.013-1.707c0.862-0.09,1.704-0.117,2.407,0.307C109.002,51.271,108.939,51.635,108.877,51.999z"/>
		<path fill-rule="evenodd" clip-rule="evenodd" fill="#F0F0F0" d="M131.493,51.999c-0.002,0.482-0.004,0.965-0.007,1.447
			c-0.923,0.47-1.846,0.499-2.769-0.002c0-0.481-0.001-0.963-0.001-1.444C129.641,51.496,130.567,51.53,131.493,51.999z"/>
	</g>
</g>
</svg>
