<?xml version="1.0" encoding="utf-8"?>
<!-- Generator: Adobe Illustrator 16.0.0, SVG Export Plug-In . SVG Version: 6.00 Build 0)  -->
<!DOCTYPE svg PUBLIC "-//W3C//DTD SVG 1.1//EN" "http://www.w3.org/Graphics/SVG/1.1/DTD/svg11.dtd">
<svg version="1.1" id="Layer_1" xmlns="http://www.w3.org/2000/svg" xmlns:xlink="http://www.w3.org/1999/xlink" x="0px" y="0px"
	 width="293.334px" height="56.668px" viewBox="0 0 293.334 56.668" enable-background="new 0 0 293.334 56.668"
	 xml:space="preserve">
<rect id="_x3C_Slice_x3E__2_" x="-0.062" y="-0.719" fill="none" width="212" height="30"/>
<rect id="_x3C_Slice_x3E_" x="-0.062" y="-0.719" fill="none" width="221" height="30"/>
<rect id="_x3C_Slice_x3E__1_" x="-5.062" y="53.281" fill="none" width="1" height="1"/>
<g>
	<g>
		<path fill="#FEFBEC" d="M45.914,86.623c0-39.683,0.003-79.365-0.022-119.048c0-0.903,0.203-1.106,1.106-1.106
			c42.571,0.026,85.143,0.022,127.714,0.022c0.455,0.239,0.946,0.117,1.418,0.117c23.459,0.007,46.919,0.005,70.378,0.008
			c1.679,0,1.505-0.164,1.506,1.448c0.005,5.133,0.036,10.266-0.004,15.399c-0.259,33.922-0.036,67.846-0.118,101.768
			c-0.001,0.549,0.139,1.131-0.234,1.633c-42.933,0-85.865,0-128.798,0c-0.455-0.24-0.945-0.117-1.417-0.118
			c-23.37-0.007-46.739-0.005-70.109-0.012C46.861,86.734,46.372,86.851,45.914,86.623z"/>
		<path fill-rule="evenodd" clip-rule="evenodd" fill="#FEFEFE" d="M247.657,86.864c0-33.341-0.07-66.682,0.063-100.021
			c0.024-6.246,0.059-12.499,0.203-18.747c0.026-1.147-0.356-1.386-1.429-1.385c-23.431,0.028-46.861,0.023-70.292,0.012
			c-0.498,0-1.05,0.197-1.491-0.231c24.155,0,48.31,0.005,72.464-0.023c0.824-0.001,0.986,0.162,0.986,0.986
			c-0.026,39.482-0.021,78.964-0.048,118.446C248.114,86.202,248.611,86.939,247.657,86.864z"/>
		<path fill-rule="evenodd" clip-rule="evenodd" fill="#FEFEFE" d="M45.914,86.623c23.818,0,47.637-0.001,71.455,0.009
			c0.498,0.001,1.05-0.196,1.49,0.232c-23.955,0-47.909,0.001-71.864-0.016C46.644,86.848,46.18,87.126,45.914,86.623z"/>
		<path fill-rule="evenodd" clip-rule="evenodd" fill="#99E165" d="M120.099,16.791c0-0.315,0-0.629,0-0.944
			c0.411-0.521,0.007-1.234,0.414-1.756c0.236-2.173,1.29-3.949,2.751-5.5c4.582-4.862,10.522-6.87,16.891-7.871
			c5.512-0.866,11.003-0.687,16.445,0.668c4.905,1.222,9.463,3.151,13.022,6.832c1.535,1.587,3.005,3.395,2.954,5.868
			c0.405,0.523,0.003,1.236,0.414,1.758c-0.002,0.315-0.003,0.63-0.004,0.944c-0.259,0.286-0.19,0.641-0.205,0.978
			c-1.162,5.253-4.907,8.222-9.433,10.339c-9.322,4.361-18.989,4.666-28.77,1.868c-4.473-1.279-8.585-3.378-11.671-7.026
			c-1.193-1.41-2.215-2.964-2.402-4.896C120.187,17.692,120.434,17.147,120.099,16.791z"/>
		<path fill-rule="evenodd" clip-rule="evenodd" fill="#9C705F" d="M159.796,52.958c0.965-0.146,1.326-0.695,1.249-1.667
			c-0.072-0.917-0.015-1.844-0.028-2.767c-0.021-1.407-0.7-2.07-2.129-2.093c-0.525-0.009-1.024,0.103-1.535,0.231
			c-0.826,0.208-1.171,0.606-1.127,1.51c0.073,1.479-0.001,2.966-0.014,4.45c0.153,0.258,0.409,0.161,0.629,0.177
			c1.066,0.073,1.142,0.199,0.759,1.29c-2.395-0.001-4.79-0.001-7.186-0.002c-0.32-0.378-0.323-0.755,0.002-1.132
			c1.221-0.13,1.704-0.827,1.644-2.027c-0.049-0.96-0.075-1.931,0.014-2.885c0.087-0.933-0.175-1.336-1.155-1.209
			c-0.318,0.042-0.823,0.196-0.949-0.245c-0.142-0.497-0.351-1.17,0.629-1.142c1.412,0.04,2.78-0.271,4.159-0.53
			c0.529-0.1,1.237-0.49,1.535,0.548c0.138,0.482,0.71,0.025,1.04-0.092c1.735-0.616,3.617-1.145,5.263-0.329
			c1.668,0.827,3.044,0.433,4.579-0.019c1.528-0.448,3.094-0.406,4.634-0.014c1.447,0.369,2.512,1.385,2.473,3.031
			c-0.03,1.243,0.035,2.488-0.021,3.729c-0.031,0.705,0.119,1.068,0.903,0.969c0.538-0.067,1.026-0.092,1.005,0.744
			c-0.021,0.819-0.557,0.628-0.995,0.631c-2.164,0.012-4.329,0.005-6.496,0.005c-0.12-0.717,0.017-1.212,0.809-1.368
			c0.564-0.112,0.548-0.66,0.569-1.069c0.053-1,0.053-2.005,0.029-3.006c-0.037-1.585-0.689-2.195-2.285-2.254
			c-0.863-0.032-1.652,0.233-2.449,0.498c-0.378,0.296-0.293,0.624-0.069,0.963c0.001,1.354,0.002,2.707,0.003,4.061
			c-0.446,0.974,0.267,0.893,0.817,0.844c1.085-0.095,1.229,0.406,0.891,1.274c-2.398,0.007-4.797,0.014-7.196,0.02
			C159.484,53.708,159.483,53.333,159.796,52.958z"/>
		<path fill-rule="evenodd" clip-rule="evenodd" fill="#9C705F" d="M63.261,41.399c3.92,0.021,7.848-0.271,11.756,0.215
			c1.462,0.183,2.885,0.512,4.11,1.447c0.583,0.444,0.916,0.962,1.006,1.666c0.255,0.405,0.256,0.811-0.002,1.216
			c-0.238,1.275-1.222,1.874-2.249,2.38c-2.282,1.123-4.745,1.312-7.229,1.205c-1.062-0.046-1.48,0.298-1.308,1.35
			c0.038,0.233,0.038,0.484-0.006,0.716c-0.174,0.916,0.209,1.236,1.1,1.128c0.392-0.047,0.796,0.008,1.194,0.017
			c0.399,0.446,0.366,0.897,0.018,1.354c-2.804,0.171-5.596-0.089-8.391-0.248c-0.317-0.376-0.315-0.753-0.001-1.131
			c1.396-0.006,1.828-0.436,1.842-1.913c0.027-2.643,0.029-5.285,0.042-7.929c-0.313-0.365-0.729-0.159-1.096-0.178
			C62.978,42.635,62.891,42.509,63.261,41.399z"/>
		<path fill-rule="evenodd" clip-rule="evenodd" fill="#9C705F" d="M124.127,54.1c-2.548,0-5.097,0-7.645,0
			c-0.336-0.387-0.342-0.772,0.004-1.156c1.159-0.005,1.771-0.498,1.683-1.746c-0.064-0.915-0.003-1.838-0.03-2.756
			c-0.035-1.224-0.662-1.872-1.888-2.009c-0.851-0.096-1.677,0.053-2.477,0.305c-0.603,0.19-0.968,0.556-0.928,1.309
			c0.068,1.275,0.05,2.559-0.005,3.835c-0.03,0.691,0.189,0.939,0.876,0.863c0.512-0.058,1.045-0.139,1.033,0.713
			c-0.013,0.902-0.631,0.654-1.09,0.656c-2.117,0.006-4.234-0.018-6.352-0.03c-0.305-0.375-0.306-0.749,0-1.123
			c0.969-0.093,1.368-0.646,1.333-1.594c-0.055-1.495,0.2-2.998-0.119-4.486c-0.291-0.171-0.612-0.089-0.92-0.103
			c-1.058-0.046-1.149-0.2-0.754-1.298c1.482-0.031,2.944-0.169,4.393-0.537c0.562-0.143,1.336-0.491,1.653,0.546
			c0.146,0.476,0.531,0.058,0.796-0.029c1.884-0.623,3.785-0.962,5.769-0.517c1.605,0.361,2.997,1.234,2.973,3.406
			c-0.01,0.921,0.008,1.841,0.004,2.762c-0.006,1.626-0.009,1.626,1.654,1.622C124.535,53.177,124.477,53.634,124.127,54.1z"/>
		<path fill-rule="evenodd" clip-rule="evenodd" fill="#9C705F" d="M209.34,47.649c-0.002,1.514-0.003,3.026-0.005,4.539
			c-0.251,0.793,0.362,0.586,0.729,0.607c1.195,0.069,1.196,0.06,0.987,1.269c-2.554,0.016-5.107,0.03-7.661,0.046
			c-0.336-0.394-0.342-0.786,0.006-1.177c0.568-0.066,1.24,0.071,1.439-0.728c0.341-1.451,0.334-2.902,0.004-4.354
			c-0.082-1.027-0.87-1.261-1.667-1.397c-0.463-0.079-0.963-0.039-1.432,0.038c-1.895,0.312-1.916,0.354-1.918,2.283
			c-0.001,1.001,0.033,2.003-0.027,3c-0.043,0.704,0.115,1.07,0.9,0.966c0.541-0.072,1.019-0.09,1,0.741
			c-0.019,0.816-0.547,0.634-0.987,0.634c-2.24-0.001-4.479-0.019-6.72-0.029c-0.321-0.378-0.323-0.755,0.001-1.132
			c1.211-0.038,1.649-0.742,1.637-1.865c-0.013-1.08-0.049-2.163,0.021-3.238c0.052-0.779-0.17-1.104-0.979-1.012
			c-0.465,0.053-0.954,0.113-0.981-0.659c-0.029-0.857,0.516-0.728,1.022-0.734c1.122-0.018,2.209-0.258,3.309-0.458
			c0.624-0.114,1.465-0.708,1.858,0.504c0.14,0.43,0.66,0.037,0.948-0.073c1.925-0.732,3.89-0.923,5.879-0.399
			c0.989,0.261,2.026,0.587,2.222,1.854C209.125,47.1,209.15,47.418,209.34,47.649z"/>
		<path fill-rule="evenodd" clip-rule="evenodd" fill="#9D705F" d="M133.83,47.371c-0.379-1.251-2.666-1.89-3.667-1.014
			c-0.102,0.089-0.211,0.287-0.179,0.393c0.297,0.973-0.306,1.311-1.062,1.497c-0.973,0.241-1.958,0.189-2.667-0.575
			c-0.414-0.447-0.221-0.999,0.282-1.439c1.118-0.978,2.489-1.17,3.87-1.348c2.036-0.261,4.053-0.297,5.99,0.562
			c0.762,0.338,1.267,0.881,1.514,1.671c0.425,1.77,0.133,3.562,0.162,5.344c0.51,0.484,1.137,0.109,1.696,0.232
			c0.361,0.474,0.405,0.94-0.03,1.396c-1.831-0.124-3.68,0.243-5.499-0.201c-0.195-0.204-0.386-0.42-0.714-0.262
			c-1.878,0.645-3.786,1.036-5.758,0.507c-0.752-0.202-1.531-0.38-1.937-1.224c-0.516-1.073-0.262-2.164,0.766-2.776
			c1.443-0.86,3.061-1.109,4.69-1.301c0.834-0.099,1.672-0.163,2.509-0.243C134.122,48.192,134.097,47.785,133.83,47.371z"/>
		<path fill-rule="evenodd" clip-rule="evenodd" fill="#9C705F" d="M191.54,49.28c-2.888,0.01-5.775,0.014-8.663,0.029
			c-0.94,0.006-1.205,0.407-0.832,1.242c0.479,1.074,1.24,1.825,2.442,2.021c1.86,0.303,3.666,0.176,5.361-0.74
			c0.175-0.095,0.35-0.191,0.532-0.266c0.524-0.215,0.891,0.206,1.119,0.479c0.371,0.442-0.23,0.597-0.479,0.743
			c-3.286,1.937-6.75,1.989-10.292,0.867c-1.026-0.326-1.837-0.938-2.554-1.816c-1.601-1.966-0.827-3.854,0.646-5.196
			c2.698-2.456,8.601-2.659,11.594-0.523c0.674,0.48,0.943,1.213,1.18,1.961C191.838,48.493,191.886,48.895,191.54,49.28z"/>
		<path fill-rule="evenodd" clip-rule="evenodd" fill="#9C705F" d="M90.652,49.061c0.762-2.851,3.038-3.812,5.575-4.231
			c2.312-0.381,4.65-0.243,6.788,0.89c1.077,0.57,1.829,1.424,1.958,2.747c0.073,0.74-0.189,0.86-0.843,0.854
			c-2.686-0.03-5.372-0.017-8.059-0.011c-1.157,0.002-1.339,0.39-0.777,1.432c1.08,2.001,2.703,2.121,5.326,1.887
			c0.907-0.081,1.814-0.364,2.589-0.871c0.355-0.231,0.625-0.305,0.972-0.097c0.26,0.156,0.675,0.148,0.731,0.522
			c0.064,0.424-0.372,0.486-0.622,0.627c-2.574,1.442-5.332,1.824-8.228,1.391c-1.438-0.215-2.78-0.634-3.933-1.571
			c-0.836-0.681-1.292-1.555-1.48-2.594C90.436,49.709,90.436,49.385,90.652,49.061z"/>
		<path fill-rule="evenodd" clip-rule="evenodd" fill="#9C705F" d="M238.726,49.28c-2.885,0.01-5.769,0.014-8.653,0.029
			c-0.981,0.006-1.206,0.434-0.796,1.338c0.563,1.24,1.539,1.87,2.854,2.008c1.824,0.19,3.613,0.034,5.213-0.933
			c0.617-0.372,1.053-0.151,1.329,0.259c0.335,0.498-0.149,0.75-0.557,0.952c-3.729,1.853-7.507,2.058-11.268,0.17
			c-1.192-0.599-2.064-1.592-2.103-3.068c-0.215-0.325-0.215-0.649,0.002-0.974c0.169-1.76,1.383-2.747,2.801-3.391
			c3.017-1.369,6.129-1.396,9.19-0.108c1.073,0.451,2.006,1.158,2.041,2.52C239.024,48.493,239.071,48.895,238.726,49.28z"/>
		<path fill-rule="evenodd" clip-rule="evenodd" fill="#9D705F" d="M88.978,54.102c-2.286,0.006-4.571,0.019-6.857,0.014
			c-0.36-0.001-0.837,0.165-0.876-0.497c-0.031-0.524,0.193-0.659,0.679-0.74c0.767-0.128,1.091-0.638,1.083-1.448
			c-0.028-2.728-0.037-5.455,0.019-8.182c0.015-0.764-0.211-1.003-0.941-0.934c-0.502,0.049-1.052,0.146-1.025-0.718
			c0.024-0.778,0.516-0.695,0.982-0.672c1.419,0.071,2.776-0.32,4.158-0.525c0.798-0.118,1.122,0.136,1.107,1.023
			c-0.053,3.207-0.017,6.417-0.023,9.625c-0.003,1.695-0.011,1.695,1.657,1.68C89.387,53.174,89.329,53.634,88.978,54.102z"/>
		<path fill-rule="evenodd" clip-rule="evenodd" fill="#9C705F" d="M221.89,46.377c-0.92,0.014-1.841,0.063-2.759,0.028
			c-0.645-0.023-0.83,0.229-0.813,0.841c0.034,1.2-0.014,2.401,0.01,3.603c0.025,1.339,0.486,1.769,1.823,1.825
			c0.707,0.029,1.41-0.119,1.934-0.521c0.864-0.663,1.488-0.423,2.118,0.268c-1.725,2.172-6.82,2.371-8.672,1.285
			c-1.19-0.698-1.597-2.052-1.485-3.601c0.072-0.995,0.079-1.997,0.073-2.995c-0.004-0.618-0.504-0.622-0.949-0.648
			c-0.458-0.027-0.959,0.123-1.002-0.658c-0.039-0.724,0.352-0.858,0.899-0.973c1.042-0.216,2-0.734,2.611-1.542
			c0.637-0.841,1.391-0.625,2.14-0.608c0.787,0.017,0.539,0.697,0.501,1.1c-0.088,0.923,0.187,1.313,1.175,1.213
			c0.79-0.08,1.597,0.007,2.396,0.021C222.226,45.468,222.227,45.923,221.89,46.377z"/>
		<path fill-rule="evenodd" clip-rule="evenodd" fill="#9D705F" d="M143.921,47.336c0.008-2.32-1.292-4.041-2.606-5.768
			c-0.173-0.229-0.85-0.32-0.417-0.782c0.311-0.332,0.743-0.52,1.278-0.193c1.451,0.887,2.763,1.954,3.855,3.233
			c0.876,1.024,1.669,2.157,1.985,3.526c0.201,0.225,0.223,0.543,0.407,0.775c0.001,0.948,0.001,1.896,0.002,2.843
			c-0.188,0.232-0.213,0.55-0.403,0.781c-0.565,2.154-1.952,3.755-3.52,5.239c-0.719,0.681-1.547,1.198-2.371,1.734
			c-0.453,0.294-0.858,0.304-1.175-0.047c-0.425-0.47,0.064-0.713,0.34-1.049c1.405-1.709,2.679-3.491,2.63-5.859
			c0.378-0.436,0.045-1.069,0.418-1.506c0-0.478-0.001-0.955-0.001-1.433C143.969,48.4,144.311,47.765,143.921,47.336z"/>
		<path fill-rule="evenodd" clip-rule="evenodd" fill="#9D705F" d="M57.916,52.213c0.526,1.941,1.197,3.807,2.705,5.241
			c0.285,0.271,0.68,0.549,0.287,0.98c-0.292,0.321-0.676,0.362-1.083,0.119c-2.591-1.552-4.807-3.584-5.855-6.393
			c-0.75-2.009-0.713-4.213,0.602-6.291c1.337-2.111,2.974-3.808,5.038-5.166c0.479-0.315,0.905-0.449,1.27-0.043
			c0.493,0.549-0.115,0.782-0.427,1.118c-1.285,1.383-1.95,3.098-2.481,4.864c-0.377,1.254-0.69,2.528-0.456,3.86
			c0.142,0.185,0.192,0.397,0.191,0.626C57.732,51.5,57.633,51.894,57.916,52.213z"/>
		<path fill-rule="evenodd" clip-rule="evenodd" fill="#D2BCAC" d="M138.074,52.461c-0.406-1.771-0.069-3.563-0.162-5.344
			c0.127,0.086,0.363,0.168,0.365,0.258C138.331,49.075,138.659,50.788,138.074,52.461z"/>
		<path fill-rule="evenodd" clip-rule="evenodd" fill="#B49282" d="M204.84,47.852c0.32,0.067,0.449,0.276,0.448,0.592
			c-0.002,1.059,0,2.118,0.004,3.178c0.001,0.317-0.138,0.52-0.456,0.584C204.837,50.754,204.839,49.303,204.84,47.852z"/>
		<path fill-rule="evenodd" clip-rule="evenodd" fill="#AF8C7B" d="M166.991,54.064c0.182-1.011-0.342-1.237-1.222-1.146
			c-0.325,0.034-0.759,0.121-0.887-0.369c-0.086-0.326,0.065-0.535,0.4-0.604c-0.025,0.598,0.253,0.824,0.849,0.761
			C167.301,52.583,167.489,53.115,166.991,54.064z"/>
		<path fill-rule="evenodd" clip-rule="evenodd" fill="#B69584" d="M63.261,41.399c-0.13,0.821,0.086,1.315,1.053,1.186
			c0.296-0.041,0.65-0.085,0.83,0.286c-0.557-0.019-1.115-0.032-1.672-0.059c-0.317-0.015-0.709-0.005-0.681-0.46
			C62.813,41.995,62.466,41.394,63.261,41.399z"/>
		<path fill-rule="evenodd" clip-rule="evenodd" fill="#AB8675" d="M211.052,54.064c0.181-1.012-0.347-1.232-1.225-1.147
			c-0.312,0.03-0.769,0.162-0.869-0.36c-0.048-0.252,0.181-0.315,0.377-0.368c0.044,0.565,0.445,0.555,0.85,0.519
			C211.351,52.603,211.559,53.103,211.052,54.064z"/>
		<path fill-rule="evenodd" clip-rule="evenodd" fill="#D3BFAE" d="M106.848,45.48c-0.446,1.667,1.075,0.982,1.674,1.4
			c-0.478,0.013-0.957,0.039-1.435,0.032c-0.319-0.004-0.699-0.019-0.715-0.45C106.357,46.078,106.108,45.521,106.848,45.48z"/>
		<path fill-rule="evenodd" clip-rule="evenodd" fill="#C2A595" d="M157.6,54.089c0.454-1.355-0.901-1-1.388-1.467
			c0.395,0.017,0.789,0.029,1.184,0.052c0.32,0.018,0.694,0.024,0.681,0.464C158.064,53.504,158.369,54.084,157.6,54.089z"/>
		<path fill-rule="evenodd" clip-rule="evenodd" fill="#A3E372" d="M120.514,14.091c-0.091,0.597,0.397,1.33-0.414,1.756
			C120.176,15.247,119.736,14.525,120.514,14.091z"/>
		<path fill-rule="evenodd" clip-rule="evenodd" fill="#A3E372" d="M172.991,15.847c-0.812-0.427-0.324-1.16-0.414-1.757
			C173.355,14.524,172.913,15.247,172.991,15.847z"/>
		<path fill-rule="evenodd" clip-rule="evenodd" fill="#AB8575" d="M221.89,46.377c0-0.455,0-0.91,0-1.364
			C222.582,45.463,222.582,45.925,221.89,46.377z"/>
		<path fill-rule="evenodd" clip-rule="evenodd" fill="#F0E5D6" d="M139.741,54.09c0.01-0.466,0.02-0.931,0.03-1.396
			C140.5,53.25,140.493,53.595,139.741,54.09z"/>
		<path fill-rule="evenodd" clip-rule="evenodd" fill="#F0E7D8" d="M144.344,50.265c-0.058,0.524,0.299,1.164-0.418,1.506
			C144.011,51.253,143.54,50.583,144.344,50.265z"/>
		<path fill-rule="evenodd" clip-rule="evenodd" fill="#EEE4D5" d="M143.921,47.336c0.715,0.337,0.37,0.973,0.422,1.496
			C143.544,48.52,144.007,47.85,143.921,47.336z"/>
		<path fill-rule="evenodd" clip-rule="evenodd" fill="#DCCABA" d="M124.127,54.1c-0.012-0.456-0.024-0.911-0.036-1.367
			C124.847,53.19,124.857,53.565,124.127,54.1z"/>
		<path fill-rule="evenodd" clip-rule="evenodd" fill="#C8AF9E" d="M71.651,54.091c-0.006-0.451-0.012-0.902-0.018-1.354
			C72.364,53.195,72.369,53.601,71.651,54.091z"/>
		<path fill-rule="evenodd" clip-rule="evenodd" fill="#E0D1C1" d="M88.978,54.102c-0.012-0.458-0.024-0.916-0.037-1.374
			C89.698,53.191,89.708,53.558,88.978,54.102z"/>
		<path fill-rule="evenodd" clip-rule="evenodd" fill="#F6F0E0" d="M203.396,52.933c-0.002,0.393-0.004,0.784-0.006,1.177
			C202.587,53.713,202.581,53.322,203.396,52.933z"/>
		<path fill-rule="evenodd" clip-rule="evenodd" fill="#BD9E8E" d="M193.99,52.956c0,0.378-0.001,0.755-0.001,1.132
			c-0.456,0.068-0.498-0.223-0.498-0.562C193.491,53.184,193.54,52.897,193.99,52.956z"/>
		<path fill-rule="evenodd" clip-rule="evenodd" fill="#B49282" d="M63.26,52.712c0,0.377,0,0.754,0.001,1.131
			c-0.472,0.081-0.492-0.229-0.493-0.563C62.768,52.945,62.79,52.636,63.26,52.712z"/>
		<path fill-rule="evenodd" clip-rule="evenodd" fill="#AD8978" d="M159.796,52.958c0,0.376-0.001,0.751-0.001,1.126
			c-0.48,0.092-0.489-0.228-0.489-0.559C159.305,53.192,159.319,52.876,159.796,52.958z"/>
		<path fill-rule="evenodd" clip-rule="evenodd" fill="#CFB8A8" d="M238.726,49.28c0.018-0.399,0.036-0.799,0.054-1.198
			C239.403,48.51,239.581,48.918,238.726,49.28z"/>
		<path fill-rule="evenodd" clip-rule="evenodd" fill="#CFB8A8" d="M191.54,49.28c0.018-0.399,0.036-0.799,0.054-1.198
			C192.218,48.51,192.396,48.918,191.54,49.28z"/>
		<path fill-rule="evenodd" clip-rule="evenodd" fill="#B08C7B" d="M133.83,47.371c0.68,0.425,0.729,0.833-0.032,1.22
			C133.808,48.184,133.818,47.778,133.83,47.371z"/>
		<path fill-rule="evenodd" clip-rule="evenodd" fill="#EEE4D5" d="M80.132,45.943c0-0.405,0.001-0.811,0.002-1.216
			C80.841,45.133,80.842,45.539,80.132,45.943z"/>
		<path fill-rule="evenodd" clip-rule="evenodd" fill="#A47B6A" d="M107.308,52.96c0,0.374,0,0.748,0,1.123
			c-0.495,0.104-0.486-0.229-0.486-0.558C106.823,53.197,106.817,52.866,107.308,52.96z"/>
		<path fill-rule="evenodd" clip-rule="evenodd" fill="#BD9E8E" d="M150.416,52.956c-0.001,0.378-0.001,0.755-0.002,1.132
			c-0.455,0.068-0.498-0.223-0.498-0.562C149.916,53.184,149.965,52.897,150.416,52.956z"/>
		<path fill-rule="evenodd" clip-rule="evenodd" fill="#DECEBE" d="M116.486,52.944c-0.001,0.385-0.003,0.771-0.004,1.156
			C115.713,53.712,115.711,53.327,116.486,52.944z"/>
		<path fill-rule="evenodd" clip-rule="evenodd" fill="#BCEA94" d="M120.099,16.791c0.701,0.238,0.381,0.806,0.409,1.263
			C119.822,17.81,120.107,17.253,120.099,16.791z"/>
		<path fill-rule="evenodd" clip-rule="evenodd" fill="#BFA392" d="M57.916,52.213c-0.592-0.147-0.443-0.604-0.418-1.007
			c0.166-0.114,0.312-0.118,0.425,0.073C57.92,51.591,57.918,51.903,57.916,52.213z"/>
		<path fill-rule="evenodd" clip-rule="evenodd" fill="#F2E9DA" d="M224.747,49.061c-0.001,0.324-0.001,0.649-0.002,0.974
			C224.113,49.709,224.113,49.385,224.747,49.061z"/>
		<path fill-rule="evenodd" clip-rule="evenodd" fill="#F2E9DA" d="M90.652,49.061c0,0.324-0.001,0.649-0.001,0.974
			C90.019,49.709,90.019,49.385,90.652,49.061z"/>
		<path fill-rule="evenodd" clip-rule="evenodd" fill="#B8E98F" d="M172.782,17.769c-0.343-0.413-0.39-0.763,0.205-0.978
			C173.016,17.138,173.15,17.506,172.782,17.769z"/>
		<path fill-rule="evenodd" clip-rule="evenodd" fill="#C2A695" d="M165.28,47.885c-0.331-0.06-0.456-0.274-0.429-0.59
			c0.026-0.303,0.244-0.366,0.498-0.373C165.327,47.244,165.304,47.564,165.28,47.885z"/>
		<path fill-rule="evenodd" clip-rule="evenodd" fill="#CAB0A0" d="M209.34,47.649c-0.457-0.088-0.47-0.412-0.414-0.774
			C209.38,46.964,209.423,47.273,209.34,47.649z"/>
		<path fill-rule="evenodd" clip-rule="evenodd" fill="#C2A595" d="M148.423,48.128c-0.471-0.082-0.461-0.417-0.407-0.775
			C148.457,47.451,148.509,47.753,148.423,48.128z"/>
		<path fill-rule="evenodd" clip-rule="evenodd" fill="#F1E8D9" d="M57.923,51.28c-0.142-0.024-0.284-0.049-0.425-0.073
			c0.006-0.234,0.012-0.469,0.018-0.702C58,50.58,57.962,50.929,57.923,51.28z"/>
		<path fill-rule="evenodd" clip-rule="evenodd" fill="#BE9F8F" d="M148.021,51.752c-0.06-0.36-0.071-0.696,0.403-0.781
			C148.5,51.34,148.476,51.658,148.021,51.752z"/>
		<path fill-rule="evenodd" clip-rule="evenodd" fill="#E7DBCB" d="M133.528,53.627c0.42-0.407,0.688-0.403,0.714,0.262
			C134.004,53.802,133.766,53.714,133.528,53.627z"/>
		<path fill-rule="evenodd" clip-rule="evenodd" fill="#FEFBEC" d="M171.078,13.449c0.322,1.676,0.32,3.352-0.001,5.028
			c-0.214,0.213-0.226,0.543-0.438,0.757c-1.11,3.087-3.348,5.221-6.068,6.833c-7.674,4.548-15.972,5.449-24.65,4.062
			c-4.193-0.671-8.126-1.995-11.686-4.333c-2.371-1.557-4.49-3.458-5.626-6.069c-1.254-2.88-1.111-5.819,0.675-8.569
			c3.502-5.393,8.874-7.717,14.833-9.021c7.156-1.565,14.225-1.216,21.173,1.193c3.511,1.217,6.657,3.012,9.182,5.761
			c0.95,1.034,1.777,2.197,2.172,3.594C170.849,12.907,170.863,13.235,171.078,13.449z"/>
		<path fill-rule="evenodd" clip-rule="evenodd" fill="#D4F1B4" d="M170.64,19.235c-0.048-0.364-0.012-0.681,0.438-0.757
			C171.139,18.85,171.084,19.155,170.64,19.235z"/>
		<path fill-rule="evenodd" clip-rule="evenodd" fill="#D8F1B9" d="M171.078,13.449c-0.456-0.077-0.486-0.396-0.435-0.762
			C171.093,12.768,171.136,13.08,171.078,13.449z"/>
		<path fill-rule="evenodd" clip-rule="evenodd" fill="#FDFAEB" d="M75.324,46.205c-0.215,0.772-0.724,1.276-1.453,1.57
			c-0.259,0.104-0.523,0.253-0.79,0.266c-1.209,0.055-2.951,0.887-3.495-0.169c-0.695-1.348-0.442-3.176,0.219-4.736
			c0.043-0.103,0.139-0.195,0.231-0.263c1.238-0.902,4.605,0.115,5.286,1.594C75.61,45.045,75.608,45.625,75.324,46.205z"/>
		<path fill-rule="evenodd" clip-rule="evenodd" fill="#C9AFA0" d="M75.324,46.205c0-0.579-0.001-1.159-0.002-1.738
			C76.04,45.045,76.041,45.625,75.324,46.205z"/>
		<path fill-rule="evenodd" clip-rule="evenodd" fill="#FDFAEB" d="M133.793,51.958c-0.92,0.59-1.921,0.695-2.979,0.518
			c-0.47-0.079-0.861-0.203-0.877-0.777c-0.014-0.478,0.134-0.828,0.62-1.036c1.038-0.444,2.097-0.735,3.238-0.637
			C134.133,50.67,134.135,51.315,133.793,51.958z"/>
		<path fill-rule="evenodd" clip-rule="evenodd" fill="#A98271" d="M133.793,51.958c0-0.645,0.001-1.288,0.001-1.933
			C134.554,50.67,134.555,51.315,133.793,51.958z"/>
		<path fill-rule="evenodd" clip-rule="evenodd" fill="#FDF9EB" d="M182.202,48.097c0.704-2.063,2.907-2.806,4.632-1.703
			c0.524,0.336,0.663,0.819,0.604,1.319c-0.079,0.681-0.69,0.356-1.056,0.367C185.03,48.122,183.676,48.097,182.202,48.097z"/>
		<path fill-rule="evenodd" clip-rule="evenodd" fill="#FDFAEB" d="M95.276,48.096c0.423-1.383,1.306-2.009,2.539-2.13
			c1.056-0.104,2.044,0.021,2.709,1.049c0.19,0.293,0.337,0.545,0.23,0.859c-0.123,0.361-0.474,0.212-0.723,0.215
			C98.481,48.104,96.931,48.096,95.276,48.096z"/>
		<path fill-rule="evenodd" clip-rule="evenodd" fill="#FDF9EB" d="M229.424,48.095c0.184-1.454,1.146-1.954,2.303-2.113
			c1.131-0.155,2.237-0.053,2.924,1.088c0.298,0.494,0.577,1.001-0.355,1.018C232.673,48.116,231.05,48.095,229.424,48.095z"/>
		<path fill-rule="evenodd" clip-rule="evenodd" fill="#98E165" d="M139.52,23.792c0.023,0.232,0.046,0.464,0.07,0.696
			c0.163,0.253,0.179,0.499-0.036,0.734c-0.889-0.098-0.532-1.015-0.941-1.429c0.063-0.886-0.204-1.796,0.194-2.658
			c0.049-1.838,1.21-3.207,1.996-4.734c0.275-0.741,0.911-1.109,1.535-1.491c0.294-0.19,0.592-0.375,0.893-0.556
			c1.496-0.789,3.07-1.253,4.779-1.148c4.084-0.495,8.253-0.213,12.266-1.372c0.97-0.28,1.176-0.002,0.807,1.101
			c-1.278,3.817-3.767,6.369-7.705,7.511c-2.606,0.756-5.285,0.852-7.944,1.146c-0.996,0.11-1.982,0.232-2.96,0.451
			c-0.337,0.075-0.766,0.187-0.946-0.245c-0.14-0.337-0.02-0.646,0.23-0.978c1.103-1.465,2.608-2.281,4.298-2.834
			c0.115-0.167,0.28-0.27,0.462-0.351c-0.151,0.037-0.302,0.076-0.458,0.082c-2.155,0.312-4.013,1.173-5.472,2.846
			c-0.34,0.39-0.485,0.805-0.564,1.279c-0.213,0.214-0.228,0.542-0.433,0.76c-0.021,0.154-0.042,0.307-0.063,0.461
			C139.318,23.304,139.317,23.547,139.52,23.792z"/>
		<path fill-rule="evenodd" clip-rule="evenodd" fill="#99E165" d="M140.526,15.575c-1.746-0.66-3.465-1.337-4.871-2.654
			c-1.288-1.207-1.778-2.835-2.506-4.339c-0.19-0.394,0.189-0.509,0.469-0.427c4.323,1.258,8.945,0.521,13.226,1.958
			c1.543,0.519,3.156,1.015,4.446,2.286c-1.413,0.209-2.709,0.401-4.005,0.593c-1.003,0.567-1.858-0.095-2.762-0.332
			c-0.499-0.251-1.054-0.271-1.379-0.326c0.17-0.039,0.527,0.091,0.898,0.159c0.229,0.063,0.438,0.179,0.67,0.233
			c0.285,0.065,0.531,0.195,0.495,0.549c-0.032,0.318-0.266,0.52-0.534,0.565c-0.639,0.108-1.196,0.379-1.732,0.717
			c-0.321,0.159-0.624,0.35-0.924,0.544C141.486,15.151,141.269,16.19,140.526,15.575z"/>
		<path fill-rule="evenodd" clip-rule="evenodd" fill="#F4F9DE" d="M144.392,12.468c0.985,0.056,1.878,0.625,2.893,0.523
			c0.19,0.248,0.474,0.181,0.727,0.215c-1.644,0.362-3.285,0.734-4.826,1.439c-0.265,0.156-0.466,0.176-0.478-0.219
			c0.412-0.389,0.943-0.54,1.456-0.728c0.308-0.113,0.839-0.016,0.821-0.467c-0.016-0.413-0.573-0.282-0.856-0.459
			c-0.064-0.041-0.149-0.047-0.225-0.069C143.892,12.261,144.125,12.331,144.392,12.468z"/>
		<path fill-rule="evenodd" clip-rule="evenodd" fill="#EFF7D7" d="M138.808,21.135c-0.066,0.886,0.248,1.799-0.194,2.658
			C138.317,22.88,137.978,21.965,138.808,21.135z"/>
		<path fill-rule="evenodd" clip-rule="evenodd" fill="#FEFBEC" d="M140.526,15.575c0.678,0.178,0.858-0.676,1.441-0.696
			c0.28-0.164,0.482-0.17,0.481,0.237c-0.548,0.429-1.096,0.857-1.644,1.286C140.711,16.125,140.619,15.85,140.526,15.575z"/>
		<path fill-rule="evenodd" clip-rule="evenodd" fill="#EBF6D3" d="M146.06,17.717c0.39-0.229,0.777-0.483,1.431-0.102
			c-0.586,0.152-1.011,0.262-1.435,0.372C146.058,17.896,146.059,17.807,146.06,17.717z"/>
		<path fill-rule="evenodd" clip-rule="evenodd" fill="#C8EDA4" d="M139.554,25.222c0.012-0.245,0.024-0.489,0.036-0.734
			c0.242,0.066,0.465,0.156,0.417,0.472C139.966,25.227,139.756,25.222,139.554,25.222z"/>
		<path fill-rule="evenodd" clip-rule="evenodd" fill="#A1E370" d="M139.52,23.792c-0.184-0.039-0.371-0.082-0.396-0.313
			c-0.033-0.296,0.171-0.372,0.404-0.415C139.525,23.306,139.522,23.549,139.52,23.792z"/>
		<path fill-rule="evenodd" clip-rule="evenodd" fill="#D1F0B0" d="M139.591,22.603c-0.064-0.372-0.015-0.68,0.433-0.76
			C140.073,22.206,140.041,22.523,139.591,22.603z"/>
		<path fill-rule="evenodd" clip-rule="evenodd" fill="#E9F6CF" d="M142.448,15.115c-0.106-0.188-0.287-0.228-0.481-0.237
			c0.173-0.271,0.469-0.342,0.74-0.453c0.159,0.073,0.318,0.146,0.478,0.219C142.938,14.802,142.693,14.958,142.448,15.115z"/>
		<path fill-rule="evenodd" clip-rule="evenodd" fill="#CEEFAB" d="M148.329,17.064c0.14,0.044,0.306,0.051,0.198,0.219
			c-0.054,0.084-0.179,0.156-0.278,0.167c-0.13,0.014-0.236-0.093-0.168-0.224C148.124,17.145,148.257,17.109,148.329,17.064z"/>
		<path fill-rule="evenodd" clip-rule="evenodd" fill="#EDF7D5" d="M144.392,12.468c-0.193,0.015-0.378,0.047-0.489,0.234
			c-0.405-0.109-0.809-0.217-1.214-0.326C143.27,12.24,143.845,12.126,144.392,12.468z"/>
	</g>
</g>
<path fill="#FFFFFF" d="M83.667,20.333c-6.449,0-6.449,10,0,10S90.116,20.333,83.667,20.333z"/>
<path fill="#FFFFFF" d="M206.667,21.833c-6.448,0-6.448,10,0,10S213.115,21.833,206.667,21.833z"/>
<path fill="#FFFFFF" d="M278.667,24.333c-6.448,0-6.448,10,0,10S285.115,24.333,278.667,24.333z"/>
</svg>
