<?xml version="1.0" encoding="utf-8"?>
<!-- Generator: Adobe Illustrator 16.0.0, SVG Export Plug-In . SVG Version: 6.00 Build 0)  -->
<!DOCTYPE svg PUBLIC "-//W3C//DTD SVG 1.1//EN" "http://www.w3.org/Graphics/SVG/1.1/DTD/svg11.dtd">
<svg version="1.1" id="Layer_1" xmlns="http://www.w3.org/2000/svg" xmlns:xlink="http://www.w3.org/1999/xlink" x="0px" y="0px"
	 width="233px" height="30px" viewBox="0 0 233 30" enable-background="new 0 0 233 30" xml:space="preserve">
<g>
	<path fill="#FEFEFE" d="M85.113,115.428c-47.838,0-95.676-0.007-143.515,0.038c-1.478,0.001-1.769-0.263-1.768-1.601
		c0.046-64.085,0.046-128.171,0-192.257c-0.001-1.338,0.29-1.601,1.768-1.6c95.677,0.041,191.353,0.041,287.032,0
		c1.478,0,1.768,0.262,1.767,1.6c-0.046,64.085-0.046,128.172,0,192.257c0.001,1.338-0.289,1.602-1.767,1.601
		C180.79,115.421,132.951,115.428,85.113,115.428z"/>
	<path fill-rule="evenodd" clip-rule="evenodd" fill="#6FE0EA" d="M-22.516,24.378c-7.043-0.1-15.077-2.412-21.857-7.926
		c-4.424-3.598-7.154-11.433-5.333-16.113c2.614-6.722,8.05-10.937,15.185-13.436c10.444-3.657,20.849-3.332,30.814,1.275
		C3.959-8.277,9.225-2.919,8.873,5.486C8.66,10.569,5.596,14.43,1.488,17.615C-4.191,22.018-12.095,24.37-22.516,24.378z"/>
	<path fill-rule="evenodd" clip-rule="evenodd" fill="#78E2EC" d="M124.673,10.324c0-1.04-0.004-2.083,0.002-3.124
		c0.007-0.723-0.028-1.586,0.831-1.854c0.922-0.286,2.093-0.517,2.787,0.35c0.505,0.627,0.904,0.444,1.422,0.228
		c2.788-1.167,5.569-1.281,8.135,0.371c0.788,0.506,1.263,0.211,1.673-0.106c1.948-1.507,4.249-1.161,6.381-0.841
		c1.658,0.25,2.947,1.292,2.926,3.115s-0.007,3.645,0.027,5.468c0.018,1.025-0.209,1.776-1.597,1.848
		c-1.448,0.074-2.199-0.522-2.263-1.772c-0.077-1.427-0.096-2.863-0.022-4.292c0.093-1.752-0.865-2.496-2.682-2.527
		c-1.891-0.033-3.36,1.001-3.432,2.496c-0.068,1.43-0.024,2.863-0.022,4.293c0,1.204-0.655,1.786-1.988,1.797
		c-1.342,0.015-1.979-0.5-1.917-1.766c0.065-1.366-0.028-2.734,0.023-4.1c0.059-1.487-0.375-2.554-2.254-2.719
		c-1.991-0.175-3.515,0.646-3.949,2.244c-0.401,1.474-0.165,2.98-0.168,4.472c-0.003,1.16-0.338,1.857-1.798,1.878
		c-1.386,0.018-2.003-0.633-2.072-1.75c-0.079-1.234-0.021-2.472-0.021-3.708C124.689,10.324,124.682,10.324,124.673,10.324z"/>
	<path fill-rule="evenodd" clip-rule="evenodd" fill="#484848" d="M18.514,7.971c0-1.886-0.009-3.775,0.003-5.662
		c0.006-0.937,0.312-1.734,1.547-1.72c4.011,0.04,8.051-0.428,12.025,0.365c2.767,0.553,3.923,1.737,4.041,3.849
		c0.13,2.328-0.83,3.567-3.345,4.326c-2.72,0.82-5.542,0.67-8.33,0.597c-1.534-0.04-2.066,0.404-1.898,1.761
		c0.104,0.835,0.013,1.689,0.009,2.536c-0.009,1.217-0.702,1.741-2.027,1.747c-1.338,0.006-2.018-0.541-2.022-1.748
		C18.51,12.004,18.515,9.988,18.514,7.971z"/>
	<path fill-rule="evenodd" clip-rule="evenodd" fill="#474747" d="M106.959,11.545c0,0.716,0.011,1.433-0.003,2.148
		c-0.04,2-1.436,2.824-3.122,1.632c-0.875-0.619-1.347-0.465-2.112-0.155c-2.466,1.005-4.815,0.797-7.16-0.457
		c-1.351-0.725-1.63-1.702-1.449-2.944c0.186-1.271,1.372-1.603,2.431-1.9c1.931-0.546,3.966-0.513,5.969-0.651
		c0.592-0.041,1.594,0.416,1.613-0.7c0.015-0.907-0.686-1.196-1.554-1.301c-1.816-0.225-3.576,0.065-5.322,0.471
		c-0.625,0.145-1.244,0.37-1.893,0.134c-0.379-0.139-0.849-0.195-0.871-0.717c-0.019-0.436,0.203-0.65,0.609-0.902
		c2.325-1.436,9.03-1.472,11.436-0.081c0.976,0.565,1.264,1.398,1.352,2.3c0.099,1.033,0.022,2.08,0.022,3.123
		C106.922,11.545,106.94,11.545,106.959,11.545z"/>
	<path fill-rule="evenodd" clip-rule="evenodd" fill="#78E2EC" d="M175.179,10.375c0-1.107-0.02-2.213,0.004-3.319
		c0.015-0.721,0.041-1.548,0.98-1.762c0.878-0.199,1.983-0.435,2.594,0.377c0.66,0.878,1.128,0.575,1.923,0.209
		c3.249-1.5,7.205-0.848,8.991,1.233c0.784,0.913,0.5,1.847,0.558,2.778c0.079,1.297-0.054,2.606,0.038,3.903
		c0.098,1.353-0.633,1.986-1.988,1.949c-1.31-0.038-2.373-0.516-2.356-1.968c0.012-1.236-0.014-2.473,0.004-3.709
		c0.021-1.433,0.032-2.788-2.187-2.891c-2.542-0.119-4.288,0.746-4.556,2.59c-0.192,1.345-0.125,2.727-0.106,4.091
		c0.019,1.117-0.235,1.893-1.736,1.928c-1.512,0.034-2.085-0.698-2.144-1.895c-0.057-1.169-0.012-2.342-0.012-3.514
		C175.183,10.375,175.18,10.375,175.179,10.375z"/>
	<path fill-rule="evenodd" clip-rule="evenodd" fill="#484848" d="M72.359,10.33c-0.001-1.104-0.008-2.209,0.003-3.313
		c0.005-0.707-0.142-1.534,0.864-1.786c0.898-0.225,2.018-0.358,2.583,0.374c0.552,0.717,1.026,0.705,1.636,0.346
		c1.97-1.164,4.132-0.963,6.254-0.68c2.12,0.283,3.61,2.115,3.696,4.333c0.052,1.363-0.004,2.731,0.014,4.094
		c0.022,1.369-0.848,2.007-2.214,2.051c-1.41,0.045-2.255-0.511-2.146-1.978c0.1-1.36,0-2.729,0.021-4.094
		c0.028-1.845-1.114-2.501-2.975-2.502c-2.341-0.003-3.721,0.861-3.813,2.532c-0.079,1.426-0.075,2.861-0.011,4.288
		c0.065,1.46-0.937,1.724-2.196,1.765c-1.32,0.042-1.749-0.632-1.72-1.725C72.385,12.799,72.359,11.563,72.359,10.33z"/>
	<path fill-rule="evenodd" clip-rule="evenodd" fill="#78E2EC" d="M169.087,14.226c-3.787,2.091-7.741,2.072-11.646,0.461
		c-2.297-0.945-2.857-2.895-2.615-5.076c0.272-2.469,2.232-3.604,4.458-4.162c2.267-0.565,4.682-0.564,6.967,0.23
		c1.541,0.536,2.773,1.353,2.881,3.026c0.386,0.55,0.396,1.093-0.039,1.628c-2.578,0.826-5.248,0.12-7.852,0.389
		c-0.831,0.087-2.157-0.587-2.393,0.539c-0.255,1.199,1.044,1.762,2.108,2.13c1.606,0.555,3.214,0.247,4.835-0.152
		c1.04-0.256,2.127-0.978,3.268-0.189C169.421,13.436,169.413,13.827,169.087,14.226z"/>
	<path fill-rule="evenodd" clip-rule="evenodd" fill="#484848" d="M52.008,9.504c0.248-2.043,1.644-3.236,3.674-3.807
		c3.393-0.958,6.679-1.167,9.595,1.274c0.641,0.539,0.876,1.108,1.116,1.762c0.402,0.535,0.404,1.065-0.033,1.586
		c-2.722,0.836-5.533,0.142-8.285,0.402c-0.707,0.067-1.775-0.481-2.067,0.398c-0.341,1.027,0.577,1.63,1.522,2.062
		c1.647,0.75,3.348,0.525,5.04,0.19c0.624-0.123,1.221-0.355,1.83-0.537c0.721-0.214,1.499-0.358,1.839,0.436
		c0.371,0.859-0.229,1.268-1.09,1.55c-4.026,1.319-7.899,1.578-11.616-0.879c-1.012-0.666-1.194-1.531-1.502-2.437
		C51.575,10.843,51.585,10.176,52.008,9.504z"/>
	<path fill-rule="evenodd" clip-rule="evenodd" fill="#78E2EC" d="M210.436,9.103c0.049-1.681,1.432-2.493,2.763-3.216
		c2.459-1.337,7.639-0.816,10.011,0.699c1.022,0.652,1.304,1.503,1.495,2.445c0.229,1.121-0.277,1.706-1.63,1.682
		c-2.368-0.042-4.738-0.036-7.106,0.009c-0.568,0.01-1.495-0.376-1.65,0.375c-0.155,0.742,0.183,1.547,1.092,1.942
		c1.534,0.665,3.111,0.935,4.782,0.453c0.817-0.234,1.651-0.418,2.47-0.652c0.819-0.234,1.642-0.339,1.944,0.581
		c0.249,0.759-0.354,1.263-1.068,1.473c-4.016,1.19-7.948,1.542-11.646-0.93c-0.836-0.558-1.201-1.237-1.433-2.064
		C209.904,10.972,209.928,10.039,210.436,9.103z"/>
	<path fill-rule="evenodd" clip-rule="evenodd" fill="#78E2EC" d="M203.64,15.773c-4.55-0.293-6.498-1.269-6.083-5.617
		c0.045-0.452-0.044-0.916,0.015-1.366c0.151-1.16-0.312-1.692-1.669-1.596c-0.786,0.054-1.736,0.001-1.693-1.023
		c0.038-0.869,0.9-0.978,1.616-0.91c1.498,0.145,1.859-0.496,1.756-1.705c-0.119-1.41,0.988-1.82,2.228-1.779
		c1.212,0.04,2.301,0.455,2.073,1.888c-0.218,1.37,0.554,1.71,1.875,1.575c0.424-0.043,0.864-0.012,1.292,0.032
		c0.644,0.067,1.091,0.374,1.07,1.003c-0.015,0.527-0.404,0.785-0.955,0.9c-1.028,0.215-2.58-0.463-3.014,0.417
		c-0.513,1.042-0.131,2.423-0.282,3.641c-0.225,1.816,0.828,2.466,2.598,2.572c0.793,0.048,1.769,0,1.666,1.042
		c-0.096,0.958-1.054,0.895-1.846,0.923C204.07,15.779,203.854,15.773,203.64,15.773z"/>
	<path fill-rule="evenodd" clip-rule="evenodd" fill="#474747" d="M46.041,8.107c0,1.951-0.065,3.903,0.022,5.852
		c0.065,1.464-0.903,1.745-2.16,1.798c-1.288,0.053-1.772-0.57-1.766-1.689c0.024-3.967,0.023-7.932,0.002-11.898
		c-0.007-1.176,0.628-1.677,1.858-1.6c1.145,0.074,2.11,0.307,2.06,1.687C45.988,4.204,46.041,6.156,46.041,8.107z"/>
	<path fill-rule="evenodd" clip-rule="evenodd" fill="#C3F2F6" d="M210.436,9.103c0.01,0.934,0.016,1.864,0.023,2.797
		C209.128,10.977,209.142,10.043,210.436,9.103z"/>
	<path fill-rule="evenodd" clip-rule="evenodd" fill="#CCCCCC" d="M52.008,9.504c0.007,0.666,0.016,1.335,0.023,2.002
		C50.804,10.849,50.709,10.184,52.008,9.504z"/>
	<path fill-rule="evenodd" clip-rule="evenodd" fill="#D4D4D4" d="M66.36,10.319c0.011-0.528,0.022-1.057,0.033-1.586
		C67.562,9.284,67.586,9.812,66.36,10.319z"/>
	<path fill-rule="evenodd" clip-rule="evenodd" fill="#BDF1F6" d="M169.093,10.334c0.012-0.543,0.027-1.086,0.039-1.628
		C170.287,9.271,170.301,9.815,169.093,10.334z"/>
	<path fill-rule="evenodd" clip-rule="evenodd" fill="#E1F8FA" d="M169.087,14.226c-0.01-0.392-0.018-0.785-0.027-1.176
		c0.437,0.055,0.853,0.147,0.792,0.668C169.804,14.121,169.434,14.167,169.087,14.226z"/>
	<path fill-rule="evenodd" clip-rule="evenodd" fill="#FEFEFE" d="M-20.585-14.229c7.316,0.054,14.205,1.715,20.013,5.861
		C4.834-4.508,8.244,0.462,6.79,7.064c-1.184,5.377-4.901,9.163-10.042,11.84c-8.869,4.62-18.242,5.373-27.977,2.754
		c-6.134-1.649-11.433-4.593-14.73-9.634c-2.47-3.775-3.396-7.863-1.345-12.343c4.1-8.954,12.309-12.172,21.964-13.562
		C-23.794-14.103-22.227-14.431-20.585-14.229z"/>
	<path fill-rule="evenodd" clip-rule="evenodd" fill="#FEFEFE" d="M26.569,2.697c1.14,0.075,2.314,0.017,3.408,0.262
		c1.156,0.258,2.246,0.753,2.323,2.126c0.074,1.305-0.924,1.875-1.968,2.168c-2.287,0.639-4.68,0.248-7.027,0.306
		c-0.552,0.015-0.723-0.304-0.719-0.747c0.002-0.128,0.001-0.26-0.008-0.388C22.288,2.742,22.288,2.742,26.569,2.697z"/>
	<path fill-rule="evenodd" clip-rule="evenodd" fill="#FCFCFC" d="M101.318,10.744c0.477,0.224,1.583-0.567,1.809,0.474
		c0.199,0.918-0.203,1.784-1.365,2.133c-0.264,0.079-0.48,0.31-0.744,0.364c-1.29,0.261-2.511,0.241-3.638-0.552
		c-0.589-0.417-0.619-1.012-0.345-1.355c0.718-0.896,1.895-1.009,3.042-1.06C100.433,10.731,100.79,10.744,101.318,10.744z"/>
	<path fill-rule="evenodd" clip-rule="evenodd" fill="#FDFEFE" d="M162.164,9.177c-0.641,0-1.288,0.043-1.923-0.014
		c-0.496-0.044-1.292,0.3-1.368-0.481c-0.052-0.522,0.399-0.914,0.978-1.151c1.632-0.677,3.235-0.923,4.883-0.02
		c0.536,0.294,0.969,0.622,0.818,1.205c-0.152,0.596-0.781,0.436-1.249,0.454C163.592,9.195,162.877,9.177,162.164,9.177z"/>
	<path fill-rule="evenodd" clip-rule="evenodd" fill="#FCFCFC" d="M59.269,9.211c-0.642,0-1.29,0.049-1.924-0.016
		c-0.482-0.049-1.289,0.34-1.336-0.494c-0.029-0.514,0.356-0.874,0.954-1.138c1.65-0.729,3.232-0.796,4.914-0.081
		c0.69,0.293,1.092,0.701,0.96,1.303c-0.158,0.73-0.928,0.369-1.429,0.411C60.7,9.255,59.983,9.211,59.269,9.211z"/>
	<path fill-rule="evenodd" clip-rule="evenodd" fill="#FDFEFE" d="M214.125,9.177c1.147-2.163,4.746-2.941,6.358-1.631
		c0.341,0.277,0.66,0.786,0.637,1.171c-0.035,0.64-0.748,0.443-1.201,0.45C218.063,9.19,216.208,9.177,214.125,9.177z"/>
	<path fill-rule="evenodd" clip-rule="evenodd" fill="#6FE0EA" d="M-16.963,0.599c3.871-0.121,7.727-0.332,11.449-1.441
		c0.917-0.274,1.486-0.271,1.175,0.966c-1.612,6.421-5.972,10.43-13.702,10.99c-2.279,0.164-4.541,0.54-6.802,0.862
		c-0.5,0.071-1.006,0.322-1.379-0.128c-0.413-0.5-0.135-1.021,0.197-1.444c0.918-1.167,2.124-2.065,3.416-2.874
		c0.424-0.338,0.938-0.558,1.377-0.875c0.334-0.019,0.688-0.159,0.988,0.1c-0.273-0.299-0.636-0.111-0.961-0.135
		c-0.506,0.445-1.196,0.403-1.81,0.561c-3.834,1.238-5.559,3.777-5.552,7.384c0.23,0.723,0.139,1.167-0.864,0.804
		c-0.702-4.152,0.492-7.878,3.095-11.288c0.174-0.823,1.062-1.058,1.593-1.589c1.399-0.906,2.961-1.443,4.654-1.685
		C-19.053,0.675-18.038,0.265-16.963,0.599z"/>
	<path fill-rule="evenodd" clip-rule="evenodd" fill="#6FE0EA" d="M-27.735,3.759c-2.32-0.516-4.124-1.77-5.455-3.479
		c-1.254-1.607-1.887-3.521-2.554-5.544c2.043-0.214,3.925,0.762,5.966,0.83c4.361,0.146,8.689,0.662,12.457,2.953
		c0.689,0.419,2.346,0.756,0.37,1.69c-1.308,0.386-2.621,0.749-4.019,0.712c-0.689,0.061-1.194-0.372-1.787-0.558
		c-0.574-0.213-1.242-0.185-1.707-0.433c0.262,0.38,0.907,0.119,1.332,0.369c1.136,0.439,0.917,0.942,0.047,1.409
		c-0.71,0.382-1.473,0.687-2.017,1.281C-25.933,3.375-26.63,4.138-27.735,3.759z"/>
	<path fill-rule="evenodd" clip-rule="evenodd" fill="#E3F8FB" d="M-21.28,0.553c1.476,0.216,2.849-0.622,4.33-0.344
		c-0.005,0.13-0.01,0.259-0.012,0.389c-1.018,0.224-2.036,0.447-3.053,0.671C-20.315,0.854-21.385,1.553-21.28,0.553z"/>
	<path fill-rule="evenodd" clip-rule="evenodd" fill="#ECFAFC" d="M-27.735,3.759c1.048,0.2,1.51-0.91,2.469-0.907
		c0.202-0.159,0.386-0.145,0.555,0.042c-0.31,0.657-1.066,0.814-1.627,1.187C-26.822,4.04-27.351,4.158-27.735,3.759z"/>
	<path fill-rule="evenodd" clip-rule="evenodd" fill="#9CEAF0" d="M-29.432,15.368c0.617,0.022,0.78-0.356,0.864-0.804
		c0.396,0.496,0.699,1.1,0.023,1.477C-29.042,16.32-29.464,15.961-29.432,15.368z"/>
	<path fill-rule="evenodd" clip-rule="evenodd" fill="#D9F7F9" d="M-21.24,6.917c-0.333,0.432-0.771,0.669-1.37,0.613
		c-0.135-0.117-0.271-0.233-0.406-0.35c0.429-0.544,1.181-0.433,1.744-0.706c0.14,0.091,0.191,0.186,0.154,0.288
		C-21.155,6.864-21.196,6.917-21.24,6.917z"/>
	<path fill-rule="evenodd" clip-rule="evenodd" fill="#ECFBFC" d="M-24.711,2.894c-0.185-0.014-0.369-0.028-0.554-0.042
		c0.437-0.736,1.226-1.049,1.999-1.396c0.884-0.398,0.648-0.718-0.122-0.963c-0.131-0.365-0.008-0.516,0.42-0.413
		c0.6,0.053,1.197,0.107,1.688,0.474c0.422,0.24,0.843,0.479,1.265,0.717C-21.716,1.49-23.201,2.222-24.711,2.894z"/>
	<path fill-rule="evenodd" clip-rule="evenodd" fill="#E4F9FB" d="M-21.24,6.917c-0.011-0.148-0.022-0.296-0.033-0.443
		c0.509-0.019,1.007-0.386,1.562-0.063C-20.083,7.012-20.762,6.708-21.24,6.917z"/>
	<path fill-rule="evenodd" clip-rule="evenodd" fill="#B8F0F5" d="M-22.969,0.08c-0.14,0.137-0.28,0.275-0.42,0.413
		c-0.528,0.041-0.978-0.117-1.565-0.616C-24.146-0.259-23.551-0.391-22.969,0.08z"/>
</g>
</svg>
