<?xml version="1.0" encoding="utf-8"?>
<!-- Generator: Adobe Illustrator 16.0.0, SVG Export Plug-In . SVG Version: 6.00 Build 0)  -->
<!DOCTYPE svg PUBLIC "-//W3C//DTD SVG 1.1//EN" "http://www.w3.org/Graphics/SVG/1.1/DTD/svg11.dtd">
<svg version="1.1" id="Layer_1" xmlns="http://www.w3.org/2000/svg" xmlns:xlink="http://www.w3.org/1999/xlink" x="0px" y="0px"
	 width="202.351px" height="120.456px" viewBox="45.892 -33.531 202.351 120.456"
	 enable-background="new 45.892 -33.531 202.351 120.456" xml:space="preserve">
<rect id="_x3C_Slice_x3E__2_" x="-0.062" y="-0.719" fill="none" width="212" height="30"/>
<rect id="_x3C_Slice_x3E_" x="-0.062" y="-0.719" fill="none" width="221" height="30"/>
<rect id="_x3C_Slice_x3E__1_" x="-5.062" y="53.281" fill="none" width="1" height="1"/>
<g>
	<g>
		
			<image overflow="visible" width="203" height="122" xlink:href="9B802FB7DF9F4B6.png"  transform="matrix(1 0 0 1 45.167 -34.166)">
		</image>
		<path fill="#FEFEFE" d="M247.657,86.863c0-33.34-0.07-66.681,0.062-100.021c0.024-6.246,0.059-12.499,0.203-18.747
			c0.026-1.147-0.355-1.386-1.429-1.385c-23.431,0.028-46.861,0.023-70.292,0.012c-0.498,0-1.051,0.197-1.491-0.231
			c24.155,0,48.31,0.005,72.464-0.023c0.824-0.001,0.986,0.162,0.986,0.986c-0.026,39.482-0.021,78.964-0.049,118.445
			C248.114,86.202,248.61,86.939,247.657,86.863z"/>
		<path fill="#FEFEFE" d="M45.914,86.623c23.818,0,47.637-0.001,71.455,0.009c0.498,0.001,1.05-0.196,1.49,0.232
			c-23.955,0-47.909,0.001-71.864-0.017C46.644,86.848,46.18,87.126,45.914,86.623z"/>
		<path fill="#99E165" d="M120.099,16.791c0-0.315,0-0.629,0-0.944c0.411-0.521,0.007-1.234,0.414-1.756
			c0.236-2.173,1.29-3.949,2.751-5.5c4.582-4.862,10.522-6.87,16.891-7.871c5.512-0.866,11.003-0.687,16.446,0.668
			c4.904,1.222,9.463,3.151,13.021,6.832c1.535,1.587,3.005,3.395,2.954,5.868c0.405,0.523,0.003,1.236,0.414,1.758
			c-0.003,0.315-0.003,0.63-0.005,0.944c-0.258,0.286-0.189,0.641-0.204,0.978c-1.162,5.253-4.907,8.222-9.433,10.339
			c-9.322,4.361-18.99,4.667-28.771,1.868c-4.473-1.279-8.585-3.377-11.671-7.025c-1.193-1.41-2.215-2.964-2.402-4.896
			C120.187,17.692,120.434,17.147,120.099,16.791z"/>
		<path fill="#9C705F" d="M159.796,52.958c0.965-0.146,1.326-0.694,1.249-1.667c-0.071-0.917-0.015-1.844-0.028-2.768
			c-0.021-1.406-0.699-2.069-2.129-2.092c-0.525-0.01-1.023,0.103-1.535,0.23c-0.826,0.208-1.17,0.605-1.127,1.51
			c0.073,1.479,0,2.967-0.014,4.45c0.153,0.258,0.409,0.161,0.629,0.177c1.066,0.073,1.143,0.199,0.76,1.29
			c-2.396-0.001-4.791-0.001-7.187-0.002c-0.32-0.378-0.323-0.755,0.002-1.132c1.222-0.13,1.704-0.827,1.644-2.027
			c-0.049-0.96-0.074-1.931,0.015-2.885c0.087-0.934-0.175-1.336-1.155-1.209c-0.318,0.042-0.822,0.195-0.949-0.245
			c-0.142-0.497-0.351-1.17,0.629-1.142c1.412,0.039,2.78-0.271,4.159-0.53c0.529-0.101,1.237-0.49,1.535,0.548
			c0.138,0.482,0.71,0.025,1.04-0.092c1.734-0.616,3.617-1.145,5.264-0.329c1.668,0.827,3.043,0.433,4.578-0.019
			c1.528-0.448,3.094-0.406,4.635-0.014c1.446,0.368,2.512,1.385,2.473,3.03c-0.03,1.243,0.035,2.487-0.021,3.729
			c-0.031,0.705,0.119,1.067,0.903,0.969c0.538-0.067,1.026-0.092,1.005,0.744c-0.021,0.818-0.557,0.627-0.995,0.631
			c-2.164,0.012-4.329,0.005-6.495,0.005c-0.121-0.718,0.016-1.212,0.809-1.368c0.563-0.111,0.548-0.66,0.568-1.068
			c0.053-1,0.053-2.006,0.029-3.007c-0.037-1.585-0.689-2.194-2.285-2.254c-0.863-0.032-1.652,0.233-2.449,0.498
			c-0.377,0.296-0.293,0.624-0.068,0.963c0.001,1.354,0.002,2.707,0.003,4.062c-0.446,0.974,0.267,0.893,0.817,0.844
			c1.084-0.096,1.229,0.406,0.891,1.273c-2.398,0.008-4.797,0.015-7.196,0.021C159.483,53.708,159.483,53.333,159.796,52.958z"/>
		<path fill="#9C705F" d="M63.261,41.398c3.92,0.021,7.848-0.271,11.756,0.216c1.462,0.183,2.885,0.512,4.11,1.446
			c0.583,0.444,0.916,0.963,1.006,1.666c0.255,0.405,0.256,0.812-0.002,1.217c-0.238,1.274-1.222,1.873-2.249,2.38
			c-2.282,1.122-4.745,1.312-7.229,1.204c-1.062-0.045-1.48,0.299-1.308,1.351c0.038,0.233,0.038,0.483-0.006,0.716
			c-0.174,0.916,0.209,1.236,1.1,1.129c0.392-0.048,0.796,0.008,1.194,0.016c0.399,0.447,0.366,0.897,0.018,1.354
			c-2.804,0.171-5.596-0.089-8.391-0.247c-0.317-0.377-0.315-0.754-0.001-1.132c1.396-0.006,1.828-0.437,1.842-1.913
			c0.027-2.643,0.029-5.285,0.042-7.929c-0.313-0.365-0.729-0.159-1.096-0.179C62.978,42.635,62.891,42.509,63.261,41.398z"/>
		<path fill="#9C705F" d="M124.127,54.1c-2.548,0-5.097,0-7.645,0c-0.336-0.387-0.342-0.771,0.004-1.156
			c1.159-0.004,1.771-0.498,1.683-1.745c-0.064-0.915-0.003-1.839-0.03-2.757c-0.035-1.224-0.662-1.871-1.888-2.008
			c-0.851-0.097-1.677,0.053-2.477,0.305c-0.603,0.189-0.968,0.556-0.928,1.309c0.068,1.275,0.05,2.559-0.005,3.835
			c-0.03,0.691,0.189,0.938,0.876,0.863c0.512-0.058,1.045-0.14,1.033,0.713c-0.013,0.901-0.631,0.653-1.09,0.656
			c-2.117,0.006-4.234-0.019-6.352-0.03c-0.305-0.375-0.306-0.749,0-1.123c0.969-0.093,1.368-0.646,1.333-1.594
			c-0.055-1.495,0.2-2.998-0.119-4.486c-0.291-0.171-0.612-0.089-0.92-0.104c-1.058-0.045-1.149-0.199-0.754-1.297
			c1.482-0.031,2.944-0.17,4.393-0.537c0.562-0.144,1.336-0.491,1.653,0.546c0.146,0.476,0.531,0.058,0.796-0.029
			c1.884-0.623,3.785-0.962,5.769-0.517c1.605,0.361,2.997,1.233,2.973,3.406c-0.01,0.92,0.008,1.84,0.004,2.762
			c-0.006,1.625-0.009,1.625,1.654,1.621C124.535,53.177,124.477,53.634,124.127,54.1z"/>
		<path fill="#9C705F" d="M209.34,47.648c-0.002,1.515-0.003,3.026-0.005,4.539c-0.251,0.793,0.361,0.586,0.729,0.607
			c1.195,0.069,1.196,0.061,0.987,1.27c-2.554,0.016-5.106,0.029-7.661,0.045c-0.336-0.394-0.342-0.785,0.006-1.176
			c0.568-0.066,1.24,0.07,1.439-0.729c0.341-1.451,0.334-2.902,0.004-4.354c-0.082-1.027-0.87-1.262-1.667-1.397
			c-0.463-0.079-0.963-0.039-1.433,0.038c-1.895,0.312-1.915,0.354-1.918,2.283c0,1,0.033,2.002-0.026,3
			c-0.043,0.703,0.115,1.07,0.899,0.966c0.541-0.072,1.02-0.091,1,0.741c-0.019,0.815-0.547,0.634-0.986,0.634
			c-2.24-0.001-4.479-0.019-6.721-0.029c-0.32-0.378-0.322-0.755,0.002-1.132c1.211-0.038,1.648-0.742,1.637-1.865
			c-0.014-1.08-0.049-2.163,0.021-3.238c0.052-0.778-0.17-1.104-0.979-1.012c-0.465,0.053-0.954,0.113-0.981-0.658
			c-0.028-0.857,0.517-0.729,1.022-0.734c1.122-0.018,2.209-0.258,3.31-0.459c0.623-0.113,1.465-0.707,1.857,0.505
			c0.141,0.43,0.66,0.036,0.948-0.073c1.925-0.732,3.89-0.923,5.879-0.398c0.989,0.261,2.026,0.586,2.222,1.854
			C209.125,47.1,209.149,47.418,209.34,47.648z"/>
		<path fill="#9D705F" d="M133.83,47.371c-0.379-1.251-2.666-1.891-3.667-1.014c-0.102,0.088-0.211,0.287-0.179,0.393
			c0.297,0.973-0.306,1.311-1.062,1.497c-0.973,0.241-1.958,0.188-2.667-0.575c-0.414-0.447-0.221-0.999,0.282-1.439
			c1.118-0.978,2.489-1.17,3.87-1.348c2.036-0.261,4.053-0.297,5.99,0.562c0.762,0.338,1.267,0.881,1.514,1.671
			c0.425,1.771,0.133,3.562,0.162,5.344c0.51,0.483,1.137,0.108,1.696,0.231c0.361,0.475,0.405,0.94-0.03,1.396
			c-1.831-0.124-3.68,0.243-5.499-0.201c-0.195-0.203-0.386-0.42-0.714-0.262c-1.878,0.645-3.786,1.036-5.758,0.507
			c-0.752-0.202-1.531-0.38-1.937-1.224c-0.516-1.073-0.262-2.164,0.766-2.776c1.443-0.86,3.061-1.108,4.69-1.301
			c0.834-0.099,1.672-0.163,2.509-0.243C134.122,48.191,134.097,47.785,133.83,47.371z"/>
		<path fill="#9C705F" d="M191.54,49.279c-2.889,0.011-5.775,0.015-8.663,0.029c-0.94,0.006-1.205,0.407-0.832,1.242
			c0.479,1.074,1.24,1.825,2.442,2.021c1.859,0.303,3.666,0.176,5.361-0.74c0.174-0.096,0.35-0.191,0.531-0.266
			c0.523-0.215,0.891,0.205,1.119,0.479c0.371,0.441-0.23,0.598-0.479,0.743c-3.287,1.937-6.75,1.989-10.293,0.866
			c-1.025-0.325-1.836-0.938-2.554-1.815c-1.601-1.966-0.827-3.854,0.646-5.196c2.699-2.455,8.602-2.658,11.595-0.522
			c0.674,0.479,0.942,1.213,1.18,1.961C191.838,48.493,191.886,48.895,191.54,49.279z"/>
		<path fill="#9C705F" d="M90.652,49.061c0.762-2.851,3.038-3.812,5.575-4.23c2.312-0.381,4.65-0.243,6.788,0.891
			c1.077,0.569,1.829,1.424,1.958,2.746c0.073,0.74-0.189,0.86-0.843,0.854c-2.686-0.029-5.372-0.016-8.059-0.01
			c-1.157,0.002-1.339,0.39-0.777,1.432c1.08,2.001,2.703,2.121,5.326,1.887c0.907-0.081,1.814-0.363,2.589-0.871
			c0.355-0.23,0.625-0.305,0.972-0.097c0.26,0.155,0.675,0.147,0.731,0.522c0.064,0.424-0.372,0.485-0.622,0.627
			c-2.574,1.441-5.332,1.823-8.228,1.391c-1.438-0.215-2.78-0.635-3.933-1.571c-0.836-0.681-1.292-1.555-1.48-2.594
			C90.436,49.709,90.436,49.385,90.652,49.061z"/>
		<path fill="#9C705F" d="M238.726,49.279c-2.885,0.011-5.769,0.015-8.652,0.029c-0.981,0.006-1.206,0.435-0.797,1.338
			c0.563,1.24,1.539,1.871,2.854,2.008c1.824,0.191,3.613,0.035,5.213-0.932c0.617-0.373,1.054-0.152,1.329,0.258
			c0.335,0.498-0.148,0.75-0.557,0.953c-3.729,1.853-7.508,2.058-11.268,0.17c-1.193-0.6-2.064-1.593-2.104-3.068
			c-0.215-0.325-0.215-0.649,0.002-0.975c0.169-1.76,1.383-2.746,2.801-3.391c3.018-1.369,6.129-1.396,9.189-0.107
			c1.074,0.451,2.007,1.158,2.041,2.52C239.024,48.493,239.071,48.895,238.726,49.279z"/>
		<path fill="#9D705F" d="M88.978,54.102c-2.286,0.006-4.571,0.02-6.857,0.015c-0.36-0.001-0.837,0.165-0.876-0.497
			c-0.031-0.523,0.193-0.659,0.679-0.74c0.767-0.128,1.091-0.638,1.083-1.447c-0.028-2.729-0.037-5.455,0.019-8.183
			c0.015-0.765-0.211-1.003-0.941-0.935c-0.502,0.05-1.052,0.146-1.025-0.717c0.024-0.779,0.516-0.695,0.982-0.673
			c1.419,0.071,2.776-0.319,4.158-0.524c0.798-0.118,1.122,0.136,1.107,1.022c-0.053,3.207-0.017,6.417-0.023,9.625
			c-0.003,1.695-0.011,1.695,1.657,1.681C89.387,53.174,89.329,53.634,88.978,54.102z"/>
		<path fill="#9C705F" d="M221.89,46.377c-0.92,0.014-1.841,0.062-2.759,0.027c-0.646-0.022-0.83,0.229-0.813,0.842
			c0.035,1.199-0.014,2.4,0.011,3.604c0.024,1.338,0.485,1.769,1.823,1.824c0.707,0.029,1.41-0.119,1.934-0.521
			c0.864-0.662,1.488-0.422,2.118,0.269c-1.726,2.172-6.82,2.371-8.673,1.285c-1.189-0.698-1.596-2.052-1.484-3.601
			c0.072-0.996,0.079-1.998,0.073-2.996c-0.004-0.617-0.504-0.621-0.949-0.647c-0.458-0.026-0.959,0.123-1.002-0.657
			c-0.039-0.725,0.353-0.859,0.899-0.974c1.041-0.216,2-0.733,2.61-1.542c0.638-0.841,1.392-0.625,2.14-0.607
			c0.787,0.017,0.539,0.696,0.502,1.1c-0.088,0.923,0.187,1.312,1.175,1.213c0.79-0.08,1.597,0.007,2.396,0.021
			C222.226,45.468,222.228,45.923,221.89,46.377z"/>
		<path fill="#9D705F" d="M143.921,47.336c0.008-2.32-1.292-4.041-2.606-5.768c-0.173-0.229-0.85-0.32-0.417-0.782
			c0.311-0.332,0.743-0.521,1.278-0.193c1.451,0.888,2.763,1.954,3.855,3.233c0.876,1.023,1.669,2.156,1.986,3.525
			c0.2,0.226,0.223,0.543,0.406,0.775c0.001,0.948,0.001,1.896,0.002,2.844c-0.188,0.231-0.213,0.549-0.402,0.78
			c-0.565,2.153-1.953,3.755-3.521,5.239c-0.719,0.681-1.547,1.197-2.371,1.734c-0.453,0.293-0.858,0.303-1.175-0.048
			c-0.425-0.47,0.064-0.713,0.34-1.049c1.405-1.709,2.679-3.491,2.63-5.858c0.378-0.437,0.045-1.069,0.418-1.506
			c0-0.479-0.001-0.955-0.001-1.434C143.969,48.4,144.311,47.766,143.921,47.336z"/>
		<path fill="#9D705F" d="M57.916,52.213c0.526,1.941,1.197,3.807,2.705,5.241c0.285,0.271,0.68,0.549,0.287,0.979
			c-0.292,0.321-0.676,0.362-1.083,0.119c-2.591-1.552-4.807-3.584-5.855-6.393c-0.75-2.01-0.713-4.213,0.602-6.291
			c1.337-2.111,2.974-3.809,5.038-5.166c0.479-0.314,0.905-0.449,1.27-0.043c0.493,0.549-0.115,0.781-0.427,1.117
			c-1.285,1.384-1.95,3.099-2.481,4.865c-0.377,1.254-0.69,2.527-0.456,3.859c0.142,0.186,0.192,0.396,0.191,0.626
			C57.732,51.5,57.633,51.895,57.916,52.213z"/>
		<path fill="#D2BCAC" d="M138.074,52.461c-0.406-1.771-0.069-3.562-0.162-5.344c0.127,0.086,0.363,0.168,0.365,0.258
			C138.331,49.075,138.659,50.788,138.074,52.461z"/>
		<path fill="#B49282" d="M204.84,47.852c0.32,0.067,0.449,0.276,0.448,0.592c-0.002,1.06,0,2.119,0.004,3.179
			c0.001,0.317-0.139,0.521-0.456,0.584C204.837,50.754,204.839,49.303,204.84,47.852z"/>
		<path fill="#AF8C7B" d="M166.991,54.064c0.182-1.012-0.342-1.237-1.223-1.146c-0.324,0.034-0.759,0.121-0.887-0.369
			c-0.086-0.326,0.064-0.535,0.4-0.604c-0.025,0.598,0.253,0.824,0.849,0.761C167.301,52.583,167.489,53.115,166.991,54.064z"/>
		<path fill="#B69584" d="M63.261,41.398c-0.13,0.822,0.086,1.315,1.053,1.187c0.296-0.041,0.65-0.085,0.83,0.286
			c-0.557-0.02-1.115-0.032-1.672-0.059c-0.317-0.016-0.709-0.006-0.681-0.461C62.813,41.995,62.466,41.395,63.261,41.398z"/>
		<path fill="#AB8675" d="M211.052,54.064c0.182-1.013-0.347-1.232-1.225-1.147c-0.312,0.03-0.77,0.162-0.869-0.36
			c-0.048-0.252,0.182-0.314,0.377-0.367c0.044,0.564,0.445,0.555,0.85,0.519C211.351,52.604,211.56,53.104,211.052,54.064z"/>
		<path fill="#D3BFAE" d="M106.848,45.48c-0.446,1.666,1.075,0.981,1.674,1.399c-0.478,0.013-0.957,0.039-1.435,0.032
			c-0.319-0.004-0.699-0.02-0.715-0.45C106.357,46.078,106.108,45.521,106.848,45.48z"/>
		<path fill="#C2A595" d="M157.601,54.089c0.453-1.354-0.901-1-1.389-1.467c0.395,0.017,0.789,0.028,1.184,0.052
			c0.32,0.018,0.694,0.024,0.682,0.465C158.063,53.504,158.369,54.084,157.601,54.089z"/>
		<path fill="#A3E372" d="M120.514,14.091c-0.091,0.597,0.397,1.33-0.414,1.756C120.176,15.247,119.736,14.525,120.514,14.091z"/>
		<path fill="#A3E372" d="M172.991,15.847c-0.812-0.427-0.324-1.16-0.414-1.757C173.354,14.524,172.913,15.247,172.991,15.847z"/>
		<path fill="#AB8575" d="M221.89,46.377c0-0.455,0-0.91,0-1.363C222.582,45.463,222.582,45.925,221.89,46.377z"/>
		<path fill="#F0E5D6" d="M139.741,54.09c0.01-0.466,0.02-0.931,0.03-1.396C140.5,53.25,140.493,53.596,139.741,54.09z"/>
		<path fill="#F0E7D8" d="M144.344,50.266c-0.058,0.523,0.299,1.164-0.418,1.506C144.011,51.253,143.54,50.583,144.344,50.266z"/>
		<path fill="#EEE4D5" d="M143.921,47.336c0.715,0.337,0.37,0.973,0.422,1.496C143.544,48.52,144.007,47.85,143.921,47.336z"/>
		<path fill="#DCCABA" d="M124.127,54.1c-0.012-0.455-0.024-0.91-0.036-1.367C124.847,53.189,124.857,53.564,124.127,54.1z"/>
		<path fill="#C8AF9E" d="M71.651,54.091c-0.006-0.45-0.012-0.901-0.018-1.354C72.364,53.195,72.369,53.602,71.651,54.091z"/>
		<path fill="#E0D1C1" d="M88.978,54.102c-0.012-0.457-0.024-0.916-0.037-1.373C89.698,53.191,89.708,53.559,88.978,54.102z"/>
		<path fill="#F6F0E0" d="M203.396,52.934c-0.002,0.393-0.004,0.783-0.006,1.176C202.587,53.713,202.581,53.322,203.396,52.934z"/>
		<path fill="#BD9E8E" d="M193.99,52.956c0,0.378-0.001,0.755-0.001,1.132c-0.456,0.068-0.498-0.223-0.498-0.562
			C193.491,53.184,193.54,52.896,193.99,52.956z"/>
		<path fill="#B49282" d="M63.26,52.712c0,0.377,0,0.754,0.001,1.131c-0.472,0.081-0.492-0.229-0.493-0.563
			C62.768,52.945,62.79,52.636,63.26,52.712z"/>
		<path fill="#AD8978" d="M159.796,52.958c0,0.376-0.001,0.751-0.001,1.126c-0.479,0.092-0.489-0.229-0.489-0.559
			C159.306,53.191,159.319,52.876,159.796,52.958z"/>
		<path fill="#CFB8A8" d="M238.726,49.279c0.019-0.398,0.037-0.799,0.055-1.197C239.403,48.51,239.581,48.918,238.726,49.279z"/>
		<path fill="#CFB8A8" d="M191.54,49.279c0.018-0.398,0.036-0.799,0.054-1.197C192.218,48.51,192.396,48.918,191.54,49.279z"/>
		<path fill="#B08C7B" d="M133.83,47.371c0.68,0.425,0.729,0.833-0.032,1.22C133.808,48.184,133.818,47.777,133.83,47.371z"/>
		<path fill="#EEE4D5" d="M80.132,45.943c0-0.405,0.001-0.812,0.002-1.217C80.841,45.133,80.842,45.539,80.132,45.943z"/>
		<path fill="#A47B6A" d="M107.308,52.96c0,0.374,0,0.748,0,1.123c-0.495,0.104-0.486-0.229-0.486-0.558
			C106.823,53.197,106.817,52.866,107.308,52.96z"/>
		<path fill="#BD9E8E" d="M150.416,52.956c-0.001,0.378-0.001,0.755-0.002,1.132c-0.455,0.068-0.498-0.223-0.498-0.562
			C149.916,53.184,149.965,52.896,150.416,52.956z"/>
		<path fill="#DECEBE" d="M116.486,52.943c-0.001,0.386-0.003,0.771-0.004,1.156C115.713,53.712,115.711,53.327,116.486,52.943z"/>
		<path fill="#BCEA94" d="M120.099,16.791c0.701,0.238,0.381,0.806,0.409,1.263C119.822,17.81,120.107,17.253,120.099,16.791z"/>
		<path fill="#BFA392" d="M57.916,52.213c-0.592-0.146-0.443-0.604-0.418-1.007c0.166-0.114,0.312-0.118,0.425,0.073
			C57.92,51.591,57.918,51.902,57.916,52.213z"/>
		<path fill="#F2E9DA" d="M224.747,49.061c-0.001,0.324-0.001,0.649-0.002,0.975C224.112,49.709,224.112,49.385,224.747,49.061z"/>
		<path fill="#F2E9DA" d="M90.652,49.061c0,0.324-0.001,0.649-0.001,0.975C90.019,49.709,90.019,49.385,90.652,49.061z"/>
		<path fill="#B8E98F" d="M172.782,17.769c-0.344-0.413-0.391-0.763,0.205-0.978C173.017,17.138,173.149,17.506,172.782,17.769z"/>
		<path fill="#C2A695" d="M165.28,47.885c-0.331-0.06-0.456-0.273-0.43-0.59c0.026-0.303,0.244-0.365,0.498-0.373
			C165.327,47.244,165.304,47.564,165.28,47.885z"/>
		<path fill="#CAB0A0" d="M209.34,47.648c-0.457-0.088-0.47-0.412-0.414-0.773C209.38,46.964,209.423,47.273,209.34,47.648z"/>
		<path fill="#C2A595" d="M148.423,48.128c-0.471-0.082-0.461-0.417-0.406-0.774C148.457,47.451,148.509,47.753,148.423,48.128z"/>
		<path fill="#F1E8D9" d="M57.923,51.279c-0.142-0.023-0.284-0.049-0.425-0.072c0.006-0.234,0.012-0.469,0.018-0.702
			C58,50.58,57.962,50.93,57.923,51.279z"/>
		<path fill="#BE9F8F" d="M148.021,51.752c-0.06-0.359-0.07-0.695,0.403-0.781C148.5,51.34,148.476,51.658,148.021,51.752z"/>
		<path fill="#E7DBCB" d="M133.528,53.627c0.42-0.406,0.688-0.402,0.714,0.262C134.004,53.802,133.766,53.714,133.528,53.627z"/>
		<image overflow="visible" width="51" height="30" xlink:href="9B802FB7DF9F4BA.png"  transform="matrix(1 0 0 1 121.167 0.834)">
		</image>
		<path fill="#D4F1B4" d="M170.64,19.235c-0.048-0.364-0.012-0.681,0.438-0.757C171.14,18.85,171.084,19.155,170.64,19.235z"/>
		<path fill="#D8F1B9" d="M171.078,13.449c-0.456-0.077-0.486-0.396-0.435-0.762C171.093,12.768,171.136,13.08,171.078,13.449z"/>
		<path fill="#FDFAEB" d="M75.324,46.205c-0.215,0.771-0.724,1.275-1.453,1.57c-0.259,0.104-0.523,0.252-0.79,0.266
			c-1.209,0.055-2.951,0.887-3.495-0.169c-0.695-1.349-0.442-3.177,0.219-4.736c0.043-0.103,0.139-0.194,0.231-0.263
			c1.238-0.902,4.605,0.115,5.286,1.594C75.61,45.045,75.608,45.625,75.324,46.205z"/>
		<path fill="#C9AFA0" d="M75.324,46.205c0-0.579-0.001-1.159-0.002-1.738C76.04,45.045,76.041,45.625,75.324,46.205z"/>
		<path fill="#FDFAEB" d="M133.793,51.958c-0.92,0.59-1.921,0.694-2.979,0.519c-0.47-0.08-0.861-0.203-0.877-0.777
			c-0.014-0.479,0.134-0.828,0.62-1.036c1.038-0.444,2.097-0.735,3.238-0.638C134.133,50.67,134.135,51.314,133.793,51.958z"/>
		<path fill="#A98271" d="M133.793,51.958c0-0.646,0.001-1.288,0.001-1.933C134.554,50.67,134.555,51.314,133.793,51.958z"/>
		<path fill="#FDF9EB" d="M182.202,48.098c0.703-2.063,2.906-2.807,4.632-1.703c0.524,0.336,0.663,0.818,0.604,1.318
			c-0.08,0.682-0.69,0.355-1.057,0.367C185.03,48.122,183.676,48.098,182.202,48.098z"/>
		<path fill="#FDFAEB" d="M95.276,48.096c0.423-1.383,1.306-2.009,2.539-2.13c1.056-0.104,2.044,0.021,2.709,1.05
			c0.19,0.293,0.337,0.545,0.23,0.858c-0.123,0.36-0.474,0.212-0.723,0.215C98.481,48.104,96.931,48.096,95.276,48.096z"/>
		<path fill="#FDF9EB" d="M229.424,48.096c0.185-1.455,1.146-1.955,2.304-2.113c1.131-0.155,2.236-0.053,2.924,1.088
			c0.298,0.494,0.576,1-0.355,1.018C232.673,48.116,231.05,48.096,229.424,48.096z"/>
		<image overflow="visible" width="24" height="15" xlink:href="9B802FB7DF9F4BD.png"  transform="matrix(1 0 0 1 138.167 10.834)">
		</image>
		<path fill="#99E165" d="M140.526,15.575c-1.746-0.66-3.465-1.337-4.871-2.654c-1.288-1.207-1.778-2.835-2.506-4.339
			c-0.19-0.394,0.189-0.509,0.469-0.427c4.323,1.258,8.945,0.521,13.226,1.958c1.544,0.519,3.156,1.015,4.446,2.286
			c-1.413,0.209-2.709,0.401-4.005,0.593c-1.003,0.567-1.858-0.095-2.762-0.332c-0.499-0.251-1.054-0.271-1.379-0.326
			c0.17-0.039,0.527,0.091,0.898,0.159c0.229,0.063,0.438,0.179,0.67,0.233c0.285,0.065,0.531,0.195,0.495,0.549
			c-0.032,0.318-0.266,0.52-0.534,0.565c-0.639,0.108-1.196,0.379-1.732,0.717c-0.321,0.159-0.624,0.35-0.924,0.544
			C141.486,15.151,141.269,16.19,140.526,15.575z"/>
		<path fill="#F4F9DE" d="M144.392,12.468c0.985,0.056,1.878,0.625,2.893,0.523c0.19,0.248,0.474,0.181,0.728,0.215
			c-1.645,0.362-3.286,0.734-4.827,1.439c-0.265,0.156-0.466,0.176-0.478-0.219c0.412-0.389,0.943-0.54,1.456-0.728
			c0.308-0.113,0.839-0.016,0.821-0.467c-0.016-0.413-0.573-0.282-0.856-0.459c-0.064-0.041-0.149-0.047-0.225-0.069
			C143.892,12.261,144.125,12.331,144.392,12.468z"/>
		<path fill="#EFF7D7" d="M138.808,21.135c-0.066,0.886,0.248,1.799-0.194,2.658C138.317,22.88,137.978,21.965,138.808,21.135z"/>
		<path fill="#FEFBEC" d="M140.526,15.575c0.678,0.178,0.858-0.676,1.441-0.696c0.28-0.164,0.482-0.17,0.481,0.237
			c-0.548,0.429-1.096,0.857-1.644,1.286C140.711,16.125,140.619,15.85,140.526,15.575z"/>
		<path fill="#EBF6D3" d="M146.06,17.717c0.39-0.229,0.777-0.483,1.431-0.102c-0.586,0.152-1.011,0.262-1.435,0.372
			C146.058,17.896,146.059,17.807,146.06,17.717z"/>
		<path fill="#C8EDA4" d="M139.554,25.222c0.012-0.245,0.024-0.489,0.036-0.734c0.242,0.066,0.465,0.156,0.417,0.472
			C139.966,25.227,139.756,25.222,139.554,25.222z"/>
		<path fill="#A1E370" d="M139.52,23.792c-0.184-0.039-0.371-0.082-0.396-0.313c-0.033-0.296,0.171-0.372,0.404-0.415
			C139.525,23.306,139.522,23.549,139.52,23.792z"/>
		<path fill="#D1F0B0" d="M139.591,22.603c-0.064-0.372-0.015-0.68,0.433-0.76C140.073,22.206,140.041,22.523,139.591,22.603z"/>
		<path fill="#E9F6CF" d="M142.448,15.115c-0.106-0.188-0.287-0.228-0.481-0.237c0.173-0.271,0.469-0.342,0.74-0.453
			c0.159,0.073,0.318,0.146,0.478,0.219C142.938,14.802,142.693,14.958,142.448,15.115z"/>
		<path fill="#CEEFAB" d="M148.329,17.064c0.14,0.044,0.306,0.051,0.197,0.219c-0.053,0.084-0.178,0.156-0.277,0.167
			c-0.13,0.014-0.236-0.093-0.168-0.224C148.124,17.145,148.257,17.109,148.329,17.064z"/>
		<path fill="#EDF7D5" d="M144.392,12.468c-0.193,0.015-0.378,0.047-0.489,0.234c-0.405-0.109-0.809-0.217-1.214-0.326
			C143.27,12.24,143.845,12.126,144.392,12.468z"/>
	</g>
</g>
<path fill="#FFFFFF" d="M83.667,20.333c-6.449,0-6.449,10,0,10S90.116,20.333,83.667,20.333z"/>
<path fill="#FFFFFF" d="M206.667,21.833c-6.447,0-6.447,10,0,10C213.115,31.833,213.115,21.833,206.667,21.833z"/>
<path fill="#FFFFFF" d="M278.667,24.333c-6.448,0-6.448,10,0,10S285.115,24.333,278.667,24.333z"/>
</svg>
